<?xml version="1.0" encoding="UTF-8" standalone="no"?>
<!DOCTYPE svg PUBLIC "-//W3C//DTD SVG 1.1//EN"
 "http://www.w3.org/Graphics/SVG/1.1/DTD/svg11.dtd">
<!-- Generated by graphviz version 2.38.0 (20140413.2041)
 -->
<!-- Title: %3 Pages: 1 -->
<svg width="761pt" height="564pt"
 viewBox="0.00 0.00 761.30 564.22" xmlns="http://www.w3.org/2000/svg" xmlns:xlink="http://www.w3.org/1999/xlink">
<g id="graph0" class="graph" transform="scale(1 1) rotate(0) translate(4 560.22)">
<title>%3</title>
<polygon fill="white" stroke="none" points="-4,4 -4,-560.22 757.296,-560.22 757.296,4 -4,4"/>
<!-- e2 -->
<g id="node1" class="node"><title>e2</title>
<ellipse fill="none" stroke="black" cx="352.296" cy="-456.35" rx="27" ry="18"/>
<text text-anchor="middle" x="352.296" y="-452.65" font-family="Times,serif" font-size="14.00">*</text>
</g>
<!-- t2 -->
<g id="node2" class="node"><title>t2</title>
<ellipse fill="none" stroke="black" cx="643.296" cy="-336.61" rx="27" ry="18"/>
<text text-anchor="middle" x="643.296" y="-332.91" font-family="Times,serif" font-size="14.00">*</text>
</g>
<!-- e2&#45;&gt;t2 -->
<g id="edge3" class="edge"><title>e2&#45;&gt;t2</title>
<path fill="none" stroke="black" d="M370.084,-442.688C377.086,-438.093 385.344,-433.137 393.296,-429.48 483.725,-387.896 518.161,-407.768 607.296,-363.48 611.096,-361.592 614.928,-359.318 618.603,-356.911"/>
<polygon fill="black" stroke="black" points="620.616,-359.775 626.803,-351.174 616.603,-354.039 620.616,-359.775"/>
</g>
<!-- e3 -->
<g id="node3" class="node"><title>e3</title>
<ellipse fill="none" stroke="black" cx="415.296" cy="-336.61" rx="27" ry="18"/>
<text text-anchor="middle" x="415.296" y="-332.91" font-family="Times,serif" font-size="14.00">*</text>
</g>
<!-- e2&#45;&gt;e3 -->
<g id="edge5" class="edge"><title>e2&#45;&gt;e3</title>
<path fill="none" stroke="black" d="M354.726,-438.302C357.491,-422.709 363.023,-399.411 373.296,-381.48 378.044,-373.195 384.688,-365.281 391.294,-358.514"/>
<polygon fill="black" stroke="black" points="394.16,-360.61 398.914,-351.141 389.293,-355.579 394.16,-360.61"/>
</g>
<!-- e4 -->
<g id="node4" class="node"><title>e4</title>
<ellipse fill="none" stroke="black" cx="183.296" cy="-336.61" rx="27" ry="18"/>
<text text-anchor="middle" x="183.296" y="-332.91" font-family="Times,serif" font-size="14.00">*</text>
</g>
<!-- e2&#45;&gt;e4 -->
<g id="edge7" class="edge"><title>e2&#45;&gt;e4</title>
<path fill="none" stroke="black" d="M331.011,-444.695C302.748,-427.67 252.508,-393.222 210.296,-363.48 208.149,-361.967 205.935,-360.398 203.731,-358.815"/>
<polygon fill="black" stroke="black" points="205.574,-355.826 195.444,-352.724 201.429,-361.466 205.574,-355.826"/>
</g>
<!-- e2&#45;&gt;e4 -->
<g id="edge8" class="edge"><title>e2&#45;&gt;e4</title>
<path fill="none" stroke="black" d="M337.75,-441.148C314.229,-423.197 267.755,-391.282 228.296,-363.48 223.54,-360.129 218.454,-356.501 213.416,-353.053"/>
<polygon fill="black" stroke="black" points="215.315,-350.113 205.048,-347.498 211.444,-355.945 215.315,-350.113"/>
</g>
<!-- s12 -->
<g id="node5" class="node"><title>s12</title>
<ellipse fill="none" stroke="black" cx="643.296" cy="-245.87" rx="27" ry="18"/>
<text text-anchor="middle" x="643.296" y="-242.17" font-family="Times,serif" font-size="14.00">&#45;</text>
</g>
<!-- t2&#45;&gt;s12 -->
<g id="edge10" class="edge"><title>t2&#45;&gt;s12</title>
<path fill="none" stroke="black" d="M643.296,-318.5C643.296,-305.978 643.296,-288.727 643.296,-274.292"/>
<polygon fill="black" stroke="black" points="646.797,-273.927 643.296,-263.928 639.797,-273.928 646.797,-273.927"/>
</g>
<!-- t3 -->
<g id="node7" class="node"><title>t3</title>
<ellipse fill="none" stroke="black" cx="415.296" cy="-245.87" rx="27" ry="18"/>
<text text-anchor="middle" x="415.296" y="-242.17" font-family="Times,serif" font-size="14.00">*</text>
</g>
<!-- e3&#45;&gt;t3 -->
<g id="edge13" class="edge"><title>e3&#45;&gt;t3</title>
<path fill="none" stroke="black" d="M415.296,-318.5C415.296,-305.978 415.296,-288.727 415.296,-274.292"/>
<polygon fill="black" stroke="black" points="418.797,-273.927 415.296,-263.928 411.797,-273.928 418.797,-273.927"/>
</g>
<!-- e5 -->
<g id="node6" class="node"><title>e5</title>
<ellipse fill="none" stroke="black" cx="183.296" cy="-245.87" rx="27" ry="18"/>
<text text-anchor="middle" x="183.296" y="-242.17" font-family="Times,serif" font-size="14.00">*</text>
</g>
<!-- e4&#45;&gt;e5 -->
<g id="edge11" class="edge"><title>e4&#45;&gt;e5</title>
<path fill="none" stroke="black" d="M183.296,-318.5C183.296,-305.978 183.296,-288.727 183.296,-274.292"/>
<polygon fill="black" stroke="black" points="186.797,-273.927 183.296,-263.928 179.797,-273.928 186.797,-273.927"/>
</g>
<!-- t4 -->
<g id="node8" class="node"><title>t4</title>
<ellipse fill="none" stroke="black" cx="299.296" cy="-245.87" rx="27" ry="18"/>
<text text-anchor="middle" x="299.296" y="-242.17" font-family="Times,serif" font-size="14.00">*</text>
</g>
<!-- e4&#45;&gt;t4 -->
<g id="edge15" class="edge"><title>e4&#45;&gt;t4</title>
<path fill="none" stroke="black" d="M200.413,-322.516C219.86,-307.639 251.784,-283.217 274.082,-266.159"/>
<polygon fill="black" stroke="black" points="276.294,-268.874 282.11,-260.018 272.041,-263.314 276.294,-268.874"/>
</g>
<!-- s1234 -->
<g id="node11" class="node"><title>s1234</title>
<ellipse fill="none" stroke="black" cx="367.296" cy="-91" rx="27" ry="18"/>
<text text-anchor="middle" x="367.296" y="-87.3" font-family="Times,serif" font-size="14.00">+</text>
</g>
<!-- s12&#45;&gt;s1234 -->
<g id="edge21" class="edge"><title>s12&#45;&gt;s1234</title>
<path fill="none" stroke="red" d="M623.002,-233.629C574.752,-206.905 453.024,-139.483 396.711,-108.292"/>
<polygon fill="red" stroke="red" points="398.065,-105.041 387.621,-103.257 394.673,-111.164 398.065,-105.041"/>
<text text-anchor="middle" x="551.796" y="-167.8" font-family="Times,serif" font-size="14.00">14&#45;cycle</text>
<text text-anchor="middle" x="551.796" y="-152.8" font-family="Times,serif" font-size="14.00">delay</text>
</g>
<!-- t5 -->
<g id="node10" class="node"><title>t5</title>
<ellipse fill="none" stroke="black" cx="183.296" cy="-164" rx="27" ry="18"/>
<text text-anchor="middle" x="183.296" y="-160.3" font-family="Times,serif" font-size="14.00">*</text>
</g>
<!-- e5&#45;&gt;t5 -->
<g id="edge19" class="edge"><title>e5&#45;&gt;t5</title>
<path fill="none" stroke="black" d="M183.296,-227.539C183.296,-217.212 183.296,-203.878 183.296,-192.176"/>
<polygon fill="black" stroke="black" points="186.797,-192.022 183.296,-182.022 179.797,-192.022 186.797,-192.022"/>
</g>
<!-- s34 -->
<g id="node9" class="node"><title>s34</title>
<ellipse fill="none" stroke="black" cx="367.296" cy="-164" rx="27" ry="18"/>
<text text-anchor="middle" x="367.296" y="-160.3" font-family="Times,serif" font-size="14.00">&#45;</text>
</g>
<!-- t3&#45;&gt;s34 -->
<g id="edge17" class="edge"><title>t3&#45;&gt;s34</title>
<path fill="none" stroke="black" d="M405.583,-228.707C398.838,-217.483 389.725,-202.32 382.082,-189.603"/>
<polygon fill="black" stroke="black" points="384.983,-187.635 376.832,-180.866 378.983,-191.24 384.983,-187.635"/>
</g>
<!-- t4&#45;&gt;s34 -->
<g id="edge18" class="edge"><title>t4&#45;&gt;s34</title>
<path fill="none" stroke="black" d="M312.087,-229.847C322.155,-218.022 336.353,-201.344 347.83,-187.864"/>
<polygon fill="black" stroke="black" points="350.746,-189.839 354.564,-179.956 345.416,-185.301 350.746,-189.839"/>
</g>
<!-- s34&#45;&gt;s1234 -->
<g id="edge22" class="edge"><title>s34&#45;&gt;s1234</title>
<path fill="none" stroke="black" d="M367.296,-145.813C367.296,-137.789 367.296,-128.047 367.296,-119.069"/>
<polygon fill="black" stroke="black" points="370.797,-119.029 367.296,-109.029 363.797,-119.029 370.797,-119.029"/>
</g>
<!-- ln -->
<g id="node12" class="node"><title>ln</title>
<ellipse fill="none" stroke="black" cx="283.296" cy="-18" rx="27" ry="18"/>
<text text-anchor="middle" x="283.296" y="-14.3" font-family="Times,serif" font-size="14.00">+</text>
</g>
<!-- t5&#45;&gt;ln -->
<g id="edge24" class="edge"><title>t5&#45;&gt;ln</title>
<path fill="none" stroke="black" d="M194.189,-147.315C211.621,-122.213 245.916,-72.8284 266.503,-43.1831"/>
<polygon fill="black" stroke="black" points="269.589,-44.8754 272.418,-34.6653 263.839,-40.8826 269.589,-44.8754"/>
</g>
<!-- s1234&#45;&gt;ln -->
<g id="edge23" class="edge"><title>s1234&#45;&gt;ln</title>
<path fill="none" stroke="black" d="M351.1,-76.3105C338.666,-65.8007 321.306,-51.1269 307.264,-39.2585"/>
<polygon fill="black" stroke="black" points="309.34,-36.4298 299.443,-32.6475 304.821,-41.7759 309.34,-36.4298"/>
</g>
<!-- one_half -->
<g id="node13" class="node"><title>one_half</title>
<ellipse fill="none" stroke="black" cx="599.296" cy="-456.35" rx="70.922" ry="26.7407"/>
<text text-anchor="middle" x="599.296" y="-460.15" font-family="Times,serif" font-size="14.00">one_half</text>
<text text-anchor="middle" x="599.296" y="-445.15" font-family="Times,serif" font-size="14.00">(32&#39;h3f000000)</text>
</g>
<!-- one_half&#45;&gt;t2 -->
<g id="edge4" class="edge"><title>one_half&#45;&gt;t2</title>
<path fill="none" stroke="black" d="M608.952,-429.512C616.234,-410.028 626.182,-383.407 633.498,-363.83"/>
<polygon fill="black" stroke="black" points="636.833,-364.903 637.055,-354.311 630.276,-362.453 636.833,-364.903"/>
</g>
<!-- one_fifth -->
<g id="node14" class="node"><title>one_fifth</title>
<ellipse fill="none" stroke="black" cx="69.2965" cy="-245.87" rx="69.0935" ry="26.7407"/>
<text text-anchor="middle" x="69.2965" y="-249.67" font-family="Times,serif" font-size="14.00">one_fifth</text>
<text text-anchor="middle" x="69.2965" y="-234.67" font-family="Times,serif" font-size="14.00">(32&#39;h3e4ccccd)</text>
</g>
<!-- one_fifth&#45;&gt;t5 -->
<g id="edge20" class="edge"><title>one_fifth&#45;&gt;t5</title>
<path fill="none" stroke="black" d="M101.964,-221.983C119.285,-209.848 140.295,-195.127 156.622,-183.688"/>
<polygon fill="black" stroke="black" points="158.976,-186.313 165.158,-177.708 154.96,-180.58 158.976,-186.313"/>
</g>
<!-- one_fourth -->
<g id="node15" class="node"><title>one_fourth</title>
<ellipse fill="none" stroke="black" cx="299.296" cy="-336.61" rx="71.3357" ry="26.7407"/>
<text text-anchor="middle" x="299.296" y="-340.41" font-family="Times,serif" font-size="14.00">one_fourth</text>
<text text-anchor="middle" x="299.296" y="-325.41" font-family="Times,serif" font-size="14.00">(32&#39;h3e800000)</text>
</g>
<!-- one_fourth&#45;&gt;t4 -->
<g id="edge16" class="edge"><title>one_fourth&#45;&gt;t4</title>
<path fill="none" stroke="black" d="M299.296,-309.465C299.296,-298.307 299.296,-285.288 299.296,-274.022"/>
<polygon fill="black" stroke="black" points="302.797,-273.875 299.296,-263.875 295.797,-273.875 302.797,-273.875"/>
</g>
<!-- one_third -->
<g id="node16" class="node"><title>one_third</title>
<ellipse fill="none" stroke="black" cx="529.296" cy="-336.61" rx="69.0935" ry="26.7407"/>
<text text-anchor="middle" x="529.296" y="-340.41" font-family="Times,serif" font-size="14.00">one_third</text>
<text text-anchor="middle" x="529.296" y="-325.41" font-family="Times,serif" font-size="14.00">(32&#39;h3eaaaaab)</text>
</g>
<!-- one_third&#45;&gt;t3 -->
<g id="edge14" class="edge"><title>one_third&#45;&gt;t3</title>
<path fill="none" stroke="black" d="M499.344,-312.295C480.976,-297.996 457.729,-279.901 440.342,-266.366"/>
<polygon fill="black" stroke="black" points="442.366,-263.506 432.325,-260.125 438.066,-269.03 442.366,-263.506"/>
</g>
<!-- x -->
<g id="node17" class="node"><title>x</title>
<ellipse fill="none" stroke="black" cx="352.296" cy="-538.22" rx="27" ry="18"/>
<text text-anchor="middle" x="352.296" y="-534.52" font-family="Times,serif" font-size="14.00">x</text>
</g>
<!-- x&#45;&gt;e2 -->
<g id="edge1" class="edge"><title>x&#45;&gt;e2</title>
<path fill="none" stroke="black" d="M346.66,-520.282C345.515,-509.834 345.253,-496.201 345.874,-484.297"/>
<polygon fill="black" stroke="black" points="349.39,-484.236 346.694,-473.99 342.412,-483.682 349.39,-484.236"/>
</g>
<!-- x&#45;&gt;e2 -->
<g id="edge2" class="edge"><title>x&#45;&gt;e2</title>
<path fill="none" stroke="black" d="M357.932,-520.282C359.078,-509.834 359.34,-496.201 358.719,-484.297"/>
<polygon fill="black" stroke="black" points="362.181,-483.682 357.899,-473.99 355.203,-484.236 362.181,-483.682"/>
</g>
<!-- x&#45;&gt;e3 -->
<g id="edge6" class="edge"><title>x&#45;&gt;e3</title>
<path fill="none" stroke="red" d="M364.811,-522.107C372.732,-511.771 382.532,-497.418 388.296,-483.22 404.232,-443.97 410.84,-394.926 413.525,-364.955"/>
<polygon fill="red" stroke="red" points="417.026,-365.079 414.347,-354.829 410.049,-364.513 417.026,-365.079"/>
<text text-anchor="middle" x="427.796" y="-460.15" font-family="Times,serif" font-size="14.00">14&#45;cycle</text>
<text text-anchor="middle" x="427.796" y="-445.15" font-family="Times,serif" font-size="14.00">delay</text>
</g>
<!-- x&#45;&gt;s12 -->
<g id="edge9" class="edge"><title>x&#45;&gt;s12</title>
<path fill="none" stroke="red" d="M379.416,-537.034C450.747,-535.911 640.769,-528.632 679.296,-483.22 729.177,-424.427 699.119,-384.251 679.296,-309.74 675.622,-295.929 668.118,-281.993 660.907,-270.763"/>
<polygon fill="red" stroke="red" points="663.756,-268.728 655.265,-262.391 657.951,-272.64 663.756,-268.728"/>
<text text-anchor="middle" x="729.796" y="-400.28" font-family="Times,serif" font-size="14.00">28&#45;cycle</text>
<text text-anchor="middle" x="729.796" y="-385.28" font-family="Times,serif" font-size="14.00">delay</text>
</g>
<!-- x&#45;&gt;e5 -->
<g id="edge12" class="edge"><title>x&#45;&gt;e5</title>
<path fill="none" stroke="red" d="M330.528,-527.514C285.22,-505.878 182.108,-448.79 147.296,-363.48 138.273,-341.366 141.156,-332.822 147.296,-309.74 150.971,-295.929 158.475,-281.993 165.686,-270.763"/>
<polygon fill="red" stroke="red" points="168.642,-272.64 171.328,-262.391 162.837,-268.728 168.642,-272.64"/>
<text text-anchor="middle" x="198.796" y="-400.28" font-family="Times,serif" font-size="14.00">28&#45;cycle</text>
<text text-anchor="middle" x="198.796" y="-385.28" font-family="Times,serif" font-size="14.00">delay</text>
</g>
</g>
</svg>
