<?xml version="1.0" encoding="UTF-8" standalone="no"?>
<!DOCTYPE svg PUBLIC "-//W3C//DTD SVG 1.1//EN"
 "http://www.w3.org/Graphics/SVG/1.1/DTD/svg11.dtd">
<!-- Generated by graphviz version 2.38.0 (20140413.2041)
 -->
<!-- Title: %3 Pages: 1 -->
<svg width="845pt" height="617pt"
 viewBox="0.00 0.00 844.70 617.44" xmlns="http://www.w3.org/2000/svg" xmlns:xlink="http://www.w3.org/1999/xlink">
<g id="graph0" class="graph" transform="scale(1 1) rotate(0) translate(4 613.441)">
<title>%3</title>
<polygon fill="white" stroke="none" points="-4,4 -4,-613.441 840.705,-613.441 840.705,4 -4,4"/>
<!-- one_half -->
<g id="node1" class="node"><title>one_half</title>
<ellipse fill="none" stroke="black" cx="109.471" cy="-509.571" rx="70.922" ry="26.7407"/>
<text text-anchor="middle" x="109.471" y="-513.371" font-family="Times,serif" font-size="14.00">one_half</text>
<text text-anchor="middle" x="109.471" y="-498.371" font-family="Times,serif" font-size="14.00">(32&#39;h3f000000)</text>
</g>
<!-- t2 -->
<g id="node10" class="node"><title>t2</title>
<ellipse fill="none" stroke="black" cx="78.4707" cy="-389.831" rx="40.1111" ry="26.7407"/>
<text text-anchor="middle" x="78.4707" y="-393.631" font-family="Times,serif" font-size="14.00">*</text>
<text text-anchor="middle" x="78.4707" y="-378.631" font-family="Times,serif" font-size="14.00">(11&#45;22)</text>
</g>
<!-- one_half&#45;&gt;t2 -->
<g id="edge8" class="edge"><title>one_half&#45;&gt;t2</title>
<path fill="none" stroke="black" d="M102.668,-482.732C98.3065,-466.168 92.5874,-444.447 87.8043,-426.28"/>
<polygon fill="black" stroke="black" points="91.1887,-425.388 85.2579,-416.609 84.4194,-427.17 91.1887,-425.388"/>
</g>
<!-- one_third -->
<g id="node2" class="node"><title>one_third</title>
<ellipse fill="none" stroke="black" cx="206.471" cy="-389.831" rx="69.0935" ry="26.7407"/>
<text text-anchor="middle" x="206.471" y="-393.631" font-family="Times,serif" font-size="14.00">one_third</text>
<text text-anchor="middle" x="206.471" y="-378.631" font-family="Times,serif" font-size="14.00">(32&#39;h3eaaaaab)</text>
</g>
<!-- t3 -->
<g id="node15" class="node"><title>t3</title>
<ellipse fill="none" stroke="black" cx="334.471" cy="-299.09" rx="40.1111" ry="26.7407"/>
<text text-anchor="middle" x="334.471" y="-302.89" font-family="Times,serif" font-size="14.00">*</text>
<text text-anchor="middle" x="334.471" y="-287.89" font-family="Times,serif" font-size="14.00">(22&#45;33)</text>
</g>
<!-- one_third&#45;&gt;t3 -->
<g id="edge18" class="edge"><title>one_third&#45;&gt;t3</title>
<path fill="none" stroke="black" d="M239.434,-365.978C257.677,-353.33 280.359,-337.605 298.988,-324.69"/>
<polygon fill="black" stroke="black" points="301.008,-327.548 307.232,-318.974 297.02,-321.796 301.008,-327.548"/>
</g>
<!-- one_fifth -->
<g id="node3" class="node"><title>one_fifth</title>
<ellipse fill="none" stroke="black" cx="722.471" cy="-299.09" rx="69.0935" ry="26.7407"/>
<text text-anchor="middle" x="722.471" y="-302.89" font-family="Times,serif" font-size="14.00">one_fifth</text>
<text text-anchor="middle" x="722.471" y="-287.89" font-family="Times,serif" font-size="14.00">(32&#39;h3e4ccccd)</text>
</g>
<!-- t5 -->
<g id="node18" class="node"><title>t5</title>
<ellipse fill="none" stroke="black" cx="594.471" cy="-208.35" rx="40.1111" ry="26.7407"/>
<text text-anchor="middle" x="594.471" y="-212.15" font-family="Times,serif" font-size="14.00">*</text>
<text text-anchor="middle" x="594.471" y="-197.15" font-family="Times,serif" font-size="14.00">(33&#45;44)</text>
</g>
<!-- one_fifth&#45;&gt;t5 -->
<g id="edge24" class="edge"><title>one_fifth&#45;&gt;t5</title>
<path fill="none" stroke="black" d="M689.507,-275.238C671.265,-262.59 648.583,-246.865 629.953,-233.95"/>
<polygon fill="black" stroke="black" points="631.922,-231.055 621.709,-228.234 627.933,-236.808 631.922,-231.055"/>
</g>
<!-- one_fourth -->
<g id="node4" class="node"><title>one_fourth</title>
<ellipse fill="none" stroke="black" cx="464.471" cy="-389.831" rx="71.3357" ry="26.7407"/>
<text text-anchor="middle" x="464.471" y="-393.631" font-family="Times,serif" font-size="14.00">one_fourth</text>
<text text-anchor="middle" x="464.471" y="-378.631" font-family="Times,serif" font-size="14.00">(32&#39;h3e800000)</text>
</g>
<!-- t4 -->
<g id="node16" class="node"><title>t4</title>
<ellipse fill="none" stroke="black" cx="464.471" cy="-299.09" rx="40.1111" ry="26.7407"/>
<text text-anchor="middle" x="464.471" y="-302.89" font-family="Times,serif" font-size="14.00">*</text>
<text text-anchor="middle" x="464.471" y="-287.89" font-family="Times,serif" font-size="14.00">(22&#45;33)</text>
</g>
<!-- one_fourth&#45;&gt;t4 -->
<g id="edge20" class="edge"><title>one_fourth&#45;&gt;t4</title>
<path fill="none" stroke="black" d="M464.471,-362.686C464.471,-354.381 464.471,-345.045 464.471,-336.169"/>
<polygon fill="black" stroke="black" points="467.971,-336.048 464.471,-326.049 460.971,-336.049 467.971,-336.048"/>
</g>
<!-- one -->
<g id="node5" class="node"><title>one</title>
<ellipse fill="none" stroke="black" cx="563.471" cy="-509.571" rx="70.922" ry="26.7407"/>
<text text-anchor="middle" x="563.471" y="-513.371" font-family="Times,serif" font-size="14.00">one</text>
<text text-anchor="middle" x="563.471" y="-498.371" font-family="Times,serif" font-size="14.00">(32&#39;h3f800000)</text>
</g>
<!-- error -->
<g id="node8" class="node"><title>error</title>
<ellipse fill="none" stroke="black" cx="683.471" cy="-389.831" rx="31.2258" ry="26.7407"/>
<text text-anchor="middle" x="683.471" y="-393.631" font-family="Times,serif" font-size="14.00">gt</text>
<text text-anchor="middle" x="683.471" y="-378.631" font-family="Times,serif" font-size="14.00">(0&#45;0)</text>
</g>
<!-- one&#45;&gt;error -->
<g id="edge4" class="edge"><title>one&#45;&gt;error</title>
<path fill="none" stroke="black" d="M588.335,-484.175C608.145,-464.738 635.844,-437.56 656.248,-417.541"/>
<polygon fill="black" stroke="black" points="658.72,-420.019 663.406,-410.517 653.817,-415.022 658.72,-420.019"/>
</g>
<!-- done -->
<g id="node6" class="node"><title>done</title>
<ellipse fill="none" stroke="black" cx="803.471" cy="-509.571" rx="33.4697" ry="26.7407"/>
<text text-anchor="middle" x="803.471" y="-513.371" font-family="Times,serif" font-size="14.00">direct</text>
<text text-anchor="middle" x="803.471" y="-498.371" font-family="Times,serif" font-size="14.00">(0&#45;0)</text>
</g>
<!-- x_abs -->
<g id="node7" class="node"><title>x_abs</title>
<ellipse fill="none" stroke="black" cx="683.471" cy="-509.571" rx="31.2258" ry="26.7407"/>
<text text-anchor="middle" x="683.471" y="-513.371" font-family="Times,serif" font-size="14.00">abs</text>
<text text-anchor="middle" x="683.471" y="-498.371" font-family="Times,serif" font-size="14.00">(0&#45;0)</text>
</g>
<!-- x_abs&#45;&gt;error -->
<g id="edge3" class="edge"><title>x_abs&#45;&gt;error</title>
<path fill="none" stroke="black" d="M683.471,-482.44C683.471,-466.13 683.471,-444.903 683.471,-426.99"/>
<polygon fill="black" stroke="black" points="686.971,-426.888 683.471,-416.888 679.971,-426.888 686.971,-426.888"/>
</g>
<!-- e2 -->
<g id="node9" class="node"><title>e2</title>
<ellipse fill="none" stroke="black" cx="437.471" cy="-509.571" rx="35.2113" ry="26.7407"/>
<text text-anchor="middle" x="437.471" y="-513.371" font-family="Times,serif" font-size="14.00">*</text>
<text text-anchor="middle" x="437.471" y="-498.371" font-family="Times,serif" font-size="14.00">(0&#45;11)</text>
</g>
<!-- e2&#45;&gt;t2 -->
<g id="edge7" class="edge"><title>e2&#45;&gt;t2</title>
<path fill="none" stroke="black" d="M409.376,-492.937C402.061,-489.253 394.09,-485.568 386.471,-482.701 275.696,-441.012 239.077,-458.833 128.471,-416.701 124.977,-415.37 121.411,-413.859 117.873,-412.252"/>
<polygon fill="black" stroke="black" points="119.169,-408.992 108.639,-407.83 116.146,-415.306 119.169,-408.992"/>
</g>
<!-- e3 -->
<g id="node11" class="node"><title>e3</title>
<ellipse fill="none" stroke="black" cx="334.471" cy="-389.831" rx="40.1111" ry="26.7407"/>
<text text-anchor="middle" x="334.471" y="-393.631" font-family="Times,serif" font-size="14.00">*</text>
<text text-anchor="middle" x="334.471" y="-378.631" font-family="Times,serif" font-size="14.00">(11&#45;22)</text>
</g>
<!-- e2&#45;&gt;e3 -->
<g id="edge9" class="edge"><title>e2&#45;&gt;e3</title>
<path fill="none" stroke="black" d="M423.732,-484.698C414.466,-469.583 401.42,-450.064 387.471,-434.701 381.881,-428.545 375.413,-422.493 368.957,-416.944"/>
<polygon fill="black" stroke="black" points="370.782,-413.91 360.853,-410.214 366.31,-419.295 370.782,-413.91"/>
</g>
<!-- e4 -->
<g id="node12" class="node"><title>e4</title>
<ellipse fill="none" stroke="black" cx="594.471" cy="-389.831" rx="40.1111" ry="26.7407"/>
<text text-anchor="middle" x="594.471" y="-393.631" font-family="Times,serif" font-size="14.00">*</text>
<text text-anchor="middle" x="594.471" y="-378.631" font-family="Times,serif" font-size="14.00">(11&#45;22)</text>
</g>
<!-- e2&#45;&gt;e4 -->
<g id="edge11" class="edge"><title>e2&#45;&gt;e4</title>
<path fill="none" stroke="black" d="M459.218,-488.33C484.638,-467.837 526.778,-436.161 557.355,-414.513"/>
<polygon fill="black" stroke="black" points="559.475,-417.3 565.649,-408.69 555.453,-411.571 559.475,-417.3"/>
</g>
<!-- e2&#45;&gt;e4 -->
<g id="edge12" class="edge"><title>e2&#45;&gt;e4</title>
<path fill="none" stroke="black" d="M464.505,-491.951C492.018,-472.912 534.342,-441.412 563.244,-418.623"/>
<polygon fill="black" stroke="black" points="565.735,-421.113 571.383,-412.149 561.378,-415.635 565.735,-421.113"/>
</g>
<!-- s12 -->
<g id="node13" class="node"><title>s12</title>
<ellipse fill="none" stroke="black" cx="78.4707" cy="-299.09" rx="40.1111" ry="26.7407"/>
<text text-anchor="middle" x="78.4707" y="-302.89" font-family="Times,serif" font-size="14.00">&#45;</text>
<text text-anchor="middle" x="78.4707" y="-287.89" font-family="Times,serif" font-size="14.00">(22&#45;36)</text>
</g>
<!-- t2&#45;&gt;s12 -->
<g id="edge14" class="edge"><title>t2&#45;&gt;s12</title>
<path fill="none" stroke="black" d="M78.4707,-362.686C78.4707,-354.381 78.4707,-345.045 78.4707,-336.169"/>
<polygon fill="black" stroke="black" points="81.9708,-336.048 78.4707,-326.049 74.9708,-336.049 81.9708,-336.048"/>
</g>
<!-- e3&#45;&gt;t3 -->
<g id="edge17" class="edge"><title>e3&#45;&gt;t3</title>
<path fill="none" stroke="black" d="M334.471,-362.686C334.471,-354.381 334.471,-345.045 334.471,-336.169"/>
<polygon fill="black" stroke="black" points="337.971,-336.048 334.471,-326.049 330.971,-336.049 337.971,-336.048"/>
</g>
<!-- e5 -->
<g id="node14" class="node"><title>e5</title>
<ellipse fill="none" stroke="black" cx="594.471" cy="-299.09" rx="40.1111" ry="26.7407"/>
<text text-anchor="middle" x="594.471" y="-302.89" font-family="Times,serif" font-size="14.00">*</text>
<text text-anchor="middle" x="594.471" y="-287.89" font-family="Times,serif" font-size="14.00">(22&#45;33)</text>
</g>
<!-- e4&#45;&gt;e5 -->
<g id="edge15" class="edge"><title>e4&#45;&gt;e5</title>
<path fill="none" stroke="black" d="M594.471,-362.686C594.471,-354.381 594.471,-345.045 594.471,-336.169"/>
<polygon fill="black" stroke="black" points="597.971,-336.048 594.471,-326.049 590.971,-336.049 597.971,-336.048"/>
</g>
<!-- e4&#45;&gt;t4 -->
<g id="edge19" class="edge"><title>e4&#45;&gt;t4</title>
<path fill="none" stroke="black" d="M566.901,-370.011C547.511,-356.775 521.38,-338.938 500.365,-324.592"/>
<polygon fill="black" stroke="black" points="502.233,-321.63 492.001,-318.883 498.287,-327.411 502.233,-321.63"/>
</g>
<!-- s1234 -->
<g id="node19" class="node"><title>s1234</title>
<ellipse fill="none" stroke="black" cx="427.471" cy="-117.61" rx="40.1111" ry="26.7407"/>
<text text-anchor="middle" x="427.471" y="-121.41" font-family="Times,serif" font-size="14.00">+</text>
<text text-anchor="middle" x="427.471" y="-106.41" font-family="Times,serif" font-size="14.00">(47&#45;61)</text>
</g>
<!-- s12&#45;&gt;s1234 -->
<g id="edge25" class="edge"><title>s12&#45;&gt;s1234</title>
<path fill="none" stroke="red" d="M109.749,-282.005C173.157,-249.396 316.775,-175.537 387.119,-139.362"/>
<polygon fill="red" stroke="red" points="388.845,-142.41 396.137,-134.724 385.643,-136.185 388.845,-142.41"/>
<text text-anchor="middle" x="328.971" y="-212.15" font-family="Times,serif" font-size="14.00">11&#45;cycle</text>
<text text-anchor="middle" x="328.971" y="-197.15" font-family="Times,serif" font-size="14.00">delay</text>
</g>
<!-- e5&#45;&gt;t5 -->
<g id="edge23" class="edge"><title>e5&#45;&gt;t5</title>
<path fill="none" stroke="black" d="M594.471,-271.945C594.471,-263.641 594.471,-254.305 594.471,-245.429"/>
<polygon fill="black" stroke="black" points="597.971,-245.308 594.471,-235.308 590.971,-245.308 597.971,-245.308"/>
</g>
<!-- s34 -->
<g id="node17" class="node"><title>s34</title>
<ellipse fill="none" stroke="black" cx="427.471" cy="-208.35" rx="40.1111" ry="26.7407"/>
<text text-anchor="middle" x="427.471" y="-212.15" font-family="Times,serif" font-size="14.00">&#45;</text>
<text text-anchor="middle" x="427.471" y="-197.15" font-family="Times,serif" font-size="14.00">(33&#45;47)</text>
</g>
<!-- t3&#45;&gt;s34 -->
<g id="edge21" class="edge"><title>t3&#45;&gt;s34</title>
<path fill="none" stroke="black" d="M356.983,-276.609C369.116,-265.032 384.25,-250.591 397.381,-238.062"/>
<polygon fill="black" stroke="black" points="400.024,-240.377 404.843,-230.942 395.192,-235.313 400.024,-240.377"/>
</g>
<!-- t4&#45;&gt;s34 -->
<g id="edge22" class="edge"><title>t4&#45;&gt;s34</title>
<path fill="none" stroke="black" d="M453.967,-272.898C450.217,-263.906 445.925,-253.611 441.903,-243.964"/>
<polygon fill="black" stroke="black" points="445.08,-242.488 438.001,-234.605 438.619,-245.182 445.08,-242.488"/>
</g>
<!-- s34&#45;&gt;s1234 -->
<g id="edge26" class="edge"><title>s34&#45;&gt;s1234</title>
<path fill="none" stroke="black" d="M427.471,-181.205C427.471,-172.901 427.471,-163.565 427.471,-154.688"/>
<polygon fill="black" stroke="black" points="430.971,-154.568 427.471,-144.568 423.971,-154.568 430.971,-154.568"/>
</g>
<!-- ln -->
<g id="node20" class="node"><title>ln</title>
<ellipse fill="none" stroke="black" cx="511.471" cy="-26.8701" rx="40.1111" ry="26.7407"/>
<text text-anchor="middle" x="511.471" y="-30.6701" font-family="Times,serif" font-size="14.00">+</text>
<text text-anchor="middle" x="511.471" y="-15.6701" font-family="Times,serif" font-size="14.00">(61&#45;75)</text>
</g>
<!-- t5&#45;&gt;ln -->
<g id="edge28" class="edge"><title>t5&#45;&gt;ln</title>
<path fill="none" stroke="red" d="M582.93,-182.394C568.476,-151.139 543.64,-97.4336 527.388,-62.289"/>
<polygon fill="red" stroke="red" points="530.421,-60.5101 523.047,-52.9027 524.068,-63.4483 530.421,-60.5101"/>
<text text-anchor="middle" x="588.971" y="-121.41" font-family="Times,serif" font-size="14.00">17&#45;cycle</text>
<text text-anchor="middle" x="588.971" y="-106.41" font-family="Times,serif" font-size="14.00">delay</text>
</g>
<!-- s1234&#45;&gt;ln -->
<g id="edge27" class="edge"><title>s1234&#45;&gt;ln</title>
<path fill="none" stroke="black" d="M448.667,-94.2173C459.193,-83.0979 472.05,-69.515 483.384,-57.5419"/>
<polygon fill="black" stroke="black" points="486.239,-59.6168 490.572,-49.9484 481.155,-54.8047 486.239,-59.6168"/>
</g>
<!-- start -->
<g id="node21" class="node"><title>start</title>
<ellipse fill="none" stroke="black" cx="803.471" cy="-591.441" rx="27" ry="18"/>
<text text-anchor="middle" x="803.471" y="-587.741" font-family="Times,serif" font-size="14.00">start</text>
</g>
<!-- start&#45;&gt;done -->
<g id="edge1" class="edge"><title>start&#45;&gt;done</title>
<path fill="none" stroke="black" d="M803.471,-573.11C803.471,-565.376 803.471,-555.957 803.471,-546.799"/>
<polygon fill="black" stroke="black" points="806.971,-546.675 803.471,-536.675 799.971,-546.675 806.971,-546.675"/>
</g>
<!-- x -->
<g id="node22" class="node"><title>x</title>
<ellipse fill="none" stroke="black" cx="437.471" cy="-591.441" rx="27" ry="18"/>
<text text-anchor="middle" x="437.471" y="-587.741" font-family="Times,serif" font-size="14.00">x</text>
</g>
<!-- x&#45;&gt;x_abs -->
<g id="edge2" class="edge"><title>x&#45;&gt;x_abs</title>
<path fill="none" stroke="black" d="M463.395,-586.374C503.326,-579.514 581.73,-563.66 643.471,-536.441 646.096,-535.283 648.744,-533.965 651.36,-532.55"/>
<polygon fill="black" stroke="black" points="653.193,-535.533 660.056,-527.462 649.658,-529.491 653.193,-535.533"/>
</g>
<!-- x&#45;&gt;e2 -->
<g id="edge5" class="edge"><title>x&#45;&gt;e2</title>
<path fill="none" stroke="black" d="M431.835,-573.502C430.964,-565.566 430.604,-555.792 430.754,-546.333"/>
<polygon fill="black" stroke="black" points="434.253,-546.415 431.116,-536.295 427.257,-546.163 434.253,-546.415"/>
</g>
<!-- x&#45;&gt;e2 -->
<g id="edge6" class="edge"><title>x&#45;&gt;e2</title>
<path fill="none" stroke="black" d="M443.107,-573.502C443.977,-565.566 444.337,-555.792 444.188,-546.333"/>
<polygon fill="black" stroke="black" points="447.684,-546.163 443.826,-536.295 440.689,-546.415 447.684,-546.163"/>
</g>
<!-- x&#45;&gt;e3 -->
<g id="edge10" class="edge"><title>x&#45;&gt;e3</title>
<path fill="none" stroke="red" d="M413.202,-583.132C391.741,-575.288 361.565,-560.585 346.471,-536.441 325.933,-503.591 325.63,-458.108 328.728,-426.76"/>
<polygon fill="red" stroke="red" points="332.218,-427.043 329.884,-416.709 325.264,-426.243 332.218,-427.043"/>
<text text-anchor="middle" x="369.971" y="-513.371" font-family="Times,serif" font-size="14.00">11&#45;cycle</text>
<text text-anchor="middle" x="369.971" y="-498.371" font-family="Times,serif" font-size="14.00">delay</text>
</g>
<!-- x&#45;&gt;s12 -->
<g id="edge13" class="edge"><title>x&#45;&gt;s12</title>
<path fill="none" stroke="red" d="M410.468,-588.897C323.471,-583.652 54.6945,-565.223 29.4707,-536.441 -21.3465,-478.455 4.41165,-435.877 29.4707,-362.96 33.6521,-350.793 41.2588,-339.172 49.2515,-329.304"/>
<polygon fill="red" stroke="red" points="52.1319,-331.322 55.9894,-321.455 46.8203,-326.763 52.1319,-331.322"/>
<text text-anchor="middle" x="28.9707" y="-453.501" font-family="Times,serif" font-size="14.00">22&#45;cycle</text>
<text text-anchor="middle" x="28.9707" y="-438.501" font-family="Times,serif" font-size="14.00">delay</text>
</g>
<!-- x&#45;&gt;e5 -->
<g id="edge16" class="edge"><title>x&#45;&gt;e5</title>
<path fill="none" stroke="red" d="M464.482,-589.553C529.29,-586.799 690.661,-576.025 723.471,-536.441 772.673,-477.079 764.843,-428.023 723.471,-362.96 702.666,-330.244 679.251,-343.094 644.471,-325.96 641.306,-324.401 638.04,-322.768 634.764,-321.112"/>
<polygon fill="red" stroke="red" points="636.079,-317.853 625.58,-316.427 632.898,-324.089 636.079,-317.853"/>
<text text-anchor="middle" x="781.971" y="-453.501" font-family="Times,serif" font-size="14.00">22&#45;cycle</text>
<text text-anchor="middle" x="781.971" y="-438.501" font-family="Times,serif" font-size="14.00">delay</text>
</g>
</g>
</svg>
