<?xml version="1.0" encoding="UTF-8" standalone="no"?>
<!DOCTYPE svg PUBLIC "-//W3C//DTD SVG 1.1//EN"
 "http://www.w3.org/Graphics/SVG/1.1/DTD/svg11.dtd">
<!-- Generated by graphviz version 2.38.0 (20140413.2041)
 -->
<!-- Title: %3 Pages: 1 -->
<svg width="814pt" height="617pt"
 viewBox="0.00 0.00 814.02 617.44" xmlns="http://www.w3.org/2000/svg" xmlns:xlink="http://www.w3.org/1999/xlink">
<g id="graph0" class="graph" transform="scale(1 1) rotate(0) translate(4 613.441)">
<title>%3</title>
<polygon fill="white" stroke="none" points="-4,4 -4,-613.441 810.021,-613.441 810.021,4 -4,4"/>
<!-- one_half -->
<g id="node1" class="node"><title>one_half</title>
<ellipse fill="none" stroke="black" cx="108.787" cy="-509.571" rx="70.922" ry="26.7407"/>
<text text-anchor="middle" x="108.787" y="-513.371" font-family="Times,serif" font-size="14.00">one_half</text>
<text text-anchor="middle" x="108.787" y="-498.371" font-family="Times,serif" font-size="14.00">(32&#39;h3f000000)</text>
</g>
<!-- t2 -->
<g id="node10" class="node"><title>t2</title>
<ellipse fill="none" stroke="black" cx="72.7867" cy="-389.831" rx="35.2113" ry="26.7407"/>
<text text-anchor="middle" x="72.7867" y="-393.631" font-family="Times,serif" font-size="14.00">*</text>
<text text-anchor="middle" x="72.7867" y="-378.631" font-family="Times,serif" font-size="14.00">(5&#45;10)</text>
</g>
<!-- one_half&#45;&gt;t2 -->
<g id="edge8" class="edge"><title>one_half&#45;&gt;t2</title>
<path fill="none" stroke="black" d="M100.886,-482.732C95.787,-466.054 89.0886,-444.147 83.511,-425.905"/>
<polygon fill="black" stroke="black" points="86.8159,-424.744 80.5448,-416.204 80.1218,-426.79 86.8159,-424.744"/>
</g>
<!-- one_third -->
<g id="node2" class="node"><title>one_third</title>
<ellipse fill="none" stroke="black" cx="195.787" cy="-389.831" rx="69.0935" ry="26.7407"/>
<text text-anchor="middle" x="195.787" y="-393.631" font-family="Times,serif" font-size="14.00">one_third</text>
<text text-anchor="middle" x="195.787" y="-378.631" font-family="Times,serif" font-size="14.00">(32&#39;h3eaaaaab)</text>
</g>
<!-- t3 -->
<g id="node15" class="node"><title>t3</title>
<ellipse fill="none" stroke="black" cx="318.787" cy="-299.09" rx="40.1111" ry="26.7407"/>
<text text-anchor="middle" x="318.787" y="-302.89" font-family="Times,serif" font-size="14.00">*</text>
<text text-anchor="middle" x="318.787" y="-287.89" font-family="Times,serif" font-size="14.00">(10&#45;15)</text>
</g>
<!-- one_third&#45;&gt;t3 -->
<g id="edge18" class="edge"><title>one_third&#45;&gt;t3</title>
<path fill="none" stroke="black" d="M227.782,-365.747C244.91,-353.39 266.039,-338.146 283.625,-325.458"/>
<polygon fill="black" stroke="black" points="285.879,-328.148 291.941,-319.459 281.784,-322.471 285.879,-328.148"/>
</g>
<!-- one_fifth -->
<g id="node3" class="node"><title>one_fifth</title>
<ellipse fill="none" stroke="black" cx="696.787" cy="-299.09" rx="69.0935" ry="26.7407"/>
<text text-anchor="middle" x="696.787" y="-302.89" font-family="Times,serif" font-size="14.00">one_fifth</text>
<text text-anchor="middle" x="696.787" y="-287.89" font-family="Times,serif" font-size="14.00">(32&#39;h3e4ccccd)</text>
</g>
<!-- t5 -->
<g id="node18" class="node"><title>t5</title>
<ellipse fill="none" stroke="black" cx="568.787" cy="-208.35" rx="40.1111" ry="26.7407"/>
<text text-anchor="middle" x="568.787" y="-212.15" font-family="Times,serif" font-size="14.00">*</text>
<text text-anchor="middle" x="568.787" y="-197.15" font-family="Times,serif" font-size="14.00">(15&#45;20)</text>
</g>
<!-- one_fifth&#45;&gt;t5 -->
<g id="edge24" class="edge"><title>one_fifth&#45;&gt;t5</title>
<path fill="none" stroke="black" d="M663.824,-275.238C645.581,-262.59 622.899,-246.865 604.269,-233.95"/>
<polygon fill="black" stroke="black" points="606.238,-231.055 596.025,-228.234 602.249,-236.808 606.238,-231.055"/>
</g>
<!-- one_fourth -->
<g id="node4" class="node"><title>one_fourth</title>
<ellipse fill="none" stroke="black" cx="443.787" cy="-389.831" rx="71.3357" ry="26.7407"/>
<text text-anchor="middle" x="443.787" y="-393.631" font-family="Times,serif" font-size="14.00">one_fourth</text>
<text text-anchor="middle" x="443.787" y="-378.631" font-family="Times,serif" font-size="14.00">(32&#39;h3e800000)</text>
</g>
<!-- t4 -->
<g id="node16" class="node"><title>t4</title>
<ellipse fill="none" stroke="black" cx="443.787" cy="-299.09" rx="40.1111" ry="26.7407"/>
<text text-anchor="middle" x="443.787" y="-302.89" font-family="Times,serif" font-size="14.00">*</text>
<text text-anchor="middle" x="443.787" y="-287.89" font-family="Times,serif" font-size="14.00">(10&#45;15)</text>
</g>
<!-- one_fourth&#45;&gt;t4 -->
<g id="edge20" class="edge"><title>one_fourth&#45;&gt;t4</title>
<path fill="none" stroke="black" d="M443.787,-362.686C443.787,-354.381 443.787,-345.045 443.787,-336.169"/>
<polygon fill="black" stroke="black" points="447.287,-336.048 443.787,-326.049 440.287,-336.049 447.287,-336.048"/>
</g>
<!-- one -->
<g id="node5" class="node"><title>one</title>
<ellipse fill="none" stroke="black" cx="532.787" cy="-509.571" rx="70.922" ry="26.7407"/>
<text text-anchor="middle" x="532.787" y="-513.371" font-family="Times,serif" font-size="14.00">one</text>
<text text-anchor="middle" x="532.787" y="-498.371" font-family="Times,serif" font-size="14.00">(32&#39;h3f800000)</text>
</g>
<!-- error -->
<g id="node8" class="node"><title>error</title>
<ellipse fill="none" stroke="black" cx="652.787" cy="-389.831" rx="31.2258" ry="26.7407"/>
<text text-anchor="middle" x="652.787" y="-393.631" font-family="Times,serif" font-size="14.00">gt</text>
<text text-anchor="middle" x="652.787" y="-378.631" font-family="Times,serif" font-size="14.00">(0&#45;0)</text>
</g>
<!-- one&#45;&gt;error -->
<g id="edge4" class="edge"><title>one&#45;&gt;error</title>
<path fill="none" stroke="black" d="M557.651,-484.175C577.461,-464.738 605.16,-437.56 625.564,-417.541"/>
<polygon fill="black" stroke="black" points="628.036,-420.019 632.723,-410.517 623.133,-415.022 628.036,-420.019"/>
</g>
<!-- done -->
<g id="node6" class="node"><title>done</title>
<ellipse fill="none" stroke="black" cx="772.787" cy="-509.571" rx="33.4697" ry="26.7407"/>
<text text-anchor="middle" x="772.787" y="-513.371" font-family="Times,serif" font-size="14.00">direct</text>
<text text-anchor="middle" x="772.787" y="-498.371" font-family="Times,serif" font-size="14.00">(0&#45;0)</text>
</g>
<!-- x_abs -->
<g id="node7" class="node"><title>x_abs</title>
<ellipse fill="none" stroke="black" cx="652.787" cy="-509.571" rx="31.2258" ry="26.7407"/>
<text text-anchor="middle" x="652.787" y="-513.371" font-family="Times,serif" font-size="14.00">abs</text>
<text text-anchor="middle" x="652.787" y="-498.371" font-family="Times,serif" font-size="14.00">(0&#45;0)</text>
</g>
<!-- x_abs&#45;&gt;error -->
<g id="edge3" class="edge"><title>x_abs&#45;&gt;error</title>
<path fill="none" stroke="black" d="M652.787,-482.44C652.787,-466.13 652.787,-444.903 652.787,-426.99"/>
<polygon fill="black" stroke="black" points="656.287,-426.888 652.787,-416.888 649.287,-426.888 656.287,-426.888"/>
</g>
<!-- e2 -->
<g id="node9" class="node"><title>e2</title>
<ellipse fill="none" stroke="black" cx="410.787" cy="-509.571" rx="31.2258" ry="26.7407"/>
<text text-anchor="middle" x="410.787" y="-513.371" font-family="Times,serif" font-size="14.00">*</text>
<text text-anchor="middle" x="410.787" y="-498.371" font-family="Times,serif" font-size="14.00">(0&#45;5)</text>
</g>
<!-- e2&#45;&gt;t2 -->
<g id="edge7" class="edge"><title>e2&#45;&gt;t2</title>
<path fill="none" stroke="black" d="M385.476,-493.185C378.6,-489.411 371.045,-485.622 363.787,-482.701 258.773,-440.434 222.403,-459.94 117.787,-416.701 114.609,-415.387 111.379,-413.891 108.182,-412.295"/>
<polygon fill="black" stroke="black" points="109.81,-409.196 99.3356,-407.603 106.53,-415.38 109.81,-409.196"/>
</g>
<!-- e3 -->
<g id="node11" class="node"><title>e3</title>
<ellipse fill="none" stroke="black" cx="318.787" cy="-389.831" rx="35.2113" ry="26.7407"/>
<text text-anchor="middle" x="318.787" y="-393.631" font-family="Times,serif" font-size="14.00">*</text>
<text text-anchor="middle" x="318.787" y="-378.631" font-family="Times,serif" font-size="14.00">(5&#45;10)</text>
</g>
<!-- e2&#45;&gt;e3 -->
<g id="edge9" class="edge"><title>e2&#45;&gt;e3</title>
<path fill="none" stroke="black" d="M399.601,-484.332C392.034,-469.255 381.182,-449.91 368.787,-434.701 363.554,-428.28 357.33,-422.014 351.079,-416.32"/>
<polygon fill="black" stroke="black" points="353.051,-413.395 343.221,-409.444 348.442,-418.663 353.051,-413.395"/>
</g>
<!-- e4 -->
<g id="node12" class="node"><title>e4</title>
<ellipse fill="none" stroke="black" cx="568.787" cy="-389.831" rx="35.2113" ry="26.7407"/>
<text text-anchor="middle" x="568.787" y="-393.631" font-family="Times,serif" font-size="14.00">*</text>
<text text-anchor="middle" x="568.787" y="-378.631" font-family="Times,serif" font-size="14.00">(5&#45;10)</text>
</g>
<!-- e2&#45;&gt;e4 -->
<g id="edge11" class="edge"><title>e2&#45;&gt;e4</title>
<path fill="none" stroke="black" d="M431.383,-489.392C457.315,-468.545 501.872,-435.269 533.288,-413.235"/>
<polygon fill="black" stroke="black" points="535.559,-415.919 541.774,-407.338 531.565,-410.171 535.559,-415.919"/>
</g>
<!-- e2&#45;&gt;e4 -->
<g id="edge12" class="edge"><title>e2&#45;&gt;e4</title>
<path fill="none" stroke="black" d="M435.821,-493.419C463.891,-474.23 509.041,-440.845 538.904,-417.383"/>
<polygon fill="black" stroke="black" points="541.233,-420.004 546.895,-411.049 536.884,-414.518 541.233,-420.004"/>
</g>
<!-- s12 -->
<g id="node13" class="node"><title>s12</title>
<ellipse fill="none" stroke="black" cx="72.7867" cy="-299.09" rx="40.1111" ry="26.7407"/>
<text text-anchor="middle" x="72.7867" y="-302.89" font-family="Times,serif" font-size="14.00">&#45;</text>
<text text-anchor="middle" x="72.7867" y="-287.89" font-family="Times,serif" font-size="14.00">(10&#45;17)</text>
</g>
<!-- t2&#45;&gt;s12 -->
<g id="edge14" class="edge"><title>t2&#45;&gt;s12</title>
<path fill="none" stroke="black" d="M72.7867,-362.686C72.7867,-354.381 72.7867,-345.045 72.7867,-336.169"/>
<polygon fill="black" stroke="black" points="76.2868,-336.048 72.7867,-326.049 69.2868,-336.049 76.2868,-336.048"/>
</g>
<!-- e3&#45;&gt;t3 -->
<g id="edge17" class="edge"><title>e3&#45;&gt;t3</title>
<path fill="none" stroke="black" d="M318.787,-362.686C318.787,-354.381 318.787,-345.045 318.787,-336.169"/>
<polygon fill="black" stroke="black" points="322.287,-336.048 318.787,-326.049 315.287,-336.049 322.287,-336.048"/>
</g>
<!-- e5 -->
<g id="node14" class="node"><title>e5</title>
<ellipse fill="none" stroke="black" cx="568.787" cy="-299.09" rx="40.1111" ry="26.7407"/>
<text text-anchor="middle" x="568.787" y="-302.89" font-family="Times,serif" font-size="14.00">*</text>
<text text-anchor="middle" x="568.787" y="-287.89" font-family="Times,serif" font-size="14.00">(10&#45;15)</text>
</g>
<!-- e4&#45;&gt;e5 -->
<g id="edge15" class="edge"><title>e4&#45;&gt;e5</title>
<path fill="none" stroke="black" d="M568.787,-362.686C568.787,-354.381 568.787,-345.045 568.787,-336.169"/>
<polygon fill="black" stroke="black" points="572.287,-336.048 568.787,-326.049 565.287,-336.049 572.287,-336.048"/>
</g>
<!-- e4&#45;&gt;t4 -->
<g id="edge19" class="edge"><title>e4&#45;&gt;t4</title>
<path fill="none" stroke="black" d="M543.491,-370.873C524.932,-357.697 499.491,-339.636 478.954,-325.056"/>
<polygon fill="black" stroke="black" points="480.955,-322.185 470.775,-319.25 476.903,-327.893 480.955,-322.185"/>
</g>
<!-- s1234 -->
<g id="node19" class="node"><title>s1234</title>
<ellipse fill="none" stroke="black" cx="386.787" cy="-117.61" rx="40.1111" ry="26.7407"/>
<text text-anchor="middle" x="386.787" y="-121.41" font-family="Times,serif" font-size="14.00">+</text>
<text text-anchor="middle" x="386.787" y="-106.41" font-family="Times,serif" font-size="14.00">(22&#45;29)</text>
</g>
<!-- s12&#45;&gt;s1234 -->
<g id="edge25" class="edge"><title>s12&#45;&gt;s1234</title>
<path fill="none" stroke="red" d="M102.894,-280.881C160.099,-248.183 284.435,-177.114 347.868,-140.856"/>
<polygon fill="red" stroke="red" points="349.825,-143.769 356.77,-135.767 346.351,-137.691 349.825,-143.769"/>
<text text-anchor="middle" x="296.787" y="-212.15" font-family="Times,serif" font-size="14.00">5&#45;cycle</text>
<text text-anchor="middle" x="296.787" y="-197.15" font-family="Times,serif" font-size="14.00">delay</text>
</g>
<!-- e5&#45;&gt;t5 -->
<g id="edge23" class="edge"><title>e5&#45;&gt;t5</title>
<path fill="none" stroke="black" d="M568.787,-271.945C568.787,-263.641 568.787,-254.305 568.787,-245.429"/>
<polygon fill="black" stroke="black" points="572.287,-245.308 568.787,-235.308 565.287,-245.308 572.287,-245.308"/>
</g>
<!-- s34 -->
<g id="node17" class="node"><title>s34</title>
<ellipse fill="none" stroke="black" cx="386.787" cy="-208.35" rx="40.1111" ry="26.7407"/>
<text text-anchor="middle" x="386.787" y="-212.15" font-family="Times,serif" font-size="14.00">&#45;</text>
<text text-anchor="middle" x="386.787" y="-197.15" font-family="Times,serif" font-size="14.00">(15&#45;22)</text>
</g>
<!-- t3&#45;&gt;s34 -->
<g id="edge21" class="edge"><title>t3&#45;&gt;s34</title>
<path fill="none" stroke="black" d="M336.653,-274.775C344.696,-264.279 354.306,-251.737 362.952,-240.455"/>
<polygon fill="black" stroke="black" points="365.736,-242.576 369.04,-232.51 360.179,-238.319 365.736,-242.576"/>
</g>
<!-- t4&#45;&gt;s34 -->
<g id="edge22" class="edge"><title>t4&#45;&gt;s34</title>
<path fill="none" stroke="black" d="M428.211,-273.842C421.876,-263.979 414.46,-252.434 407.668,-241.859"/>
<polygon fill="black" stroke="black" points="410.495,-239.785 402.146,-233.262 404.606,-243.568 410.495,-239.785"/>
</g>
<!-- s34&#45;&gt;s1234 -->
<g id="edge26" class="edge"><title>s34&#45;&gt;s1234</title>
<path fill="none" stroke="black" d="M386.787,-181.205C386.787,-172.901 386.787,-163.565 386.787,-154.688"/>
<polygon fill="black" stroke="black" points="390.287,-154.568 386.787,-144.568 383.287,-154.568 390.287,-154.568"/>
</g>
<!-- ln -->
<g id="node20" class="node"><title>ln</title>
<ellipse fill="none" stroke="black" cx="476.787" cy="-26.8701" rx="40.1111" ry="26.7407"/>
<text text-anchor="middle" x="476.787" y="-30.6701" font-family="Times,serif" font-size="14.00">+</text>
<text text-anchor="middle" x="476.787" y="-15.6701" font-family="Times,serif" font-size="14.00">(29&#45;36)</text>
</g>
<!-- t5&#45;&gt;ln -->
<g id="edge28" class="edge"><title>t5&#45;&gt;ln</title>
<path fill="none" stroke="red" d="M556.187,-182.771C540.06,-151.308 512.048,-96.6611 493.973,-61.3987"/>
<polygon fill="red" stroke="red" points="497.057,-59.7426 489.381,-52.4402 490.828,-62.9357 497.057,-59.7426"/>
<text text-anchor="middle" x="556.787" y="-121.41" font-family="Times,serif" font-size="14.00">9&#45;cycle</text>
<text text-anchor="middle" x="556.787" y="-106.41" font-family="Times,serif" font-size="14.00">delay</text>
</g>
<!-- s1234&#45;&gt;ln -->
<g id="edge27" class="edge"><title>s1234&#45;&gt;ln</title>
<path fill="none" stroke="black" d="M409.034,-94.6744C420.696,-83.176 435.124,-68.9497 447.665,-56.5843"/>
<polygon fill="black" stroke="black" points="450.132,-59.0668 454.795,-49.5535 445.217,-54.0823 450.132,-59.0668"/>
</g>
<!-- start -->
<g id="node21" class="node"><title>start</title>
<ellipse fill="none" stroke="black" cx="772.787" cy="-591.441" rx="27" ry="18"/>
<text text-anchor="middle" x="772.787" y="-587.741" font-family="Times,serif" font-size="14.00">start</text>
</g>
<!-- start&#45;&gt;done -->
<g id="edge1" class="edge"><title>start&#45;&gt;done</title>
<path fill="none" stroke="black" d="M772.787,-573.11C772.787,-565.376 772.787,-555.957 772.787,-546.799"/>
<polygon fill="black" stroke="black" points="776.287,-546.675 772.787,-536.675 769.287,-546.675 776.287,-546.675"/>
</g>
<!-- x -->
<g id="node22" class="node"><title>x</title>
<ellipse fill="none" stroke="black" cx="410.787" cy="-591.441" rx="27" ry="18"/>
<text text-anchor="middle" x="410.787" y="-587.741" font-family="Times,serif" font-size="14.00">x</text>
</g>
<!-- x&#45;&gt;x_abs -->
<g id="edge2" class="edge"><title>x&#45;&gt;x_abs</title>
<path fill="none" stroke="black" d="M436.851,-586.173C476.198,-579.139 552.564,-563.165 612.787,-536.441 615.409,-535.277 618.055,-533.954 620.67,-532.536"/>
<polygon fill="black" stroke="black" points="622.505,-535.517 629.363,-527.441 618.966,-529.477 622.505,-535.517"/>
</g>
<!-- x&#45;&gt;e2 -->
<g id="edge5" class="edge"><title>x&#45;&gt;e2</title>
<path fill="none" stroke="black" d="M405.151,-573.502C404.273,-565.499 403.914,-555.626 404.073,-546.093"/>
<polygon fill="black" stroke="black" points="407.575,-546.109 404.45,-535.986 400.58,-545.849 407.575,-546.109"/>
</g>
<!-- x&#45;&gt;e2 -->
<g id="edge6" class="edge"><title>x&#45;&gt;e2</title>
<path fill="none" stroke="black" d="M416.423,-573.502C417.3,-565.499 417.659,-555.626 417.5,-546.093"/>
<polygon fill="black" stroke="black" points="420.993,-545.849 417.123,-535.986 413.998,-546.109 420.993,-545.849"/>
</g>
<!-- x&#45;&gt;e3 -->
<g id="edge10" class="edge"><title>x&#45;&gt;e3</title>
<path fill="none" stroke="red" d="M387.904,-581.66C369.106,-573.141 343.57,-558.277 330.787,-536.441 311.271,-503.106 310.728,-457.904 313.49,-426.75"/>
<polygon fill="red" stroke="red" points="316.976,-427.07 314.531,-416.761 310.013,-426.344 316.976,-427.07"/>
<text text-anchor="middle" x="350.787" y="-513.371" font-family="Times,serif" font-size="14.00">5&#45;cycle</text>
<text text-anchor="middle" x="350.787" y="-498.371" font-family="Times,serif" font-size="14.00">delay</text>
</g>
<!-- x&#45;&gt;s12 -->
<g id="edge13" class="edge"><title>x&#45;&gt;s12</title>
<path fill="none" stroke="red" d="M383.539,-590.97C304.04,-591.875 75.0692,-589.726 28.7867,-536.441 -21.7736,-478.23 5.61024,-436.497 28.7867,-362.96 32.4106,-351.462 38.9704,-340.237 45.9376,-330.529"/>
<polygon fill="red" stroke="red" points="48.8369,-332.498 52.1017,-322.419 43.264,-328.262 48.8369,-332.498"/>
<text text-anchor="middle" x="29.2867" y="-453.501" font-family="Times,serif" font-size="14.00">10&#45;cycle</text>
<text text-anchor="middle" x="29.2867" y="-438.501" font-family="Times,serif" font-size="14.00">delay</text>
</g>
<!-- x&#45;&gt;e5 -->
<g id="edge16" class="edge"><title>x&#45;&gt;e5</title>
<path fill="none" stroke="red" d="M437.898,-589.47C502.117,-586.543 660.55,-575.437 692.787,-536.441 741.913,-477.015 733.322,-428.548 692.787,-362.96 673.455,-331.681 651.561,-342.632 618.787,-325.96 615.642,-324.361 612.391,-322.698 609.125,-321.022"/>
<polygon fill="red" stroke="red" points="610.452,-317.769 599.959,-316.303 607.248,-323.992 610.452,-317.769"/>
<text text-anchor="middle" x="750.287" y="-453.501" font-family="Times,serif" font-size="14.00">10&#45;cycle</text>
<text text-anchor="middle" x="750.287" y="-438.501" font-family="Times,serif" font-size="14.00">delay</text>
</g>
</g>
</svg>
