<?xml version="1.0" encoding="UTF-8" standalone="no"?>
<!DOCTYPE svg PUBLIC "-//W3C//DTD SVG 1.1//EN"
 "http://www.w3.org/Graphics/SVG/1.1/DTD/svg11.dtd">
<!-- Generated by graphviz version 2.38.0 (20140413.2041)
 -->
<!-- Title: %3 Pages: 1 -->
<svg width="983pt" height="719pt"
 viewBox="0.00 0.00 982.85 719.44" xmlns="http://www.w3.org/2000/svg" xmlns:xlink="http://www.w3.org/1999/xlink">
<g id="graph0" class="graph" transform="scale(1 1) rotate(0) translate(4 715.441)">
<title>%3</title>
<polygon fill="white" stroke="none" points="-4,4 -4,-715.441 978.848,-715.441 978.848,4 -4,4"/>
<!-- ONE_HALF -->
<g id="node1" class="node"><title>ONE_HALF</title>
<ellipse fill="none" stroke="black" cx="99.8482" cy="-611.571" rx="64.1938" ry="26.7407"/>
<text text-anchor="middle" x="99.8482" y="-615.371" font-family="Times,serif" font-size="14.00">`ONE_HALF</text>
<text text-anchor="middle" x="99.8482" y="-600.371" font-family="Times,serif" font-size="14.00">32&#39;h3f000000</text>
</g>
<!-- t2 -->
<g id="node13" class="node"><title>t2</title>
<ellipse fill="none" stroke="black" cx="70.8482" cy="-491.831" rx="35.2113" ry="26.7407"/>
<text text-anchor="middle" x="70.8482" y="-495.631" font-family="Times,serif" font-size="14.00">*</text>
<text text-anchor="middle" x="70.8482" y="-480.631" font-family="Times,serif" font-size="14.00">(5&#45;10)</text>
</g>
<!-- ONE_HALF&#45;&gt;t2 -->
<g id="edge8" class="edge"><title>ONE_HALF&#45;&gt;t2</title>
<path fill="none" stroke="black" d="M93.484,-584.732C89.4232,-568.245 84.1037,-546.648 79.6419,-528.533"/>
<polygon fill="black" stroke="black" points="82.9876,-527.482 77.1975,-518.609 76.1907,-529.156 82.9876,-527.482"/>
</g>
<!-- ONE_THIRD -->
<g id="node2" class="node"><title>ONE_THIRD</title>
<ellipse fill="none" stroke="black" cx="192.848" cy="-491.831" rx="68.6788" ry="26.7407"/>
<text text-anchor="middle" x="192.848" y="-495.631" font-family="Times,serif" font-size="14.00">`ONE_THIRD</text>
<text text-anchor="middle" x="192.848" y="-480.631" font-family="Times,serif" font-size="14.00">32&#39;h3eaaaaab</text>
</g>
<!-- t3 -->
<g id="node18" class="node"><title>t3</title>
<ellipse fill="none" stroke="black" cx="314.848" cy="-372.09" rx="40.1111" ry="26.7407"/>
<text text-anchor="middle" x="314.848" y="-375.89" font-family="Times,serif" font-size="14.00">*</text>
<text text-anchor="middle" x="314.848" y="-360.89" font-family="Times,serif" font-size="14.00">(10&#45;15)</text>
</g>
<!-- ONE_THIRD&#45;&gt;t3 -->
<g id="edge18" class="edge"><title>ONE_THIRD&#45;&gt;t3</title>
<path fill="none" stroke="black" d="M217.831,-466.72C237.327,-447.905 264.469,-421.711 285.089,-401.811"/>
<polygon fill="black" stroke="black" points="287.599,-404.253 292.364,-394.79 282.738,-399.216 287.599,-404.253"/>
</g>
<!-- ONE_FOURTH -->
<g id="node3" class="node"><title>ONE_FOURTH</title>
<ellipse fill="none" stroke="black" cx="445.848" cy="-491.831" rx="77.5641" ry="26.7407"/>
<text text-anchor="middle" x="445.848" y="-495.631" font-family="Times,serif" font-size="14.00">`ONE_FOURTH</text>
<text text-anchor="middle" x="445.848" y="-480.631" font-family="Times,serif" font-size="14.00">32&#39;h3e800000</text>
</g>
<!-- t4 -->
<g id="node19" class="node"><title>t4</title>
<ellipse fill="none" stroke="black" cx="445.848" cy="-372.09" rx="40.1111" ry="26.7407"/>
<text text-anchor="middle" x="445.848" y="-375.89" font-family="Times,serif" font-size="14.00">*</text>
<text text-anchor="middle" x="445.848" y="-360.89" font-family="Times,serif" font-size="14.00">(10&#45;15)</text>
</g>
<!-- ONE_FOURTH&#45;&gt;t4 -->
<g id="edge20" class="edge"><title>ONE_FOURTH&#45;&gt;t4</title>
<path fill="none" stroke="black" d="M445.848,-464.7C445.848,-448.39 445.848,-427.163 445.848,-409.25"/>
<polygon fill="black" stroke="black" points="449.348,-409.148 445.848,-399.148 442.348,-409.148 449.348,-409.148"/>
</g>
<!-- ONE_FIFTH -->
<g id="node4" class="node"><title>ONE_FIFTH</title>
<ellipse fill="none" stroke="black" cx="700.848" cy="-372.09" rx="65.5227" ry="26.7407"/>
<text text-anchor="middle" x="700.848" y="-375.89" font-family="Times,serif" font-size="14.00">`ONE_FIFTH</text>
<text text-anchor="middle" x="700.848" y="-360.89" font-family="Times,serif" font-size="14.00">32&#39;h3e4ccccd</text>
</g>
<!-- t5 -->
<g id="node21" class="node"><title>t5</title>
<ellipse fill="none" stroke="black" cx="576.848" cy="-281.35" rx="40.1111" ry="26.7407"/>
<text text-anchor="middle" x="576.848" y="-285.15" font-family="Times,serif" font-size="14.00">*</text>
<text text-anchor="middle" x="576.848" y="-270.15" font-family="Times,serif" font-size="14.00">(15&#45;20)</text>
</g>
<!-- ONE_FIFTH&#45;&gt;t5 -->
<g id="edge24" class="edge"><title>ONE_FIFTH&#45;&gt;t5</title>
<path fill="none" stroke="black" d="M669.237,-348.468C651.848,-336.023 630.221,-320.547 612.265,-307.696"/>
<polygon fill="black" stroke="black" points="613.948,-304.597 603.779,-301.624 609.875,-310.29 613.948,-304.597"/>
</g>
<!-- ONE -->
<g id="node5" class="node"><title>ONE</title>
<ellipse fill="none" stroke="black" cx="731.848" cy="-611.571" rx="64.1938" ry="26.7407"/>
<text text-anchor="middle" x="731.848" y="-615.371" font-family="Times,serif" font-size="14.00">`ONE</text>
<text text-anchor="middle" x="731.848" y="-600.371" font-family="Times,serif" font-size="14.00">32&#39;h3f800000</text>
</g>
<!-- error -->
<g id="node11" class="node"><title>error</title>
<ellipse fill="none" stroke="black" cx="820.848" cy="-491.831" rx="31.2258" ry="26.7407"/>
<text text-anchor="middle" x="820.848" y="-495.631" font-family="Times,serif" font-size="14.00">gt</text>
<text text-anchor="middle" x="820.848" y="-480.631" font-family="Times,serif" font-size="14.00">(0&#45;0)</text>
</g>
<!-- ONE&#45;&gt;error -->
<g id="edge4" class="edge"><title>ONE&#45;&gt;error</title>
<path fill="none" stroke="black" d="M750.723,-585.601C764.502,-567.373 783.253,-542.566 797.899,-523.191"/>
<polygon fill="black" stroke="black" points="800.863,-525.073 804.101,-514.985 795.279,-520.852 800.863,-525.073"/>
</g>
<!-- ln output -->
<g id="node6" class="node"><title>ln output</title>
<ellipse fill="none" stroke="black" cx="478.848" cy="-18" rx="27" ry="18"/>
<text text-anchor="middle" x="478.848" y="-14.3" font-family="Times,serif" font-size="14.00">ln</text>
</g>
<!-- done output -->
<g id="node7" class="node"><title>done output</title>
<ellipse fill="none" stroke="black" cx="927.848" cy="-491.831" rx="27.8951" ry="18"/>
<text text-anchor="middle" x="927.848" y="-488.131" font-family="Times,serif" font-size="14.00">done</text>
</g>
<!-- error output -->
<g id="node8" class="node"><title>error output</title>
<ellipse fill="none" stroke="black" cx="820.848" cy="-372.09" rx="27.8951" ry="18"/>
<text text-anchor="middle" x="820.848" y="-368.39" font-family="Times,serif" font-size="14.00">error</text>
</g>
<!-- done -->
<g id="node9" class="node"><title>done</title>
<ellipse fill="none" stroke="black" cx="927.848" cy="-611.571" rx="33.8824" ry="26.7407"/>
<text text-anchor="middle" x="927.848" y="-615.371" font-family="Times,serif" font-size="14.00">buf32</text>
<text text-anchor="middle" x="927.848" y="-600.371" font-family="Times,serif" font-size="14.00">(0&#45;0)</text>
</g>
<!-- done&#45;&gt;done output -->
<g id="edge30" class="edge"><title>done&#45;&gt;done output</title>
<path fill="none" stroke="red" d="M927.848,-584.44C927.848,-565.348 927.848,-539.519 927.848,-520.154"/>
<polygon fill="red" stroke="red" points="931.348,-520.144 927.848,-510.144 924.348,-520.144 931.348,-520.144"/>
<text text-anchor="middle" x="951.348" y="-555.501" font-family="Times,serif" font-size="14.00">36&#45;cycle</text>
<text text-anchor="middle" x="951.348" y="-540.501" font-family="Times,serif" font-size="14.00">delay</text>
</g>
<!-- x_abs -->
<g id="node10" class="node"><title>x_abs</title>
<ellipse fill="none" stroke="black" cx="844.848" cy="-611.571" rx="31.2258" ry="26.7407"/>
<text text-anchor="middle" x="844.848" y="-615.371" font-family="Times,serif" font-size="14.00">abs</text>
<text text-anchor="middle" x="844.848" y="-600.371" font-family="Times,serif" font-size="14.00">(0&#45;0)</text>
</g>
<!-- x_abs&#45;&gt;error -->
<g id="edge3" class="edge"><title>x_abs&#45;&gt;error</title>
<path fill="none" stroke="black" d="M839.641,-585.023C836.26,-568.437 831.806,-546.589 828.083,-528.325"/>
<polygon fill="black" stroke="black" points="831.473,-527.428 826.046,-518.329 824.614,-528.826 831.473,-527.428"/>
</g>
<!-- error&#45;&gt;error output -->
<g id="edge31" class="edge"><title>error&#45;&gt;error output</title>
<path fill="none" stroke="red" d="M820.848,-464.7C820.848,-445.608 820.848,-419.779 820.848,-400.414"/>
<polygon fill="red" stroke="red" points="824.348,-400.404 820.848,-390.404 817.348,-400.404 824.348,-400.404"/>
<text text-anchor="middle" x="844.348" y="-435.76" font-family="Times,serif" font-size="14.00">36&#45;cycle</text>
<text text-anchor="middle" x="844.348" y="-420.76" font-family="Times,serif" font-size="14.00">delay</text>
</g>
<!-- e2 -->
<g id="node12" class="node"><title>e2</title>
<ellipse fill="none" stroke="black" cx="410.848" cy="-611.571" rx="31.2258" ry="26.7407"/>
<text text-anchor="middle" x="410.848" y="-615.371" font-family="Times,serif" font-size="14.00">*</text>
<text text-anchor="middle" x="410.848" y="-600.371" font-family="Times,serif" font-size="14.00">(0&#45;5)</text>
</g>
<!-- e2&#45;&gt;t2 -->
<g id="edge7" class="edge"><title>e2&#45;&gt;t2</title>
<path fill="none" stroke="black" d="M381.044,-603.745C326.731,-590.781 208.599,-560.144 114.848,-518.701 112.022,-517.451 109.149,-516.062 106.294,-514.594"/>
<polygon fill="black" stroke="black" points="107.778,-511.417 97.3207,-509.715 104.434,-517.567 107.778,-511.417"/>
</g>
<!-- e3 -->
<g id="node14" class="node"><title>e3</title>
<ellipse fill="none" stroke="black" cx="314.848" cy="-491.831" rx="35.2113" ry="26.7407"/>
<text text-anchor="middle" x="314.848" y="-495.631" font-family="Times,serif" font-size="14.00">*</text>
<text text-anchor="middle" x="314.848" y="-480.631" font-family="Times,serif" font-size="14.00">(5&#45;10)</text>
</g>
<!-- e2&#45;&gt;e3 -->
<g id="edge9" class="edge"><title>e2&#45;&gt;e3</title>
<path fill="none" stroke="black" d="M393.463,-589.249C378.39,-570.762 356.404,-543.797 339.512,-523.08"/>
<polygon fill="black" stroke="black" points="342.115,-520.734 333.083,-515.195 336.69,-525.157 342.115,-520.734"/>
</g>
<!-- e4 -->
<g id="node15" class="node"><title>e4</title>
<ellipse fill="none" stroke="black" cx="576.848" cy="-491.831" rx="35.2113" ry="26.7407"/>
<text text-anchor="middle" x="576.848" y="-495.631" font-family="Times,serif" font-size="14.00">*</text>
<text text-anchor="middle" x="576.848" y="-480.631" font-family="Times,serif" font-size="14.00">(5&#45;10)</text>
</g>
<!-- e2&#45;&gt;e4 -->
<g id="edge11" class="edge"><title>e2&#45;&gt;e4</title>
<path fill="none" stroke="black" d="M432.063,-591.914C459.573,-570.903 507.559,-536.798 540.79,-514.591"/>
<polygon fill="black" stroke="black" points="542.917,-517.381 549.321,-508.94 539.051,-511.545 542.917,-517.381"/>
</g>
<!-- e2&#45;&gt;e4 -->
<g id="edge12" class="edge"><title>e2&#45;&gt;e4</title>
<path fill="none" stroke="black" d="M436.18,-595.897C465.782,-576.6 514.389,-542.374 546.095,-518.686"/>
<polygon fill="black" stroke="black" points="548.284,-521.419 554.165,-512.607 544.072,-515.829 548.284,-521.419"/>
</g>
<!-- s12 -->
<g id="node16" class="node"><title>s12</title>
<ellipse fill="none" stroke="black" cx="70.8482" cy="-372.09" rx="40.1111" ry="26.7407"/>
<text text-anchor="middle" x="70.8482" y="-375.89" font-family="Times,serif" font-size="14.00">&#45;</text>
<text text-anchor="middle" x="70.8482" y="-360.89" font-family="Times,serif" font-size="14.00">(10&#45;17)</text>
</g>
<!-- t2&#45;&gt;s12 -->
<g id="edge14" class="edge"><title>t2&#45;&gt;s12</title>
<path fill="none" stroke="black" d="M70.8482,-464.7C70.8482,-448.39 70.8482,-427.163 70.8482,-409.25"/>
<polygon fill="black" stroke="black" points="74.3483,-409.148 70.8482,-399.148 67.3483,-409.148 74.3483,-409.148"/>
</g>
<!-- e3&#45;&gt;t3 -->
<g id="edge17" class="edge"><title>e3&#45;&gt;t3</title>
<path fill="none" stroke="black" d="M314.848,-464.7C314.848,-448.39 314.848,-427.163 314.848,-409.25"/>
<polygon fill="black" stroke="black" points="318.348,-409.148 314.848,-399.148 311.348,-409.148 318.348,-409.148"/>
</g>
<!-- e5 -->
<g id="node17" class="node"><title>e5</title>
<ellipse fill="none" stroke="black" cx="576.848" cy="-372.09" rx="40.1111" ry="26.7407"/>
<text text-anchor="middle" x="576.848" y="-375.89" font-family="Times,serif" font-size="14.00">*</text>
<text text-anchor="middle" x="576.848" y="-360.89" font-family="Times,serif" font-size="14.00">(10&#45;15)</text>
</g>
<!-- e4&#45;&gt;e5 -->
<g id="edge15" class="edge"><title>e4&#45;&gt;e5</title>
<path fill="none" stroke="black" d="M576.848,-464.7C576.848,-448.39 576.848,-427.163 576.848,-409.25"/>
<polygon fill="black" stroke="black" points="580.348,-409.148 576.848,-399.148 573.348,-409.148 580.348,-409.148"/>
</g>
<!-- e4&#45;&gt;t4 -->
<g id="edge19" class="edge"><title>e4&#45;&gt;t4</title>
<path fill="none" stroke="black" d="M554.626,-470.858C533.377,-451.759 501.128,-422.775 477.256,-401.319"/>
<polygon fill="black" stroke="black" points="479.287,-398.438 469.51,-394.357 474.608,-403.645 479.287,-398.438"/>
</g>
<!-- s1234 -->
<g id="node22" class="node"><title>s1234</title>
<ellipse fill="none" stroke="black" cx="384.848" cy="-190.61" rx="40.1111" ry="26.7407"/>
<text text-anchor="middle" x="384.848" y="-194.41" font-family="Times,serif" font-size="14.00">+</text>
<text text-anchor="middle" x="384.848" y="-179.41" font-family="Times,serif" font-size="14.00">(22&#45;29)</text>
</g>
<!-- s12&#45;&gt;s1234 -->
<g id="edge25" class="edge"><title>s12&#45;&gt;s1234</title>
<path fill="none" stroke="red" d="M100.956,-353.881C158.161,-321.183 282.496,-250.114 345.93,-213.856"/>
<polygon fill="red" stroke="red" points="347.887,-216.769 354.832,-208.767 344.413,-210.691 347.887,-216.769"/>
<text text-anchor="middle" x="294.848" y="-285.15" font-family="Times,serif" font-size="14.00">5&#45;cycle</text>
<text text-anchor="middle" x="294.848" y="-270.15" font-family="Times,serif" font-size="14.00">delay</text>
</g>
<!-- e5&#45;&gt;t5 -->
<g id="edge23" class="edge"><title>e5&#45;&gt;t5</title>
<path fill="none" stroke="black" d="M576.848,-344.945C576.848,-336.641 576.848,-327.305 576.848,-318.429"/>
<polygon fill="black" stroke="black" points="580.348,-318.308 576.848,-308.308 573.348,-318.308 580.348,-318.308"/>
</g>
<!-- s34 -->
<g id="node20" class="node"><title>s34</title>
<ellipse fill="none" stroke="black" cx="384.848" cy="-281.35" rx="40.1111" ry="26.7407"/>
<text text-anchor="middle" x="384.848" y="-285.15" font-family="Times,serif" font-size="14.00">&#45;</text>
<text text-anchor="middle" x="384.848" y="-270.15" font-family="Times,serif" font-size="14.00">(15&#45;22)</text>
</g>
<!-- t3&#45;&gt;s34 -->
<g id="edge21" class="edge"><title>t3&#45;&gt;s34</title>
<path fill="none" stroke="black" d="M333.24,-347.775C341.519,-337.279 351.413,-324.737 360.312,-313.455"/>
<polygon fill="black" stroke="black" points="363.134,-315.529 366.579,-305.51 357.638,-311.194 363.134,-315.529"/>
</g>
<!-- t4&#45;&gt;s34 -->
<g id="edge22" class="edge"><title>t4&#45;&gt;s34</title>
<path fill="none" stroke="black" d="M429.501,-347.31C422.595,-337.263 414.445,-325.407 407.011,-314.592"/>
<polygon fill="black" stroke="black" points="409.789,-312.455 401.24,-306.197 404.021,-316.42 409.789,-312.455"/>
</g>
<!-- s34&#45;&gt;s1234 -->
<g id="edge26" class="edge"><title>s34&#45;&gt;s1234</title>
<path fill="none" stroke="black" d="M384.848,-254.205C384.848,-245.901 384.848,-236.565 384.848,-227.688"/>
<polygon fill="black" stroke="black" points="388.348,-227.568 384.848,-217.568 381.348,-227.568 388.348,-227.568"/>
</g>
<!-- ln -->
<g id="node23" class="node"><title>ln</title>
<ellipse fill="none" stroke="black" cx="478.848" cy="-99.8701" rx="40.1111" ry="26.7407"/>
<text text-anchor="middle" x="478.848" y="-103.67" font-family="Times,serif" font-size="14.00">+</text>
<text text-anchor="middle" x="478.848" y="-88.6701" font-family="Times,serif" font-size="14.00">(29&#45;36)</text>
</g>
<!-- t5&#45;&gt;ln -->
<g id="edge28" class="edge"><title>t5&#45;&gt;ln</title>
<path fill="none" stroke="red" d="M563.427,-255.771C546.248,-224.308 516.41,-169.661 497.156,-134.399"/>
<polygon fill="red" stroke="red" points="500.128,-132.54 492.264,-125.44 493.984,-135.894 500.128,-132.54"/>
<text text-anchor="middle" x="562.848" y="-194.41" font-family="Times,serif" font-size="14.00">9&#45;cycle</text>
<text text-anchor="middle" x="562.848" y="-179.41" font-family="Times,serif" font-size="14.00">delay</text>
</g>
<!-- s1234&#45;&gt;ln -->
<g id="edge27" class="edge"><title>s1234&#45;&gt;ln</title>
<path fill="none" stroke="black" d="M407.603,-168.129C419.957,-156.466 435.39,-141.897 448.73,-129.303"/>
<polygon fill="black" stroke="black" points="451.434,-131.564 456.303,-122.154 446.629,-126.473 451.434,-131.564"/>
</g>
<!-- ln&#45;&gt;ln output -->
<g id="edge29" class="edge"><title>ln&#45;&gt;ln output</title>
<path fill="none" stroke="black" d="M478.848,-72.7176C478.848,-64.2726 478.848,-54.8903 478.848,-46.3604"/>
<polygon fill="black" stroke="black" points="482.348,-46.1464 478.848,-36.1464 475.348,-46.1464 482.348,-46.1464"/>
</g>
<!-- start -->
<g id="node24" class="node"><title>start</title>
<ellipse fill="none" stroke="black" cx="927.848" cy="-693.441" rx="27" ry="18"/>
<text text-anchor="middle" x="927.848" y="-689.741" font-family="Times,serif" font-size="14.00">start</text>
</g>
<!-- start&#45;&gt;done -->
<g id="edge1" class="edge"><title>start&#45;&gt;done</title>
<path fill="none" stroke="black" d="M927.848,-675.11C927.848,-667.376 927.848,-657.957 927.848,-648.799"/>
<polygon fill="black" stroke="black" points="931.348,-648.675 927.848,-638.675 924.348,-648.675 931.348,-648.675"/>
</g>
<!-- x -->
<g id="node25" class="node"><title>x</title>
<ellipse fill="none" stroke="black" cx="459.848" cy="-693.441" rx="27" ry="18"/>
<text text-anchor="middle" x="459.848" y="-689.741" font-family="Times,serif" font-size="14.00">x</text>
</g>
<!-- x&#45;&gt;x_abs -->
<g id="edge2" class="edge"><title>x&#45;&gt;x_abs</title>
<path fill="none" stroke="black" d="M486.78,-692.001C546.186,-690.231 692.138,-681.468 804.848,-638.441 807.528,-637.418 810.216,-636.197 812.861,-634.851"/>
<polygon fill="black" stroke="black" points="814.635,-637.869 821.612,-629.896 811.186,-631.777 814.635,-637.869"/>
</g>
<!-- x&#45;&gt;e2 -->
<g id="edge5" class="edge"><title>x&#45;&gt;e2</title>
<path fill="none" stroke="black" d="M445.497,-677.791C438.97,-668.995 431.429,-657.419 424.961,-646.464"/>
<polygon fill="black" stroke="black" points="427.828,-644.427 419.825,-637.483 421.751,-647.901 427.828,-644.427"/>
</g>
<!-- x&#45;&gt;e2 -->
<g id="edge6" class="edge"><title>x&#45;&gt;e2</title>
<path fill="none" stroke="black" d="M455.093,-675.502C450.129,-665.65 442.641,-652.965 435.158,-641.568"/>
<polygon fill="black" stroke="black" points="437.98,-639.493 429.478,-633.172 432.182,-643.416 437.98,-639.493"/>
</g>
<!-- x&#45;&gt;e3 -->
<g id="edge10" class="edge"><title>x&#45;&gt;e3</title>
<path fill="none" stroke="red" d="M462.993,-675.243C466.173,-652.61 468.419,-612.453 450.848,-584.701 444.498,-574.671 388.789,-538.771 350.671,-514.931"/>
<polygon fill="red" stroke="red" points="352.215,-511.769 341.877,-509.449 348.512,-517.71 352.215,-511.769"/>
<text text-anchor="middle" x="485.848" y="-615.371" font-family="Times,serif" font-size="14.00">5&#45;cycle</text>
<text text-anchor="middle" x="485.848" y="-600.371" font-family="Times,serif" font-size="14.00">delay</text>
</g>
<!-- x&#45;&gt;s12 -->
<g id="edge13" class="edge"><title>x&#45;&gt;s12</title>
<path fill="none" stroke="red" d="M432.794,-691.111C342.229,-686.386 53.863,-669.034 26.8482,-638.441 -31.1244,-572.789 19.4686,-460.903 50.6641,-405.77"/>
<polygon fill="red" stroke="red" points="53.697,-407.517 55.6717,-397.108 47.6368,-404.014 53.697,-407.517"/>
<text text-anchor="middle" x="26.3482" y="-555.501" font-family="Times,serif" font-size="14.00">10&#45;cycle</text>
<text text-anchor="middle" x="26.3482" y="-540.501" font-family="Times,serif" font-size="14.00">delay</text>
</g>
<!-- x&#45;&gt;e5 -->
<g id="edge16" class="edge"><title>x&#45;&gt;e5</title>
<path fill="none" stroke="red" d="M478.204,-680.07C513.883,-654.769 591.651,-593.165 620.848,-518.701 635.788,-480.6 616.516,-435.269 598.979,-405.424"/>
<polygon fill="red" stroke="red" points="601.836,-403.387 593.631,-396.684 595.865,-407.041 601.836,-403.387"/>
<text text-anchor="middle" x="636.348" y="-555.501" font-family="Times,serif" font-size="14.00">10&#45;cycle</text>
<text text-anchor="middle" x="636.348" y="-540.501" font-family="Times,serif" font-size="14.00">delay</text>
</g>
</g>
</svg>
