<?xml version="1.0" encoding="UTF-8" standalone="no"?>
<!DOCTYPE svg PUBLIC "-//W3C//DTD SVG 1.1//EN"
 "http://www.w3.org/Graphics/SVG/1.1/DTD/svg11.dtd">
<!-- Generated by graphviz version 2.38.0 (20140413.2041)
 -->
<!-- Title: %3 Pages: 1 -->
<svg width="1034pt" height="719pt"
 viewBox="0.00 0.00 1034.24 719.44" xmlns="http://www.w3.org/2000/svg" xmlns:xlink="http://www.w3.org/1999/xlink">
<g id="graph0" class="graph" transform="scale(1 1) rotate(0) translate(4 715.441)">
<title>%3</title>
<polygon fill="white" stroke="none" points="-4,4 -4,-715.441 1030.24,-715.441 1030.24,4 -4,4"/>
<!-- ONE_HALF -->
<g id="node1" class="node"><title>ONE_HALF</title>
<ellipse fill="none" stroke="black" cx="101.238" cy="-611.571" rx="66.4361" ry="26.7407"/>
<text text-anchor="middle" x="101.238" y="-615.371" font-family="Times,serif" font-size="14.00">`ONE_HALF</text>
<text text-anchor="middle" x="101.238" y="-600.371" font-family="Times,serif" font-size="14.00">32&#39;h3f000000</text>
</g>
<!-- t2 -->
<g id="node13" class="node"><title>t2</title>
<ellipse fill="none" stroke="black" cx="76.2381" cy="-491.831" rx="41.0244" ry="26.7407"/>
<text text-anchor="middle" x="76.2381" y="-495.631" font-family="Times,serif" font-size="14.00">*</text>
<text text-anchor="middle" x="76.2381" y="-480.631" font-family="Times,serif" font-size="14.00">(11&#45;22)</text>
</g>
<!-- ONE_HALF&#45;&gt;t2 -->
<g id="edge8" class="edge"><title>ONE_HALF&#45;&gt;t2</title>
<path fill="none" stroke="black" d="M95.7517,-584.732C92.251,-568.245 87.6652,-546.648 83.8188,-528.533"/>
<polygon fill="black" stroke="black" points="87.2124,-527.664 81.7116,-518.609 80.365,-529.118 87.2124,-527.664"/>
</g>
<!-- ONE_THIRD -->
<g id="node2" class="node"><title>ONE_THIRD</title>
<ellipse fill="none" stroke="black" cx="206.238" cy="-491.831" rx="70.922" ry="26.7407"/>
<text text-anchor="middle" x="206.238" y="-495.631" font-family="Times,serif" font-size="14.00">`ONE_THIRD</text>
<text text-anchor="middle" x="206.238" y="-480.631" font-family="Times,serif" font-size="14.00">32&#39;h3eaaaaab</text>
</g>
<!-- t3 -->
<g id="node18" class="node"><title>t3</title>
<ellipse fill="none" stroke="black" cx="336.238" cy="-372.09" rx="41.0244" ry="26.7407"/>
<text text-anchor="middle" x="336.238" y="-375.89" font-family="Times,serif" font-size="14.00">*</text>
<text text-anchor="middle" x="336.238" y="-360.89" font-family="Times,serif" font-size="14.00">(22&#45;33)</text>
</g>
<!-- ONE_THIRD&#45;&gt;t3 -->
<g id="edge18" class="edge"><title>ONE_THIRD&#45;&gt;t3</title>
<path fill="none" stroke="black" d="M232.859,-466.72C253.857,-447.702 283.18,-421.145 305.235,-401.169"/>
<polygon fill="black" stroke="black" points="307.645,-403.709 312.708,-394.402 302.946,-398.52 307.645,-403.709"/>
</g>
<!-- ONE_FOURTH -->
<g id="node3" class="node"><title>ONE_FOURTH</title>
<ellipse fill="none" stroke="black" cx="475.238" cy="-491.831" rx="79.8062" ry="26.7407"/>
<text text-anchor="middle" x="475.238" y="-495.631" font-family="Times,serif" font-size="14.00">`ONE_FOURTH</text>
<text text-anchor="middle" x="475.238" y="-480.631" font-family="Times,serif" font-size="14.00">32&#39;h3e800000</text>
</g>
<!-- t4 -->
<g id="node19" class="node"><title>t4</title>
<ellipse fill="none" stroke="black" cx="475.238" cy="-372.09" rx="41.0244" ry="26.7407"/>
<text text-anchor="middle" x="475.238" y="-375.89" font-family="Times,serif" font-size="14.00">*</text>
<text text-anchor="middle" x="475.238" y="-360.89" font-family="Times,serif" font-size="14.00">(22&#45;33)</text>
</g>
<!-- ONE_FOURTH&#45;&gt;t4 -->
<g id="edge20" class="edge"><title>ONE_FOURTH&#45;&gt;t4</title>
<path fill="none" stroke="black" d="M475.238,-464.7C475.238,-448.39 475.238,-427.163 475.238,-409.25"/>
<polygon fill="black" stroke="black" points="478.738,-409.148 475.238,-399.148 471.738,-409.148 478.738,-409.148"/>
</g>
<!-- ONE_FIFTH -->
<g id="node4" class="node"><title>ONE_FIFTH</title>
<ellipse fill="none" stroke="black" cx="741.238" cy="-372.09" rx="67.7647" ry="26.7407"/>
<text text-anchor="middle" x="741.238" y="-375.89" font-family="Times,serif" font-size="14.00">`ONE_FIFTH</text>
<text text-anchor="middle" x="741.238" y="-360.89" font-family="Times,serif" font-size="14.00">32&#39;h3e4ccccd</text>
</g>
<!-- t5 -->
<g id="node21" class="node"><title>t5</title>
<ellipse fill="none" stroke="black" cx="614.238" cy="-281.35" rx="41.0244" ry="26.7407"/>
<text text-anchor="middle" x="614.238" y="-285.15" font-family="Times,serif" font-size="14.00">*</text>
<text text-anchor="middle" x="614.238" y="-270.15" font-family="Times,serif" font-size="14.00">(33&#45;44)</text>
</g>
<!-- ONE_FIFTH&#45;&gt;t5 -->
<g id="edge24" class="edge"><title>ONE_FIFTH&#45;&gt;t5</title>
<path fill="none" stroke="black" d="M708.862,-348.468C690.971,-335.967 668.701,-320.406 650.261,-307.521"/>
<polygon fill="black" stroke="black" points="652.023,-304.482 641.821,-301.624 648.013,-310.22 652.023,-304.482"/>
</g>
<!-- ONE -->
<g id="node5" class="node"><title>ONE</title>
<ellipse fill="none" stroke="black" cx="777.238" cy="-611.571" rx="66.4361" ry="26.7407"/>
<text text-anchor="middle" x="777.238" y="-615.371" font-family="Times,serif" font-size="14.00">`ONE</text>
<text text-anchor="middle" x="777.238" y="-600.371" font-family="Times,serif" font-size="14.00">32&#39;h3f800000</text>
</g>
<!-- error -->
<g id="node11" class="node"><title>error</title>
<ellipse fill="none" stroke="black" cx="865.238" cy="-491.831" rx="31.2258" ry="26.7407"/>
<text text-anchor="middle" x="865.238" y="-495.631" font-family="Times,serif" font-size="14.00">gt</text>
<text text-anchor="middle" x="865.238" y="-480.631" font-family="Times,serif" font-size="14.00">(0&#45;0)</text>
</g>
<!-- ONE&#45;&gt;error -->
<g id="edge4" class="edge"><title>ONE&#45;&gt;error</title>
<path fill="none" stroke="black" d="M795.901,-585.601C809.525,-567.373 828.065,-542.566 842.546,-523.191"/>
<polygon fill="black" stroke="black" points="845.496,-525.091 848.679,-514.985 839.889,-520.9 845.496,-525.091"/>
</g>
<!-- ln output -->
<g id="node6" class="node"><title>ln output</title>
<ellipse fill="none" stroke="black" cx="488.238" cy="-18" rx="27" ry="18"/>
<text text-anchor="middle" x="488.238" y="-14.3" font-family="Times,serif" font-size="14.00">ln</text>
</g>
<!-- done output -->
<g id="node7" class="node"><title>done output</title>
<ellipse fill="none" stroke="black" cx="977.238" cy="-491.831" rx="28.6953" ry="18"/>
<text text-anchor="middle" x="977.238" y="-488.131" font-family="Times,serif" font-size="14.00">done</text>
</g>
<!-- error output -->
<g id="node8" class="node"><title>error output</title>
<ellipse fill="none" stroke="black" cx="865.238" cy="-372.09" rx="28.6953" ry="18"/>
<text text-anchor="middle" x="865.238" y="-368.39" font-family="Times,serif" font-size="14.00">error</text>
</g>
<!-- done -->
<g id="node9" class="node"><title>done</title>
<ellipse fill="none" stroke="black" cx="977.238" cy="-611.571" rx="34.7971" ry="26.7407"/>
<text text-anchor="middle" x="977.238" y="-615.371" font-family="Times,serif" font-size="14.00">buf32</text>
<text text-anchor="middle" x="977.238" y="-600.371" font-family="Times,serif" font-size="14.00">(0&#45;0)</text>
</g>
<!-- done&#45;&gt;done output -->
<g id="edge30" class="edge"><title>done&#45;&gt;done output</title>
<path fill="none" stroke="red" d="M977.238,-584.44C977.238,-565.348 977.238,-539.519 977.238,-520.154"/>
<polygon fill="red" stroke="red" points="980.738,-520.144 977.238,-510.144 973.738,-520.144 980.738,-520.144"/>
<text text-anchor="middle" x="1001.74" y="-555.501" font-family="Times,serif" font-size="14.00">75&#45;cycle</text>
<text text-anchor="middle" x="1001.74" y="-540.501" font-family="Times,serif" font-size="14.00">delay</text>
</g>
<!-- x_abs -->
<g id="node10" class="node"><title>x_abs</title>
<ellipse fill="none" stroke="black" cx="893.238" cy="-611.571" rx="31.2258" ry="26.7407"/>
<text text-anchor="middle" x="893.238" y="-615.371" font-family="Times,serif" font-size="14.00">abs</text>
<text text-anchor="middle" x="893.238" y="-600.371" font-family="Times,serif" font-size="14.00">(0&#45;0)</text>
</g>
<!-- x_abs&#45;&gt;error -->
<g id="edge3" class="edge"><title>x_abs&#45;&gt;error</title>
<path fill="none" stroke="black" d="M887.162,-585.023C883.2,-568.36 877.974,-546.386 873.618,-528.07"/>
<polygon fill="black" stroke="black" points="877.02,-527.247 871.302,-518.329 870.21,-528.867 877.02,-527.247"/>
</g>
<!-- error&#45;&gt;error output -->
<g id="edge31" class="edge"><title>error&#45;&gt;error output</title>
<path fill="none" stroke="red" d="M865.238,-464.7C865.238,-445.608 865.238,-419.779 865.238,-400.414"/>
<polygon fill="red" stroke="red" points="868.738,-400.404 865.238,-390.404 861.738,-400.404 868.738,-400.404"/>
<text text-anchor="middle" x="889.738" y="-435.76" font-family="Times,serif" font-size="14.00">75&#45;cycle</text>
<text text-anchor="middle" x="889.738" y="-420.76" font-family="Times,serif" font-size="14.00">delay</text>
</g>
<!-- e2 -->
<g id="node12" class="node"><title>e2</title>
<ellipse fill="none" stroke="black" cx="435.238" cy="-611.571" rx="36.125" ry="26.7407"/>
<text text-anchor="middle" x="435.238" y="-615.371" font-family="Times,serif" font-size="14.00">*</text>
<text text-anchor="middle" x="435.238" y="-600.371" font-family="Times,serif" font-size="14.00">(0&#45;11)</text>
</g>
<!-- e2&#45;&gt;t2 -->
<g id="edge7" class="edge"><title>e2&#45;&gt;t2</title>
<path fill="none" stroke="black" d="M401.15,-602.675C343.44,-588.816 223.304,-557.834 126.238,-518.701 122.966,-517.382 119.623,-515.92 116.294,-514.383"/>
<polygon fill="black" stroke="black" points="117.546,-511.101 107.018,-509.904 114.502,-517.404 117.546,-511.101"/>
</g>
<!-- e3 -->
<g id="node14" class="node"><title>e3</title>
<ellipse fill="none" stroke="black" cx="336.238" cy="-491.831" rx="41.0244" ry="26.7407"/>
<text text-anchor="middle" x="336.238" y="-495.631" font-family="Times,serif" font-size="14.00">*</text>
<text text-anchor="middle" x="336.238" y="-480.631" font-family="Times,serif" font-size="14.00">(11&#45;22)</text>
</g>
<!-- e2&#45;&gt;e3 -->
<g id="edge9" class="edge"><title>e2&#45;&gt;e3</title>
<path fill="none" stroke="black" d="M416.617,-588.425C401.189,-570.077 379.099,-543.804 361.979,-523.444"/>
<polygon fill="black" stroke="black" points="364.566,-521.082 355.451,-515.68 359.208,-525.587 364.566,-521.082"/>
</g>
<!-- e4 -->
<g id="node15" class="node"><title>e4</title>
<ellipse fill="none" stroke="black" cx="614.238" cy="-491.831" rx="41.0244" ry="26.7407"/>
<text text-anchor="middle" x="614.238" y="-495.631" font-family="Times,serif" font-size="14.00">*</text>
<text text-anchor="middle" x="614.238" y="-480.631" font-family="Times,serif" font-size="14.00">(11&#45;22)</text>
</g>
<!-- e2&#45;&gt;e4 -->
<g id="edge11" class="edge"><title>e2&#45;&gt;e4</title>
<path fill="none" stroke="black" d="M459.255,-591.392C488.902,-570.547 539.388,-537.275 574.733,-515.242"/>
<polygon fill="black" stroke="black" points="576.709,-518.135 583.371,-509.896 573.025,-512.182 576.709,-518.135"/>
</g>
<!-- e2&#45;&gt;e4 -->
<g id="edge12" class="edge"><title>e2&#45;&gt;e4</title>
<path fill="none" stroke="black" d="M463.768,-594.936C495.466,-575.584 546.326,-542.342 580.089,-519.059"/>
<polygon fill="black" stroke="black" points="582.49,-521.654 588.705,-513.073 578.496,-515.905 582.49,-521.654"/>
</g>
<!-- s12 -->
<g id="node16" class="node"><title>s12</title>
<ellipse fill="none" stroke="black" cx="76.2381" cy="-372.09" rx="41.0244" ry="26.7407"/>
<text text-anchor="middle" x="76.2381" y="-375.89" font-family="Times,serif" font-size="14.00">&#45;</text>
<text text-anchor="middle" x="76.2381" y="-360.89" font-family="Times,serif" font-size="14.00">(22&#45;36)</text>
</g>
<!-- t2&#45;&gt;s12 -->
<g id="edge14" class="edge"><title>t2&#45;&gt;s12</title>
<path fill="none" stroke="black" d="M76.2381,-464.7C76.2381,-448.39 76.2381,-427.163 76.2381,-409.25"/>
<polygon fill="black" stroke="black" points="79.7382,-409.148 76.2381,-399.148 72.7382,-409.148 79.7382,-409.148"/>
</g>
<!-- e3&#45;&gt;t3 -->
<g id="edge17" class="edge"><title>e3&#45;&gt;t3</title>
<path fill="none" stroke="black" d="M336.238,-464.7C336.238,-448.39 336.238,-427.163 336.238,-409.25"/>
<polygon fill="black" stroke="black" points="339.738,-409.148 336.238,-399.148 332.738,-409.148 339.738,-409.148"/>
</g>
<!-- e5 -->
<g id="node17" class="node"><title>e5</title>
<ellipse fill="none" stroke="black" cx="614.238" cy="-372.09" rx="41.0244" ry="26.7407"/>
<text text-anchor="middle" x="614.238" y="-375.89" font-family="Times,serif" font-size="14.00">*</text>
<text text-anchor="middle" x="614.238" y="-360.89" font-family="Times,serif" font-size="14.00">(22&#45;33)</text>
</g>
<!-- e4&#45;&gt;e5 -->
<g id="edge15" class="edge"><title>e4&#45;&gt;e5</title>
<path fill="none" stroke="black" d="M614.238,-464.7C614.238,-448.39 614.238,-427.163 614.238,-409.25"/>
<polygon fill="black" stroke="black" points="617.738,-409.148 614.238,-399.148 610.738,-409.148 617.738,-409.148"/>
</g>
<!-- e4&#45;&gt;t4 -->
<g id="edge19" class="edge"><title>e4&#45;&gt;t4</title>
<path fill="none" stroke="black" d="M589.708,-470.052C566.922,-450.751 532.834,-421.877 507.782,-400.656"/>
<polygon fill="black" stroke="black" points="509.884,-397.85 499.991,-394.057 505.359,-403.191 509.884,-397.85"/>
</g>
<!-- s1234 -->
<g id="node22" class="node"><title>s1234</title>
<ellipse fill="none" stroke="black" cx="377.238" cy="-190.61" rx="41.0244" ry="26.7407"/>
<text text-anchor="middle" x="377.238" y="-194.41" font-family="Times,serif" font-size="14.00">+</text>
<text text-anchor="middle" x="377.238" y="-179.41" font-family="Times,serif" font-size="14.00">(47&#45;61)</text>
</g>
<!-- s12&#45;&gt;s1234 -->
<g id="edge25" class="edge"><title>s12&#45;&gt;s1234</title>
<path fill="none" stroke="red" d="M105.923,-353.39C160.66,-320.752 277.453,-251.11 338.402,-214.767"/>
<polygon fill="red" stroke="red" points="340.534,-217.571 347.331,-209.443 336.949,-211.559 340.534,-217.571"/>
<text text-anchor="middle" x="296.738" y="-285.15" font-family="Times,serif" font-size="14.00">11&#45;cycle</text>
<text text-anchor="middle" x="296.738" y="-270.15" font-family="Times,serif" font-size="14.00">delay</text>
</g>
<!-- e5&#45;&gt;t5 -->
<g id="edge23" class="edge"><title>e5&#45;&gt;t5</title>
<path fill="none" stroke="black" d="M614.238,-344.945C614.238,-336.641 614.238,-327.305 614.238,-318.429"/>
<polygon fill="black" stroke="black" points="617.738,-318.308 614.238,-308.308 610.738,-318.308 617.738,-318.308"/>
</g>
<!-- s34 -->
<g id="node20" class="node"><title>s34</title>
<ellipse fill="none" stroke="black" cx="377.238" cy="-281.35" rx="41.0244" ry="26.7407"/>
<text text-anchor="middle" x="377.238" y="-285.15" font-family="Times,serif" font-size="14.00">&#45;</text>
<text text-anchor="middle" x="377.238" y="-270.15" font-family="Times,serif" font-size="14.00">(33&#45;47)</text>
</g>
<!-- t3&#45;&gt;s34 -->
<g id="edge21" class="edge"><title>t3&#45;&gt;s34</title>
<path fill="none" stroke="black" d="M347.877,-345.898C352.111,-336.734 356.97,-326.219 361.5,-316.414"/>
<polygon fill="black" stroke="black" points="364.695,-317.844 365.712,-307.298 358.34,-314.908 364.695,-317.844"/>
</g>
<!-- t4&#45;&gt;s34 -->
<g id="edge22" class="edge"><title>t4&#45;&gt;s34</title>
<path fill="none" stroke="black" d="M451.515,-349.609C438.514,-337.837 422.245,-323.104 408.249,-310.431"/>
<polygon fill="black" stroke="black" points="410.505,-307.752 400.743,-303.634 405.806,-312.941 410.505,-307.752"/>
</g>
<!-- s34&#45;&gt;s1234 -->
<g id="edge26" class="edge"><title>s34&#45;&gt;s1234</title>
<path fill="none" stroke="black" d="M377.238,-254.205C377.238,-245.901 377.238,-236.565 377.238,-227.688"/>
<polygon fill="black" stroke="black" points="380.738,-227.568 377.238,-217.568 373.738,-227.568 380.738,-227.568"/>
</g>
<!-- ln -->
<g id="node23" class="node"><title>ln</title>
<ellipse fill="none" stroke="black" cx="488.238" cy="-99.8701" rx="41.0244" ry="26.7407"/>
<text text-anchor="middle" x="488.238" y="-103.67" font-family="Times,serif" font-size="14.00">+</text>
<text text-anchor="middle" x="488.238" y="-88.6701" font-family="Times,serif" font-size="14.00">(61&#45;75)</text>
</g>
<!-- t5&#45;&gt;ln -->
<g id="edge28" class="edge"><title>t5&#45;&gt;ln</title>
<path fill="none" stroke="red" d="M597.506,-256.517C575.228,-224.783 535.746,-168.543 510.838,-133.062"/>
<polygon fill="red" stroke="red" points="513.449,-130.69 504.838,-124.516 507.72,-134.712 513.449,-130.69"/>
<text text-anchor="middle" x="594.738" y="-194.41" font-family="Times,serif" font-size="14.00">17&#45;cycle</text>
<text text-anchor="middle" x="594.738" y="-179.41" font-family="Times,serif" font-size="14.00">delay</text>
</g>
<!-- s1234&#45;&gt;ln -->
<g id="edge27" class="edge"><title>s1234&#45;&gt;ln</title>
<path fill="none" stroke="black" d="M402.704,-169.251C418.215,-156.851 438.206,-140.869 454.96,-127.475"/>
<polygon fill="black" stroke="black" points="457.266,-130.112 462.891,-121.134 452.895,-124.645 457.266,-130.112"/>
</g>
<!-- ln&#45;&gt;ln output -->
<g id="edge29" class="edge"><title>ln&#45;&gt;ln output</title>
<path fill="none" stroke="black" d="M488.238,-72.7176C488.238,-64.2726 488.238,-54.8903 488.238,-46.3604"/>
<polygon fill="black" stroke="black" points="491.738,-46.1464 488.238,-36.1464 484.738,-46.1464 491.738,-46.1464"/>
</g>
<!-- start -->
<g id="node24" class="node"><title>start</title>
<ellipse fill="none" stroke="black" cx="977.238" cy="-693.441" rx="27" ry="18"/>
<text text-anchor="middle" x="977.238" y="-689.741" font-family="Times,serif" font-size="14.00">start</text>
</g>
<!-- start&#45;&gt;done -->
<g id="edge1" class="edge"><title>start&#45;&gt;done</title>
<path fill="none" stroke="black" d="M977.238,-675.11C977.238,-667.376 977.238,-657.957 977.238,-648.799"/>
<polygon fill="black" stroke="black" points="980.738,-648.675 977.238,-638.675 973.738,-648.675 980.738,-648.675"/>
</g>
<!-- x -->
<g id="node25" class="node"><title>x</title>
<ellipse fill="none" stroke="black" cx="489.238" cy="-693.441" rx="27" ry="18"/>
<text text-anchor="middle" x="489.238" y="-689.741" font-family="Times,serif" font-size="14.00">x</text>
</g>
<!-- x&#45;&gt;x_abs -->
<g id="edge2" class="edge"><title>x&#45;&gt;x_abs</title>
<path fill="none" stroke="black" d="M516.598,-692.183C578.412,-690.793 732.767,-682.767 852.238,-638.441 855.143,-637.363 858.06,-636.06 860.926,-634.619"/>
<polygon fill="black" stroke="black" points="862.799,-637.582 869.828,-629.654 859.389,-631.469 862.799,-637.582"/>
</g>
<!-- x&#45;&gt;e2 -->
<g id="edge5" class="edge"><title>x&#45;&gt;e2</title>
<path fill="none" stroke="black" d="M474.268,-678.162C467.059,-669.239 458.571,-657.354 451.27,-646.154"/>
<polygon fill="black" stroke="black" points="454.024,-643.962 445.716,-637.387 448.111,-647.708 454.024,-643.962"/>
</g>
<!-- x&#45;&gt;e2 -->
<g id="edge6" class="edge"><title>x&#45;&gt;e2</title>
<path fill="none" stroke="black" d="M483.422,-675.502C477.924,-665.796 469.804,-653.34 461.727,-642.075"/>
<polygon fill="black" stroke="black" points="464.351,-639.735 455.603,-633.758 458.714,-643.886 464.351,-639.735"/>
</g>
<!-- x&#45;&gt;e3 -->
<g id="edge10" class="edge"><title>x&#45;&gt;e3</title>
<path fill="none" stroke="red" d="M492.378,-675.246C495.553,-652.616 497.793,-612.463 480.238,-584.701 467.673,-564.83 415.429,-534.329 377.48,-513.99"/>
<polygon fill="red" stroke="red" points="378.647,-510.647 368.173,-509.051 375.365,-516.83 378.647,-510.647"/>
<text text-anchor="middle" x="519.738" y="-615.371" font-family="Times,serif" font-size="14.00">11&#45;cycle</text>
<text text-anchor="middle" x="519.738" y="-600.371" font-family="Times,serif" font-size="14.00">delay</text>
</g>
<!-- x&#45;&gt;s12 -->
<g id="edge13" class="edge"><title>x&#45;&gt;s12</title>
<path fill="none" stroke="red" d="M462.308,-691.346C367.807,-687.232 55.4285,-671.234 26.2381,-638.441 -32.222,-572.766 21.8184,-460.891 54.8922,-405.765"/>
<polygon fill="red" stroke="red" points="57.9587,-407.459 60.1979,-397.104 51.9897,-403.803 57.9587,-407.459"/>
<text text-anchor="middle" x="27.7381" y="-555.501" font-family="Times,serif" font-size="14.00">22&#45;cycle</text>
<text text-anchor="middle" x="27.7381" y="-540.501" font-family="Times,serif" font-size="14.00">delay</text>
</g>
<!-- x&#45;&gt;e5 -->
<g id="edge16" class="edge"><title>x&#45;&gt;e5</title>
<path fill="none" stroke="red" d="M508.676,-680.915C547.33,-656.693 632.823,-596.279 664.238,-518.701 679.898,-480.03 657.872,-434.383 638.295,-404.643"/>
<polygon fill="red" stroke="red" points="641.141,-402.604 632.608,-396.323 635.362,-406.554 641.141,-402.604"/>
<text text-anchor="middle" x="680.738" y="-555.501" font-family="Times,serif" font-size="14.00">22&#45;cycle</text>
<text text-anchor="middle" x="680.738" y="-540.501" font-family="Times,serif" font-size="14.00">delay</text>
</g>
</g>
</svg>
