<?xml version="1.0" encoding="UTF-8" standalone="no"?>
<!DOCTYPE svg PUBLIC "-//W3C//DTD SVG 1.1//EN"
 "http://www.w3.org/Graphics/SVG/1.1/DTD/svg11.dtd">
<!-- Generated by graphviz version 2.38.0 (20140413.2041)
 -->
<!-- Title: %3 Pages: 1 -->
<svg width="1059pt" height="839pt"
 viewBox="0.00 0.00 1059.11 839.18" xmlns="http://www.w3.org/2000/svg" xmlns:xlink="http://www.w3.org/1999/xlink">
<g id="graph0" class="graph" transform="scale(1 1) rotate(0) translate(4 835.181)">
<title>%3</title>
<polygon fill="white" stroke="none" points="-4,4 -4,-835.181 1055.11,-835.181 1055.11,4 -4,4"/>
<!-- ONE_FOURTH -->
<g id="node1" class="node"><title>ONE_FOURTH</title>
<ellipse fill="none" stroke="black" cx="258.113" cy="-611.571" rx="77.5641" ry="26.7407"/>
<text text-anchor="middle" x="258.113" y="-615.371" font-family="Times,serif" font-size="14.00">`ONE_FOURTH</text>
<text text-anchor="middle" x="258.113" y="-600.371" font-family="Times,serif" font-size="14.00">32&#39;h3e800000</text>
</g>
<!-- t4 -->
<g id="node20" class="node"><title>t4</title>
<ellipse fill="none" stroke="black" cx="317.113" cy="-491.831" rx="40.1111" ry="26.7407"/>
<text text-anchor="middle" x="317.113" y="-495.631" font-family="Times,serif" font-size="14.00">*</text>
<text text-anchor="middle" x="317.113" y="-480.631" font-family="Times,serif" font-size="14.00">(22&#45;33)</text>
</g>
<!-- ONE_FOURTH&#45;&gt;t4 -->
<g id="edge20" class="edge"><title>ONE_FOURTH&#45;&gt;t4</title>
<path fill="none" stroke="black" d="M270.915,-585.023C279.497,-567.897 290.89,-545.161 300.214,-526.553"/>
<polygon fill="black" stroke="black" points="303.389,-528.03 304.74,-517.522 297.131,-524.894 303.389,-528.03"/>
</g>
<!-- ONE -->
<g id="node2" class="node"><title>ONE</title>
<ellipse fill="none" stroke="black" cx="808.113" cy="-731.311" rx="64.1938" ry="26.7407"/>
<text text-anchor="middle" x="808.113" y="-735.111" font-family="Times,serif" font-size="14.00">`ONE</text>
<text text-anchor="middle" x="808.113" y="-720.111" font-family="Times,serif" font-size="14.00">32&#39;h3f800000</text>
</g>
<!-- error -->
<g id="node12" class="node"><title>error</title>
<ellipse fill="none" stroke="black" cx="864.113" cy="-611.571" rx="31.2258" ry="26.7407"/>
<text text-anchor="middle" x="864.113" y="-615.371" font-family="Times,serif" font-size="14.00">gt</text>
<text text-anchor="middle" x="864.113" y="-600.371" font-family="Times,serif" font-size="14.00">(0&#45;0)</text>
</g>
<!-- ONE&#45;&gt;error -->
<g id="edge4" class="edge"><title>ONE&#45;&gt;error</title>
<path fill="none" stroke="black" d="M820.264,-704.763C828.464,-687.521 839.369,-664.593 848.253,-645.916"/>
<polygon fill="black" stroke="black" points="851.425,-647.396 852.559,-636.862 845.103,-644.389 851.425,-647.396"/>
</g>
<!-- ZERO -->
<g id="node3" class="node"><title>ZERO</title>
<ellipse fill="none" stroke="black" cx="85.1127" cy="-310.35" rx="39.6962" ry="26.7407"/>
<text text-anchor="middle" x="85.1127" y="-314.15" font-family="Times,serif" font-size="14.00">`ZERO</text>
<text text-anchor="middle" x="85.1127" y="-299.15" font-family="Times,serif" font-size="14.00">32&#39;h0</text>
</g>
<!-- exact0 -->
<g id="node25" class="node"><title>exact0</title>
<ellipse fill="none" stroke="black" cx="31.1127" cy="-219.61" rx="31.2258" ry="26.7407"/>
<text text-anchor="middle" x="31.1127" y="-223.41" font-family="Times,serif" font-size="14.00">=</text>
<text text-anchor="middle" x="31.1127" y="-208.41" font-family="Times,serif" font-size="14.00">(0&#45;0)</text>
</g>
<!-- ZERO&#45;&gt;exact0 -->
<g id="edge30" class="edge"><title>ZERO&#45;&gt;exact0</title>
<path fill="none" stroke="black" d="M70.357,-285.102C64.2579,-275.079 57.1012,-263.318 50.5814,-252.604"/>
<polygon fill="black" stroke="black" points="53.4801,-250.634 45.2917,-243.911 47.5002,-254.273 53.4801,-250.634"/>
</g>
<!-- ln -->
<g id="node26" class="node"><title>ln</title>
<ellipse fill="none" stroke="black" cx="93.1127" cy="-99.8701" rx="40.1111" ry="26.7407"/>
<text text-anchor="middle" x="93.1127" y="-103.67" font-family="Times,serif" font-size="14.00">mux32</text>
<text text-anchor="middle" x="93.1127" y="-88.6701" font-family="Times,serif" font-size="14.00">(75&#45;75)</text>
</g>
<!-- ZERO&#45;&gt;ln -->
<g id="edge32" class="edge"><title>ZERO&#45;&gt;ln</title>
<path fill="none" stroke="black" d="M86.1097,-283.368C87.5268,-246.438 90.129,-178.626 91.7312,-136.871"/>
<polygon fill="black" stroke="black" points="95.2296,-136.979 92.1157,-126.852 88.2347,-136.71 95.2296,-136.979"/>
</g>
<!-- ONE_FIFTH -->
<g id="node4" class="node"><title>ONE_FIFTH</title>
<ellipse fill="none" stroke="black" cx="193.113" cy="-491.831" rx="65.5227" ry="26.7407"/>
<text text-anchor="middle" x="193.113" y="-495.631" font-family="Times,serif" font-size="14.00">`ONE_FIFTH</text>
<text text-anchor="middle" x="193.113" y="-480.631" font-family="Times,serif" font-size="14.00">32&#39;h3e4ccccd</text>
</g>
<!-- t5 -->
<g id="node22" class="node"><title>t5</title>
<ellipse fill="none" stroke="black" cx="169.113" cy="-401.09" rx="40.1111" ry="26.7407"/>
<text text-anchor="middle" x="169.113" y="-404.89" font-family="Times,serif" font-size="14.00">*</text>
<text text-anchor="middle" x="169.113" y="-389.89" font-family="Times,serif" font-size="14.00">(33&#45;44)</text>
</g>
<!-- ONE_FIFTH&#45;&gt;t5 -->
<g id="edge24" class="edge"><title>ONE_FIFTH&#45;&gt;t5</title>
<path fill="none" stroke="black" d="M186.042,-464.686C183.751,-456.216 181.171,-446.675 178.728,-437.642"/>
<polygon fill="black" stroke="black" points="182.04,-436.482 176.05,-427.743 175.283,-438.31 182.04,-436.482"/>
</g>
<!-- ONE_HALF -->
<g id="node5" class="node"><title>ONE_HALF</title>
<ellipse fill="none" stroke="black" cx="624.113" cy="-731.311" rx="64.1938" ry="26.7407"/>
<text text-anchor="middle" x="624.113" y="-735.111" font-family="Times,serif" font-size="14.00">`ONE_HALF</text>
<text text-anchor="middle" x="624.113" y="-720.111" font-family="Times,serif" font-size="14.00">32&#39;h3f000000</text>
</g>
<!-- t2 -->
<g id="node14" class="node"><title>t2</title>
<ellipse fill="none" stroke="black" cx="648.113" cy="-611.571" rx="40.1111" ry="26.7407"/>
<text text-anchor="middle" x="648.113" y="-615.371" font-family="Times,serif" font-size="14.00">*</text>
<text text-anchor="middle" x="648.113" y="-600.371" font-family="Times,serif" font-size="14.00">(11&#45;22)</text>
</g>
<!-- ONE_HALF&#45;&gt;t2 -->
<g id="edge8" class="edge"><title>ONE_HALF&#45;&gt;t2</title>
<path fill="none" stroke="black" d="M629.38,-704.472C632.74,-687.985 637.143,-666.388 640.835,-648.273"/>
<polygon fill="black" stroke="black" points="644.29,-648.847 642.858,-638.349 637.431,-647.448 644.29,-648.847"/>
</g>
<!-- ONE_THIRD -->
<g id="node6" class="node"><title>ONE_THIRD</title>
<ellipse fill="none" stroke="black" cx="521.113" cy="-611.571" rx="68.6788" ry="26.7407"/>
<text text-anchor="middle" x="521.113" y="-615.371" font-family="Times,serif" font-size="14.00">`ONE_THIRD</text>
<text text-anchor="middle" x="521.113" y="-600.371" font-family="Times,serif" font-size="14.00">32&#39;h3eaaaaab</text>
</g>
<!-- t3 -->
<g id="node19" class="node"><title>t3</title>
<ellipse fill="none" stroke="black" cx="416.113" cy="-491.831" rx="40.1111" ry="26.7407"/>
<text text-anchor="middle" x="416.113" y="-495.631" font-family="Times,serif" font-size="14.00">*</text>
<text text-anchor="middle" x="416.113" y="-480.631" font-family="Times,serif" font-size="14.00">(22&#45;33)</text>
</g>
<!-- ONE_THIRD&#45;&gt;t3 -->
<g id="edge18" class="edge"><title>ONE_THIRD&#45;&gt;t3</title>
<path fill="none" stroke="black" d="M499.101,-585.888C482.822,-567.634 460.559,-542.669 443.189,-523.192"/>
<polygon fill="black" stroke="black" points="445.585,-520.62 436.317,-515.486 440.361,-525.279 445.585,-520.62"/>
</g>
<!-- ln output -->
<g id="node7" class="node"><title>ln output</title>
<ellipse fill="none" stroke="black" cx="93.1127" cy="-18" rx="27" ry="18"/>
<text text-anchor="middle" x="93.1127" y="-14.3" font-family="Times,serif" font-size="14.00">ln</text>
</g>
<!-- done output -->
<g id="node8" class="node"><title>done output</title>
<ellipse fill="none" stroke="black" cx="1004.11" cy="-611.571" rx="27.8951" ry="18"/>
<text text-anchor="middle" x="1004.11" y="-607.871" font-family="Times,serif" font-size="14.00">done</text>
</g>
<!-- error output -->
<g id="node9" class="node"><title>error output</title>
<ellipse fill="none" stroke="black" cx="864.113" cy="-491.831" rx="27.8951" ry="18"/>
<text text-anchor="middle" x="864.113" y="-488.131" font-family="Times,serif" font-size="14.00">error</text>
</g>
<!-- done -->
<g id="node10" class="node"><title>done</title>
<ellipse fill="none" stroke="black" cx="1004.11" cy="-731.311" rx="33.8824" ry="26.7407"/>
<text text-anchor="middle" x="1004.11" y="-735.111" font-family="Times,serif" font-size="14.00">buf32</text>
<text text-anchor="middle" x="1004.11" y="-720.111" font-family="Times,serif" font-size="14.00">(0&#45;0)</text>
</g>
<!-- done&#45;&gt;done output -->
<g id="edge35" class="edge"><title>done&#45;&gt;done output</title>
<path fill="none" stroke="red" d="M1004.11,-704.18C1004.11,-685.088 1004.11,-659.259 1004.11,-639.894"/>
<polygon fill="red" stroke="red" points="1007.61,-639.884 1004.11,-629.884 1000.61,-639.884 1007.61,-639.884"/>
<text text-anchor="middle" x="1027.61" y="-675.241" font-family="Times,serif" font-size="14.00">75&#45;cycle</text>
<text text-anchor="middle" x="1027.61" y="-660.241" font-family="Times,serif" font-size="14.00">delay</text>
</g>
<!-- x_abs -->
<g id="node11" class="node"><title>x_abs</title>
<ellipse fill="none" stroke="black" cx="921.113" cy="-731.311" rx="31.2258" ry="26.7407"/>
<text text-anchor="middle" x="921.113" y="-735.111" font-family="Times,serif" font-size="14.00">abs</text>
<text text-anchor="middle" x="921.113" y="-720.111" font-family="Times,serif" font-size="14.00">(0&#45;0)</text>
</g>
<!-- x_abs&#45;&gt;error -->
<g id="edge3" class="edge"><title>x_abs&#45;&gt;error</title>
<path fill="none" stroke="black" d="M909.44,-706.2C900.987,-688.739 889.457,-664.923 880.142,-645.68"/>
<polygon fill="black" stroke="black" points="883.277,-644.125 875.769,-636.649 876.977,-647.175 883.277,-644.125"/>
</g>
<!-- error&#45;&gt;error output -->
<g id="edge36" class="edge"><title>error&#45;&gt;error output</title>
<path fill="none" stroke="red" d="M864.113,-584.44C864.113,-565.348 864.113,-539.519 864.113,-520.154"/>
<polygon fill="red" stroke="red" points="867.613,-520.144 864.113,-510.144 860.613,-520.144 867.613,-520.144"/>
<text text-anchor="middle" x="887.613" y="-555.501" font-family="Times,serif" font-size="14.00">75&#45;cycle</text>
<text text-anchor="middle" x="887.613" y="-540.501" font-family="Times,serif" font-size="14.00">delay</text>
</g>
<!-- e2 -->
<g id="node13" class="node"><title>e2</title>
<ellipse fill="none" stroke="black" cx="394.113" cy="-731.311" rx="35.2113" ry="26.7407"/>
<text text-anchor="middle" x="394.113" y="-735.111" font-family="Times,serif" font-size="14.00">*</text>
<text text-anchor="middle" x="394.113" y="-720.111" font-family="Times,serif" font-size="14.00">(0&#45;11)</text>
</g>
<!-- e2&#45;&gt;t2 -->
<g id="edge7" class="edge"><title>e2&#45;&gt;t2</title>
<path fill="none" stroke="black" d="M424.614,-717.372C464.911,-700.113 537.937,-668.259 599.113,-638.441 602.189,-636.941 605.357,-635.359 608.531,-633.745"/>
<polygon fill="black" stroke="black" points="610.14,-636.854 617.424,-629.16 606.932,-630.632 610.14,-636.854"/>
</g>
<!-- e3 -->
<g id="node15" class="node"><title>e3</title>
<ellipse fill="none" stroke="black" cx="394.113" cy="-611.571" rx="40.1111" ry="26.7407"/>
<text text-anchor="middle" x="394.113" y="-615.371" font-family="Times,serif" font-size="14.00">*</text>
<text text-anchor="middle" x="394.113" y="-600.371" font-family="Times,serif" font-size="14.00">(11&#45;22)</text>
</g>
<!-- e2&#45;&gt;e3 -->
<g id="edge9" class="edge"><title>e2&#45;&gt;e3</title>
<path fill="none" stroke="black" d="M394.113,-704.18C394.113,-687.87 394.113,-666.643 394.113,-648.73"/>
<polygon fill="black" stroke="black" points="397.613,-648.628 394.113,-638.628 390.613,-648.628 397.613,-648.628"/>
</g>
<!-- e4 -->
<g id="node16" class="node"><title>e4</title>
<ellipse fill="none" stroke="black" cx="122.113" cy="-611.571" rx="40.1111" ry="26.7407"/>
<text text-anchor="middle" x="122.113" y="-615.371" font-family="Times,serif" font-size="14.00">*</text>
<text text-anchor="middle" x="122.113" y="-600.371" font-family="Times,serif" font-size="14.00">(11&#45;22)</text>
</g>
<!-- e2&#45;&gt;e4 -->
<g id="edge11" class="edge"><title>e2&#45;&gt;e4</title>
<path fill="none" stroke="black" d="M363.267,-717.741C354.463,-713.31 344.968,-708.439 336.113,-704.441 260.732,-670.401 237.493,-672.48 162.113,-638.441 160.715,-637.81 159.302,-637.157 157.883,-636.488"/>
<polygon fill="black" stroke="black" points="159.041,-633.157 148.523,-631.885 155.952,-639.439 159.041,-633.157"/>
</g>
<!-- e2&#45;&gt;e4 -->
<g id="edge12" class="edge"><title>e2&#45;&gt;e4</title>
<path fill="none" stroke="black" d="M369.54,-711.944C364.494,-709.321 359.198,-706.737 354.113,-704.441 278.732,-670.401 255.493,-672.48 180.113,-638.441 175.181,-636.214 170.051,-633.716 164.952,-631.175"/>
<polygon fill="black" stroke="black" points="166.364,-627.968 155.858,-626.602 163.22,-634.222 166.364,-627.968"/>
</g>
<!-- s12 -->
<g id="node17" class="node"><title>s12</title>
<ellipse fill="none" stroke="black" cx="648.113" cy="-491.831" rx="40.1111" ry="26.7407"/>
<text text-anchor="middle" x="648.113" y="-495.631" font-family="Times,serif" font-size="14.00">&#45;</text>
<text text-anchor="middle" x="648.113" y="-480.631" font-family="Times,serif" font-size="14.00">(22&#45;36)</text>
</g>
<!-- t2&#45;&gt;s12 -->
<g id="edge14" class="edge"><title>t2&#45;&gt;s12</title>
<path fill="none" stroke="black" d="M648.113,-584.44C648.113,-568.13 648.113,-546.903 648.113,-528.99"/>
<polygon fill="black" stroke="black" points="651.613,-528.888 648.113,-518.888 644.613,-528.888 651.613,-528.888"/>
</g>
<!-- e3&#45;&gt;t3 -->
<g id="edge17" class="edge"><title>e3&#45;&gt;t3</title>
<path fill="none" stroke="black" d="M398.941,-584.732C402.021,-568.245 406.057,-546.648 409.442,-528.533"/>
<polygon fill="black" stroke="black" points="412.9,-529.082 411.296,-518.609 406.019,-527.796 412.9,-529.082"/>
</g>
<!-- e5 -->
<g id="node18" class="node"><title>e5</title>
<ellipse fill="none" stroke="black" cx="69.1127" cy="-491.831" rx="40.1111" ry="26.7407"/>
<text text-anchor="middle" x="69.1127" y="-495.631" font-family="Times,serif" font-size="14.00">*</text>
<text text-anchor="middle" x="69.1127" y="-480.631" font-family="Times,serif" font-size="14.00">(22&#45;33)</text>
</g>
<!-- e4&#45;&gt;e5 -->
<g id="edge15" class="edge"><title>e4&#45;&gt;e5</title>
<path fill="none" stroke="black" d="M110.873,-585.601C103.214,-568.586 92.9744,-545.84 84.552,-527.129"/>
<polygon fill="black" stroke="black" points="87.6328,-525.446 80.3364,-517.764 81.2497,-528.32 87.6328,-525.446"/>
</g>
<!-- e4&#45;&gt;t4 -->
<g id="edge19" class="edge"><title>e4&#45;&gt;t4</title>
<path fill="none" stroke="black" d="M151.306,-592.944C185.339,-572.395 241.686,-538.373 279.106,-515.779"/>
<polygon fill="black" stroke="black" points="280.968,-518.743 287.72,-510.578 277.35,-512.751 280.968,-518.743"/>
</g>
<!-- s1234 -->
<g id="node23" class="node"><title>s1234</title>
<ellipse fill="none" stroke="black" cx="362.113" cy="-310.35" rx="40.1111" ry="26.7407"/>
<text text-anchor="middle" x="362.113" y="-314.15" font-family="Times,serif" font-size="14.00">+</text>
<text text-anchor="middle" x="362.113" y="-299.15" font-family="Times,serif" font-size="14.00">(47&#45;61)</text>
</g>
<!-- s12&#45;&gt;s1234 -->
<g id="edge25" class="edge"><title>s12&#45;&gt;s1234</title>
<path fill="none" stroke="red" d="M619.38,-472.8C567.238,-440.077 457.092,-370.955 399.298,-334.686"/>
<polygon fill="red" stroke="red" points="401.157,-331.72 390.826,-329.369 397.436,-337.649 401.157,-331.72"/>
<text text-anchor="middle" x="571.613" y="-404.89" font-family="Times,serif" font-size="14.00">11&#45;cycle</text>
<text text-anchor="middle" x="571.613" y="-389.89" font-family="Times,serif" font-size="14.00">delay</text>
</g>
<!-- e5&#45;&gt;t5 -->
<g id="edge23" class="edge"><title>e5&#45;&gt;t5</title>
<path fill="none" stroke="black" d="M92.8113,-469.8C106.261,-457.865 123.261,-442.779 137.799,-429.878"/>
<polygon fill="black" stroke="black" points="140.428,-432.225 145.584,-422.97 135.781,-426.989 140.428,-432.225"/>
</g>
<!-- s34 -->
<g id="node21" class="node"><title>s34</title>
<ellipse fill="none" stroke="black" cx="362.113" cy="-401.09" rx="40.1111" ry="26.7407"/>
<text text-anchor="middle" x="362.113" y="-404.89" font-family="Times,serif" font-size="14.00">&#45;</text>
<text text-anchor="middle" x="362.113" y="-389.89" font-family="Times,serif" font-size="14.00">(33&#45;47)</text>
</g>
<!-- t3&#45;&gt;s34 -->
<g id="edge21" class="edge"><title>t3&#45;&gt;s34</title>
<path fill="none" stroke="black" d="M401.357,-466.582C395.404,-456.8 388.444,-445.362 382.052,-434.857"/>
<polygon fill="black" stroke="black" points="385.039,-433.033 376.851,-426.31 379.059,-436.672 385.039,-433.033"/>
</g>
<!-- t4&#45;&gt;s34 -->
<g id="edge22" class="edge"><title>t4&#45;&gt;s34</title>
<path fill="none" stroke="black" d="M329.648,-466.111C334.426,-456.688 339.956,-445.783 345.083,-435.673"/>
<polygon fill="black" stroke="black" points="348.244,-437.179 349.645,-426.677 342.001,-434.013 348.244,-437.179"/>
</g>
<!-- s34&#45;&gt;s1234 -->
<g id="edge26" class="edge"><title>s34&#45;&gt;s1234</title>
<path fill="none" stroke="black" d="M362.113,-373.945C362.113,-365.641 362.113,-356.305 362.113,-347.429"/>
<polygon fill="black" stroke="black" points="365.613,-347.308 362.113,-337.308 358.613,-347.308 365.613,-347.308"/>
</g>
<!-- _ln -->
<g id="node24" class="node"><title>_ln</title>
<ellipse fill="none" stroke="black" cx="169.113" cy="-219.61" rx="40.1111" ry="26.7407"/>
<text text-anchor="middle" x="169.113" y="-223.41" font-family="Times,serif" font-size="14.00">+</text>
<text text-anchor="middle" x="169.113" y="-208.41" font-family="Times,serif" font-size="14.00">(61&#45;75)</text>
</g>
<!-- t5&#45;&gt;_ln -->
<g id="edge28" class="edge"><title>t5&#45;&gt;_ln</title>
<path fill="none" stroke="red" d="M169.113,-373.992C169.113,-343.154 169.113,-291.659 169.113,-256.936"/>
<polygon fill="red" stroke="red" points="172.613,-256.74 169.113,-246.74 165.613,-256.74 172.613,-256.74"/>
<text text-anchor="middle" x="192.613" y="-314.15" font-family="Times,serif" font-size="14.00">17&#45;cycle</text>
<text text-anchor="middle" x="192.613" y="-299.15" font-family="Times,serif" font-size="14.00">delay</text>
</g>
<!-- s1234&#45;&gt;_ln -->
<g id="edge27" class="edge"><title>s1234&#45;&gt;_ln</title>
<path fill="none" stroke="black" d="M329.373,-294.297C296.695,-279.272 246.361,-256.129 210.836,-239.794"/>
<polygon fill="black" stroke="black" points="212.238,-236.587 201.69,-235.589 209.314,-242.947 212.238,-236.587"/>
</g>
<!-- _ln&#45;&gt;ln -->
<g id="edge33" class="edge"><title>_ln&#45;&gt;ln</title>
<path fill="none" stroke="black" d="M153.55,-194.5C142.176,-176.88 126.626,-152.789 114.146,-133.456"/>
<polygon fill="black" stroke="black" points="117.019,-131.452 108.655,-124.948 111.138,-135.248 117.019,-131.452"/>
</g>
<!-- exact0&#45;&gt;ln -->
<g id="edge31" class="edge"><title>exact0&#45;&gt;ln</title>
<path fill="none" stroke="red" d="M25.9612,-192.941C24.272,-178.055 24.4662,-159.412 32.1127,-144.74 36.815,-135.717 44.3148,-128.12 52.4708,-121.917"/>
<polygon fill="red" stroke="red" points="54.5337,-124.746 60.7661,-116.178 50.551,-118.989 54.5337,-124.746"/>
<text text-anchor="middle" x="55.6127" y="-163.54" font-family="Times,serif" font-size="14.00">75&#45;cycle</text>
<text text-anchor="middle" x="55.6127" y="-148.54" font-family="Times,serif" font-size="14.00">delay</text>
</g>
<!-- ln&#45;&gt;ln output -->
<g id="edge34" class="edge"><title>ln&#45;&gt;ln output</title>
<path fill="none" stroke="black" d="M93.1127,-72.7176C93.1127,-64.2726 93.1127,-54.8903 93.1127,-46.3604"/>
<polygon fill="black" stroke="black" points="96.6128,-46.1464 93.1127,-36.1464 89.6128,-46.1464 96.6128,-46.1464"/>
</g>
<!-- start -->
<g id="node27" class="node"><title>start</title>
<ellipse fill="none" stroke="black" cx="1004.11" cy="-813.181" rx="27" ry="18"/>
<text text-anchor="middle" x="1004.11" y="-809.481" font-family="Times,serif" font-size="14.00">start</text>
</g>
<!-- start&#45;&gt;done -->
<g id="edge1" class="edge"><title>start&#45;&gt;done</title>
<path fill="none" stroke="black" d="M1004.11,-794.85C1004.11,-787.117 1004.11,-777.697 1004.11,-768.539"/>
<polygon fill="black" stroke="black" points="1007.61,-768.415 1004.11,-758.415 1000.61,-768.415 1007.61,-768.415"/>
</g>
<!-- x -->
<g id="node28" class="node"><title>x</title>
<ellipse fill="none" stroke="black" cx="394.113" cy="-813.181" rx="27" ry="18"/>
<text text-anchor="middle" x="394.113" y="-809.481" font-family="Times,serif" font-size="14.00">x</text>
</g>
<!-- x&#45;&gt;x_abs -->
<g id="edge2" class="edge"><title>x&#45;&gt;x_abs</title>
<path fill="none" stroke="black" d="M420.975,-810.88C510.094,-806.303 795.198,-789.506 881.113,-758.181 883.808,-757.198 886.507,-756.007 889.16,-754.681"/>
<polygon fill="black" stroke="black" points="890.915,-757.71 897.926,-749.767 887.491,-751.604 890.915,-757.71"/>
</g>
<!-- x&#45;&gt;e2 -->
<g id="edge5" class="edge"><title>x&#45;&gt;e2</title>
<path fill="none" stroke="black" d="M388.477,-795.242C387.606,-787.306 387.246,-777.532 387.396,-768.073"/>
<polygon fill="black" stroke="black" points="390.895,-768.155 387.758,-758.036 383.899,-767.903 390.895,-768.155"/>
</g>
<!-- x&#45;&gt;e2 -->
<g id="edge6" class="edge"><title>x&#45;&gt;e2</title>
<path fill="none" stroke="black" d="M399.749,-795.242C400.619,-787.306 400.979,-777.532 400.83,-768.073"/>
<polygon fill="black" stroke="black" points="404.326,-767.903 400.468,-758.036 397.331,-768.155 404.326,-767.903"/>
</g>
<!-- x&#45;&gt;e3 -->
<g id="edge10" class="edge"><title>x&#45;&gt;e3</title>
<path fill="none" stroke="red" d="M369.796,-805.299C347.983,-797.689 317.293,-783.085 303.113,-758.181 291.294,-737.425 294.025,-726.529 303.113,-704.441 314.348,-677.132 338.063,-653.632 358.467,-637.236"/>
<polygon fill="red" stroke="red" points="360.629,-639.989 366.38,-631.09 356.335,-634.46 360.629,-639.989"/>
<text text-anchor="middle" x="326.613" y="-735.111" font-family="Times,serif" font-size="14.00">11&#45;cycle</text>
<text text-anchor="middle" x="326.613" y="-720.111" font-family="Times,serif" font-size="14.00">delay</text>
</g>
<!-- x&#45;&gt;s12 -->
<g id="edge13" class="edge"><title>x&#45;&gt;s12</title>
<path fill="none" stroke="red" d="M421.211,-811.604C488.802,-809.538 661.946,-800.168 697.113,-758.181 753.387,-690.991 701.241,-580.29 669.088,-525.558"/>
<polygon fill="red" stroke="red" points="672.072,-523.729 663.926,-516.955 666.07,-527.331 672.072,-523.729"/>
<text text-anchor="middle" x="745.613" y="-675.241" font-family="Times,serif" font-size="14.00">22&#45;cycle</text>
<text text-anchor="middle" x="745.613" y="-660.241" font-family="Times,serif" font-size="14.00">delay</text>
</g>
<!-- x&#45;&gt;e5 -->
<g id="edge16" class="edge"><title>x&#45;&gt;e5</title>
<path fill="none" stroke="red" d="M368.428,-807.427C304.666,-794.084 139.511,-749.726 73.1127,-638.441 53.3219,-605.271 55.7224,-559.85 60.8793,-528.604"/>
<polygon fill="red" stroke="red" points="64.3548,-529.054 62.7058,-518.588 57.4684,-527.798 64.3548,-529.054"/>
<text text-anchor="middle" x="133.613" y="-675.241" font-family="Times,serif" font-size="14.00">22&#45;cycle</text>
<text text-anchor="middle" x="133.613" y="-660.241" font-family="Times,serif" font-size="14.00">delay</text>
</g>
<!-- x&#45;&gt;exact0 -->
<g id="edge29" class="edge"><title>x&#45;&gt;exact0</title>
<path fill="none" stroke="black" d="M367.1,-812.45C278.31,-812.62 1.1127,-807.156 1.1127,-732.311 1.1127,-732.311 1.1127,-732.311 1.1127,-309.35 1.1127,-290.361 7.35394,-270.233 14.143,-253.955"/>
<polygon fill="black" stroke="black" points="17.5421,-254.923 18.39,-244.362 11.1413,-252.089 17.5421,-254.923"/>
</g>
</g>
</svg>
