<?xml version="1.0" encoding="UTF-8" standalone="no"?>
<!DOCTYPE svg PUBLIC "-//W3C//DTD SVG 1.1//EN"
 "http://www.w3.org/Graphics/SVG/1.1/DTD/svg11.dtd">
<!-- Generated by graphviz version 2.38.0 (20140413.2041)
 -->
<!-- Title: %3 Pages: 1 -->
<svg width="1012pt" height="719pt"
 viewBox="0.00 0.00 1012.32 719.44" xmlns="http://www.w3.org/2000/svg" xmlns:xlink="http://www.w3.org/1999/xlink">
<g id="graph0" class="graph" transform="scale(1 1) rotate(0) translate(4 715.441)">
<title>%3</title>
<polygon fill="white" stroke="none" points="-4,4 -4,-715.441 1008.32,-715.441 1008.32,4 -4,4"/>
<!-- ONE_HALF -->
<g id="node1" class="node"><title>ONE_HALF</title>
<ellipse fill="none" stroke="black" cx="99.3157" cy="-611.571" rx="64.1938" ry="26.7407"/>
<text text-anchor="middle" x="99.3157" y="-615.371" font-family="Times,serif" font-size="14.00">`ONE_HALF</text>
<text text-anchor="middle" x="99.3157" y="-600.371" font-family="Times,serif" font-size="14.00">32&#39;h3f000000</text>
</g>
<!-- t2 -->
<g id="node13" class="node"><title>t2</title>
<ellipse fill="none" stroke="black" cx="75.3157" cy="-491.831" rx="40.1111" ry="26.7407"/>
<text text-anchor="middle" x="75.3157" y="-495.631" font-family="Times,serif" font-size="14.00">*</text>
<text text-anchor="middle" x="75.3157" y="-480.631" font-family="Times,serif" font-size="14.00">(11&#45;22)</text>
</g>
<!-- ONE_HALF&#45;&gt;t2 -->
<g id="edge8" class="edge"><title>ONE_HALF&#45;&gt;t2</title>
<path fill="none" stroke="black" d="M94.0488,-584.732C90.6881,-568.245 86.2857,-546.648 82.5932,-528.533"/>
<polygon fill="black" stroke="black" points="85.9972,-527.708 80.5703,-518.609 79.1382,-529.106 85.9972,-527.708"/>
</g>
<!-- ONE_THIRD -->
<g id="node2" class="node"><title>ONE_THIRD</title>
<ellipse fill="none" stroke="black" cx="202.316" cy="-491.831" rx="68.6788" ry="26.7407"/>
<text text-anchor="middle" x="202.316" y="-495.631" font-family="Times,serif" font-size="14.00">`ONE_THIRD</text>
<text text-anchor="middle" x="202.316" y="-480.631" font-family="Times,serif" font-size="14.00">32&#39;h3eaaaaab</text>
</g>
<!-- t3 -->
<g id="node18" class="node"><title>t3</title>
<ellipse fill="none" stroke="black" cx="329.316" cy="-372.09" rx="40.1111" ry="26.7407"/>
<text text-anchor="middle" x="329.316" y="-375.89" font-family="Times,serif" font-size="14.00">*</text>
<text text-anchor="middle" x="329.316" y="-360.89" font-family="Times,serif" font-size="14.00">(22&#45;33)</text>
</g>
<!-- ONE_THIRD&#45;&gt;t3 -->
<g id="edge18" class="edge"><title>ONE_THIRD&#45;&gt;t3</title>
<path fill="none" stroke="black" d="M228.322,-466.72C248.746,-447.785 277.232,-421.377 298.746,-401.431"/>
<polygon fill="black" stroke="black" points="301.375,-403.767 306.328,-394.402 296.615,-398.634 301.375,-403.767"/>
</g>
<!-- ONE_FOURTH -->
<g id="node3" class="node"><title>ONE_FOURTH</title>
<ellipse fill="none" stroke="black" cx="465.316" cy="-491.831" rx="77.5641" ry="26.7407"/>
<text text-anchor="middle" x="465.316" y="-495.631" font-family="Times,serif" font-size="14.00">`ONE_FOURTH</text>
<text text-anchor="middle" x="465.316" y="-480.631" font-family="Times,serif" font-size="14.00">32&#39;h3e800000</text>
</g>
<!-- t4 -->
<g id="node19" class="node"><title>t4</title>
<ellipse fill="none" stroke="black" cx="465.316" cy="-372.09" rx="40.1111" ry="26.7407"/>
<text text-anchor="middle" x="465.316" y="-375.89" font-family="Times,serif" font-size="14.00">*</text>
<text text-anchor="middle" x="465.316" y="-360.89" font-family="Times,serif" font-size="14.00">(22&#45;33)</text>
</g>
<!-- ONE_FOURTH&#45;&gt;t4 -->
<g id="edge20" class="edge"><title>ONE_FOURTH&#45;&gt;t4</title>
<path fill="none" stroke="black" d="M465.316,-464.7C465.316,-448.39 465.316,-427.163 465.316,-409.25"/>
<polygon fill="black" stroke="black" points="468.816,-409.148 465.316,-399.148 461.816,-409.148 468.816,-409.148"/>
</g>
<!-- ONE_FIFTH -->
<g id="node4" class="node"><title>ONE_FIFTH</title>
<ellipse fill="none" stroke="black" cx="725.316" cy="-372.09" rx="65.5227" ry="26.7407"/>
<text text-anchor="middle" x="725.316" y="-375.89" font-family="Times,serif" font-size="14.00">`ONE_FIFTH</text>
<text text-anchor="middle" x="725.316" y="-360.89" font-family="Times,serif" font-size="14.00">32&#39;h3e4ccccd</text>
</g>
<!-- t5 -->
<g id="node21" class="node"><title>t5</title>
<ellipse fill="none" stroke="black" cx="601.316" cy="-281.35" rx="40.1111" ry="26.7407"/>
<text text-anchor="middle" x="601.316" y="-285.15" font-family="Times,serif" font-size="14.00">*</text>
<text text-anchor="middle" x="601.316" y="-270.15" font-family="Times,serif" font-size="14.00">(33&#45;44)</text>
</g>
<!-- ONE_FIFTH&#45;&gt;t5 -->
<g id="edge24" class="edge"><title>ONE_FIFTH&#45;&gt;t5</title>
<path fill="none" stroke="black" d="M693.704,-348.468C676.315,-336.023 654.689,-320.547 636.732,-307.696"/>
<polygon fill="black" stroke="black" points="638.416,-304.597 628.247,-301.624 634.342,-310.29 638.416,-304.597"/>
</g>
<!-- ONE -->
<g id="node5" class="node"><title>ONE</title>
<ellipse fill="none" stroke="black" cx="761.316" cy="-611.571" rx="64.1938" ry="26.7407"/>
<text text-anchor="middle" x="761.316" y="-615.371" font-family="Times,serif" font-size="14.00">`ONE</text>
<text text-anchor="middle" x="761.316" y="-600.371" font-family="Times,serif" font-size="14.00">32&#39;h3f800000</text>
</g>
<!-- error -->
<g id="node11" class="node"><title>error</title>
<ellipse fill="none" stroke="black" cx="847.316" cy="-491.831" rx="31.2258" ry="26.7407"/>
<text text-anchor="middle" x="847.316" y="-495.631" font-family="Times,serif" font-size="14.00">gt</text>
<text text-anchor="middle" x="847.316" y="-480.631" font-family="Times,serif" font-size="14.00">(0&#45;0)</text>
</g>
<!-- ONE&#45;&gt;error -->
<g id="edge4" class="edge"><title>ONE&#45;&gt;error</title>
<path fill="none" stroke="black" d="M779.554,-585.601C792.869,-567.373 810.988,-542.566 825.14,-523.191"/>
<polygon fill="black" stroke="black" points="828.061,-525.125 831.133,-514.985 822.409,-520.996 828.061,-525.125"/>
</g>
<!-- ln output -->
<g id="node6" class="node"><title>ln output</title>
<ellipse fill="none" stroke="black" cx="478.316" cy="-18" rx="27" ry="18"/>
<text text-anchor="middle" x="478.316" y="-14.3" font-family="Times,serif" font-size="14.00">ln</text>
</g>
<!-- done output -->
<g id="node7" class="node"><title>done output</title>
<ellipse fill="none" stroke="black" cx="957.316" cy="-491.831" rx="27.8951" ry="18"/>
<text text-anchor="middle" x="957.316" y="-488.131" font-family="Times,serif" font-size="14.00">done</text>
</g>
<!-- error output -->
<g id="node8" class="node"><title>error output</title>
<ellipse fill="none" stroke="black" cx="847.316" cy="-372.09" rx="27.8951" ry="18"/>
<text text-anchor="middle" x="847.316" y="-368.39" font-family="Times,serif" font-size="14.00">error</text>
</g>
<!-- done -->
<g id="node9" class="node"><title>done</title>
<ellipse fill="none" stroke="black" cx="957.316" cy="-611.571" rx="33.8824" ry="26.7407"/>
<text text-anchor="middle" x="957.316" y="-615.371" font-family="Times,serif" font-size="14.00">buf32</text>
<text text-anchor="middle" x="957.316" y="-600.371" font-family="Times,serif" font-size="14.00">(0&#45;0)</text>
</g>
<!-- done&#45;&gt;done output -->
<g id="edge30" class="edge"><title>done&#45;&gt;done output</title>
<path fill="none" stroke="red" d="M957.316,-584.44C957.316,-565.348 957.316,-539.519 957.316,-520.154"/>
<polygon fill="red" stroke="red" points="960.816,-520.144 957.316,-510.144 953.816,-520.144 960.816,-520.144"/>
<text text-anchor="middle" x="980.816" y="-555.501" font-family="Times,serif" font-size="14.00">75&#45;cycle</text>
<text text-anchor="middle" x="980.816" y="-540.501" font-family="Times,serif" font-size="14.00">delay</text>
</g>
<!-- x_abs -->
<g id="node10" class="node"><title>x_abs</title>
<ellipse fill="none" stroke="black" cx="874.316" cy="-611.571" rx="31.2258" ry="26.7407"/>
<text text-anchor="middle" x="874.316" y="-615.371" font-family="Times,serif" font-size="14.00">abs</text>
<text text-anchor="middle" x="874.316" y="-600.371" font-family="Times,serif" font-size="14.00">(0&#45;0)</text>
</g>
<!-- x_abs&#45;&gt;error -->
<g id="edge3" class="edge"><title>x_abs&#45;&gt;error</title>
<path fill="none" stroke="black" d="M868.457,-585.023C864.654,-568.437 859.643,-546.589 855.455,-528.325"/>
<polygon fill="black" stroke="black" points="858.81,-527.293 853.163,-518.329 851.987,-528.858 858.81,-527.293"/>
</g>
<!-- error&#45;&gt;error output -->
<g id="edge31" class="edge"><title>error&#45;&gt;error output</title>
<path fill="none" stroke="red" d="M847.316,-464.7C847.316,-445.608 847.316,-419.779 847.316,-400.414"/>
<polygon fill="red" stroke="red" points="850.816,-400.404 847.316,-390.404 843.816,-400.404 850.816,-400.404"/>
<text text-anchor="middle" x="870.816" y="-435.76" font-family="Times,serif" font-size="14.00">75&#45;cycle</text>
<text text-anchor="middle" x="870.816" y="-420.76" font-family="Times,serif" font-size="14.00">delay</text>
</g>
<!-- e2 -->
<g id="node12" class="node"><title>e2</title>
<ellipse fill="none" stroke="black" cx="426.316" cy="-611.571" rx="35.2113" ry="26.7407"/>
<text text-anchor="middle" x="426.316" y="-615.371" font-family="Times,serif" font-size="14.00">*</text>
<text text-anchor="middle" x="426.316" y="-600.371" font-family="Times,serif" font-size="14.00">(0&#45;11)</text>
</g>
<!-- e2&#45;&gt;t2 -->
<g id="edge7" class="edge"><title>e2&#45;&gt;t2</title>
<path fill="none" stroke="black" d="M392.523,-602.537C335.914,-588.586 218.827,-557.609 124.316,-518.701 121.105,-517.379 117.826,-515.915 114.561,-514.377"/>
<polygon fill="black" stroke="black" points="115.984,-511.176 105.467,-509.896 112.89,-517.456 115.984,-511.176"/>
</g>
<!-- e3 -->
<g id="node14" class="node"><title>e3</title>
<ellipse fill="none" stroke="black" cx="329.316" cy="-491.831" rx="40.1111" ry="26.7407"/>
<text text-anchor="middle" x="329.316" y="-495.631" font-family="Times,serif" font-size="14.00">*</text>
<text text-anchor="middle" x="329.316" y="-480.631" font-family="Times,serif" font-size="14.00">(11&#45;22)</text>
</g>
<!-- e2&#45;&gt;e3 -->
<g id="edge9" class="edge"><title>e2&#45;&gt;e3</title>
<path fill="none" stroke="black" d="M408.071,-588.425C392.955,-570.077 371.31,-543.804 354.536,-523.444"/>
<polygon fill="black" stroke="black" points="357.2,-521.173 348.14,-515.68 351.798,-525.624 357.2,-521.173"/>
</g>
<!-- e4 -->
<g id="node15" class="node"><title>e4</title>
<ellipse fill="none" stroke="black" cx="601.316" cy="-491.831" rx="40.1111" ry="26.7407"/>
<text text-anchor="middle" x="601.316" y="-495.631" font-family="Times,serif" font-size="14.00">*</text>
<text text-anchor="middle" x="601.316" y="-480.631" font-family="Times,serif" font-size="14.00">(11&#45;22)</text>
</g>
<!-- e2&#45;&gt;e4 -->
<g id="edge11" class="edge"><title>e2&#45;&gt;e4</title>
<path fill="none" stroke="black" d="M449.681,-591.392C478.62,-570.547 527.975,-537.275 562.572,-515.242"/>
<polygon fill="black" stroke="black" points="564.445,-518.198 571.028,-509.896 560.705,-512.281 564.445,-518.198"/>
</g>
<!-- e2&#45;&gt;e4 -->
<g id="edge12" class="edge"><title>e2&#45;&gt;e4</title>
<path fill="none" stroke="black" d="M454.314,-594.936C485.355,-575.584 535.086,-542.342 568.058,-519.059"/>
<polygon fill="black" stroke="black" points="570.352,-521.723 576.47,-513.073 566.293,-516.019 570.352,-521.723"/>
</g>
<!-- s12 -->
<g id="node16" class="node"><title>s12</title>
<ellipse fill="none" stroke="black" cx="75.3157" cy="-372.09" rx="40.1111" ry="26.7407"/>
<text text-anchor="middle" x="75.3157" y="-375.89" font-family="Times,serif" font-size="14.00">&#45;</text>
<text text-anchor="middle" x="75.3157" y="-360.89" font-family="Times,serif" font-size="14.00">(22&#45;36)</text>
</g>
<!-- t2&#45;&gt;s12 -->
<g id="edge14" class="edge"><title>t2&#45;&gt;s12</title>
<path fill="none" stroke="black" d="M75.3157,-464.7C75.3157,-448.39 75.3157,-427.163 75.3157,-409.25"/>
<polygon fill="black" stroke="black" points="78.8158,-409.148 75.3157,-399.148 71.8158,-409.148 78.8158,-409.148"/>
</g>
<!-- e3&#45;&gt;t3 -->
<g id="edge17" class="edge"><title>e3&#45;&gt;t3</title>
<path fill="none" stroke="black" d="M329.316,-464.7C329.316,-448.39 329.316,-427.163 329.316,-409.25"/>
<polygon fill="black" stroke="black" points="332.816,-409.148 329.316,-399.148 325.816,-409.148 332.816,-409.148"/>
</g>
<!-- e5 -->
<g id="node17" class="node"><title>e5</title>
<ellipse fill="none" stroke="black" cx="601.316" cy="-372.09" rx="40.1111" ry="26.7407"/>
<text text-anchor="middle" x="601.316" y="-375.89" font-family="Times,serif" font-size="14.00">*</text>
<text text-anchor="middle" x="601.316" y="-360.89" font-family="Times,serif" font-size="14.00">(22&#45;33)</text>
</g>
<!-- e4&#45;&gt;e5 -->
<g id="edge15" class="edge"><title>e4&#45;&gt;e5</title>
<path fill="none" stroke="black" d="M601.316,-464.7C601.316,-448.39 601.316,-427.163 601.316,-409.25"/>
<polygon fill="black" stroke="black" points="604.816,-409.148 601.316,-399.148 597.816,-409.148 604.816,-409.148"/>
</g>
<!-- e4&#45;&gt;t4 -->
<g id="edge19" class="edge"><title>e4&#45;&gt;t4</title>
<path fill="none" stroke="black" d="M577.315,-470.052C555.021,-450.751 521.669,-421.877 497.157,-400.656"/>
<polygon fill="black" stroke="black" points="499.385,-397.956 489.534,-394.057 494.804,-403.249 499.385,-397.956"/>
</g>
<!-- s1234 -->
<g id="node22" class="node"><title>s1234</title>
<ellipse fill="none" stroke="black" cx="369.316" cy="-190.61" rx="40.1111" ry="26.7407"/>
<text text-anchor="middle" x="369.316" y="-194.41" font-family="Times,serif" font-size="14.00">+</text>
<text text-anchor="middle" x="369.316" y="-179.41" font-family="Times,serif" font-size="14.00">(47&#45;61)</text>
</g>
<!-- s12&#45;&gt;s1234 -->
<g id="edge25" class="edge"><title>s12&#45;&gt;s1234</title>
<path fill="none" stroke="red" d="M104.31,-353.39C157.774,-320.752 271.851,-251.11 331.383,-214.767"/>
<polygon fill="red" stroke="red" points="333.392,-217.641 340.104,-209.443 329.745,-211.667 333.392,-217.641"/>
<text text-anchor="middle" x="289.816" y="-285.15" font-family="Times,serif" font-size="14.00">11&#45;cycle</text>
<text text-anchor="middle" x="289.816" y="-270.15" font-family="Times,serif" font-size="14.00">delay</text>
</g>
<!-- e5&#45;&gt;t5 -->
<g id="edge23" class="edge"><title>e5&#45;&gt;t5</title>
<path fill="none" stroke="black" d="M601.316,-344.945C601.316,-336.641 601.316,-327.305 601.316,-318.429"/>
<polygon fill="black" stroke="black" points="604.816,-318.308 601.316,-308.308 597.816,-318.308 604.816,-318.308"/>
</g>
<!-- s34 -->
<g id="node20" class="node"><title>s34</title>
<ellipse fill="none" stroke="black" cx="369.316" cy="-281.35" rx="40.1111" ry="26.7407"/>
<text text-anchor="middle" x="369.316" y="-285.15" font-family="Times,serif" font-size="14.00">&#45;</text>
<text text-anchor="middle" x="369.316" y="-270.15" font-family="Times,serif" font-size="14.00">(33&#45;47)</text>
</g>
<!-- t3&#45;&gt;s34 -->
<g id="edge21" class="edge"><title>t3&#45;&gt;s34</title>
<path fill="none" stroke="black" d="M340.671,-345.898C344.759,-336.829 349.444,-326.435 353.825,-316.717"/>
<polygon fill="black" stroke="black" points="357.152,-317.853 358.07,-307.298 350.77,-314.976 357.152,-317.853"/>
</g>
<!-- t4&#45;&gt;s34 -->
<g id="edge22" class="edge"><title>t4&#45;&gt;s34</title>
<path fill="none" stroke="black" d="M442.077,-349.609C429.342,-337.837 413.404,-323.104 399.694,-310.431"/>
<polygon fill="black" stroke="black" points="402.06,-307.852 392.341,-303.634 397.308,-312.992 402.06,-307.852"/>
</g>
<!-- s34&#45;&gt;s1234 -->
<g id="edge26" class="edge"><title>s34&#45;&gt;s1234</title>
<path fill="none" stroke="black" d="M369.316,-254.205C369.316,-245.901 369.316,-236.565 369.316,-227.688"/>
<polygon fill="black" stroke="black" points="372.816,-227.568 369.316,-217.568 365.816,-227.568 372.816,-227.568"/>
</g>
<!-- ln -->
<g id="node23" class="node"><title>ln</title>
<ellipse fill="none" stroke="black" cx="478.316" cy="-99.8701" rx="40.1111" ry="26.7407"/>
<text text-anchor="middle" x="478.316" y="-103.67" font-family="Times,serif" font-size="14.00">+</text>
<text text-anchor="middle" x="478.316" y="-88.6701" font-family="Times,serif" font-size="14.00">(61&#45;75)</text>
</g>
<!-- t5&#45;&gt;ln -->
<g id="edge28" class="edge"><title>t5&#45;&gt;ln</title>
<path fill="none" stroke="red" d="M584.982,-256.517C563.234,-224.783 524.693,-168.543 500.377,-133.062"/>
<polygon fill="red" stroke="red" points="503.061,-130.787 494.521,-124.516 497.287,-134.744 503.061,-130.787"/>
<text text-anchor="middle" x="581.816" y="-194.41" font-family="Times,serif" font-size="14.00">17&#45;cycle</text>
<text text-anchor="middle" x="581.816" y="-179.41" font-family="Times,serif" font-size="14.00">delay</text>
</g>
<!-- s1234&#45;&gt;ln -->
<g id="edge27" class="edge"><title>s1234&#45;&gt;ln</title>
<path fill="none" stroke="black" d="M394.322,-169.251C409.554,-156.851 429.185,-140.869 445.637,-127.475"/>
<polygon fill="black" stroke="black" points="447.88,-130.162 453.425,-121.134 443.461,-124.733 447.88,-130.162"/>
</g>
<!-- ln&#45;&gt;ln output -->
<g id="edge29" class="edge"><title>ln&#45;&gt;ln output</title>
<path fill="none" stroke="black" d="M478.316,-72.7176C478.316,-64.2726 478.316,-54.8903 478.316,-46.3604"/>
<polygon fill="black" stroke="black" points="481.816,-46.1464 478.316,-36.1464 474.816,-46.1464 481.816,-46.1464"/>
</g>
<!-- start -->
<g id="node24" class="node"><title>start</title>
<ellipse fill="none" stroke="black" cx="957.316" cy="-693.441" rx="27" ry="18"/>
<text text-anchor="middle" x="957.316" y="-689.741" font-family="Times,serif" font-size="14.00">start</text>
</g>
<!-- start&#45;&gt;done -->
<g id="edge1" class="edge"><title>start&#45;&gt;done</title>
<path fill="none" stroke="black" d="M957.316,-675.11C957.316,-667.376 957.316,-657.957 957.316,-648.799"/>
<polygon fill="black" stroke="black" points="960.816,-648.675 957.316,-638.675 953.816,-648.675 960.816,-648.675"/>
</g>
<!-- x -->
<g id="node25" class="node"><title>x</title>
<ellipse fill="none" stroke="black" cx="479.316" cy="-693.441" rx="27" ry="18"/>
<text text-anchor="middle" x="479.316" y="-689.741" font-family="Times,serif" font-size="14.00">x</text>
</g>
<!-- x&#45;&gt;x_abs -->
<g id="edge2" class="edge"><title>x&#45;&gt;x_abs</title>
<path fill="none" stroke="black" d="M506.566,-692.156C567.393,-690.704 718.029,-682.546 834.316,-638.441 836.998,-637.423 839.688,-636.207 842.334,-634.864"/>
<polygon fill="black" stroke="black" points="844.104,-637.883 851.087,-629.915 840.659,-631.79 844.104,-637.883"/>
</g>
<!-- x&#45;&gt;e2 -->
<g id="edge5" class="edge"><title>x&#45;&gt;e2</title>
<path fill="none" stroke="black" d="M464.524,-678.162C457.427,-669.239 449.088,-657.354 441.927,-646.154"/>
<polygon fill="black" stroke="black" points="444.732,-644.036 436.483,-637.387 438.785,-647.729 444.732,-644.036"/>
</g>
<!-- x&#45;&gt;e2 -->
<g id="edge6" class="edge"><title>x&#45;&gt;e2</title>
<path fill="none" stroke="black" d="M473.712,-675.502C468.335,-665.796 460.371,-653.34 452.435,-642.075"/>
<polygon fill="black" stroke="black" points="455.114,-639.806 446.415,-633.758 449.443,-643.911 455.114,-639.806"/>
</g>
<!-- x&#45;&gt;e3 -->
<g id="edge10" class="edge"><title>x&#45;&gt;e3</title>
<path fill="none" stroke="red" d="M482.415,-675.271C485.546,-652.669 487.738,-612.547 470.316,-584.701 458.03,-565.064 406.871,-534.508 369.706,-514.092"/>
<polygon fill="red" stroke="red" points="371.048,-510.838 360.591,-509.133 367.703,-516.987 371.048,-510.838"/>
<text text-anchor="middle" x="508.816" y="-615.371" font-family="Times,serif" font-size="14.00">11&#45;cycle</text>
<text text-anchor="middle" x="508.816" y="-600.371" font-family="Times,serif" font-size="14.00">delay</text>
</g>
<!-- x&#45;&gt;s12 -->
<g id="edge13" class="edge"><title>x&#45;&gt;s12</title>
<path fill="none" stroke="red" d="M452.322,-691.27C359.091,-686.955 54.7777,-670.497 26.3157,-638.441 -32.0213,-572.737 21.425,-460.875 54.1724,-405.759"/>
<polygon fill="red" stroke="red" points="57.2315,-407.464 59.4263,-397.099 51.2468,-403.833 57.2315,-407.464"/>
<text text-anchor="middle" x="26.8157" y="-555.501" font-family="Times,serif" font-size="14.00">22&#45;cycle</text>
<text text-anchor="middle" x="26.8157" y="-540.501" font-family="Times,serif" font-size="14.00">delay</text>
</g>
<!-- x&#45;&gt;e5 -->
<g id="edge16" class="edge"><title>x&#45;&gt;e5</title>
<path fill="none" stroke="red" d="M498.596,-680.6C536.495,-656.025 619.672,-595.329 650.316,-518.701 665.775,-480.043 644.165,-434.393 624.943,-404.649"/>
<polygon fill="red" stroke="red" points="627.838,-402.681 619.359,-396.328 622.025,-406.582 627.838,-402.681"/>
<text text-anchor="middle" x="665.816" y="-555.501" font-family="Times,serif" font-size="14.00">22&#45;cycle</text>
<text text-anchor="middle" x="665.816" y="-540.501" font-family="Times,serif" font-size="14.00">delay</text>
</g>
</g>
</svg>
