<?xml version="1.0" encoding="UTF-8" standalone="no"?>
<!DOCTYPE svg PUBLIC "-//W3C//DTD SVG 1.1//EN"
 "http://www.w3.org/Graphics/SVG/1.1/DTD/svg11.dtd">
<!-- Generated by graphviz version 2.38.0 (20140413.2041)
 -->
<!-- Title: %3 Pages: 1 -->
<svg width="1042pt" height="839pt"
 viewBox="0.00 0.00 1042.11 839.18" xmlns="http://www.w3.org/2000/svg" xmlns:xlink="http://www.w3.org/1999/xlink">
<g id="graph0" class="graph" transform="scale(1 1) rotate(0) translate(4 835.181)">
<title>%3</title>
<polygon fill="white" stroke="none" points="-4,4 -4,-835.181 1038.11,-835.181 1038.11,4 -4,4"/>
<!-- ONE_FOURTH -->
<g id="node1" class="node"><title>ONE_FOURTH</title>
<ellipse fill="none" stroke="black" cx="261.113" cy="-611.571" rx="77.5641" ry="26.7407"/>
<text text-anchor="middle" x="261.113" y="-615.371" font-family="Times,serif" font-size="14.00">`ONE_FOURTH</text>
<text text-anchor="middle" x="261.113" y="-600.371" font-family="Times,serif" font-size="14.00">32&#39;h3e800000</text>
</g>
<!-- t4 -->
<g id="node20" class="node"><title>t4</title>
<ellipse fill="none" stroke="black" cx="330.113" cy="-491.831" rx="40.1111" ry="26.7407"/>
<text text-anchor="middle" x="330.113" y="-495.631" font-family="Times,serif" font-size="14.00">*</text>
<text text-anchor="middle" x="330.113" y="-480.631" font-family="Times,serif" font-size="14.00">(10&#45;15)</text>
</g>
<!-- ONE_FOURTH&#45;&gt;t4 -->
<g id="edge20" class="edge"><title>ONE_FOURTH&#45;&gt;t4</title>
<path fill="none" stroke="black" d="M276.085,-585.023C286.235,-567.702 299.748,-544.644 310.721,-525.92"/>
<polygon fill="black" stroke="black" points="313.841,-527.519 315.877,-517.121 307.801,-523.979 313.841,-527.519"/>
</g>
<!-- ONE -->
<g id="node2" class="node"><title>ONE</title>
<ellipse fill="none" stroke="black" cx="791.113" cy="-731.311" rx="64.1938" ry="26.7407"/>
<text text-anchor="middle" x="791.113" y="-735.111" font-family="Times,serif" font-size="14.00">`ONE</text>
<text text-anchor="middle" x="791.113" y="-720.111" font-family="Times,serif" font-size="14.00">32&#39;h3f800000</text>
</g>
<!-- error -->
<g id="node12" class="node"><title>error</title>
<ellipse fill="none" stroke="black" cx="847.113" cy="-611.571" rx="31.2258" ry="26.7407"/>
<text text-anchor="middle" x="847.113" y="-615.371" font-family="Times,serif" font-size="14.00">gt</text>
<text text-anchor="middle" x="847.113" y="-600.371" font-family="Times,serif" font-size="14.00">(0&#45;0)</text>
</g>
<!-- ONE&#45;&gt;error -->
<g id="edge4" class="edge"><title>ONE&#45;&gt;error</title>
<path fill="none" stroke="black" d="M803.264,-704.763C811.464,-687.521 822.369,-664.593 831.253,-645.916"/>
<polygon fill="black" stroke="black" points="834.425,-647.396 835.559,-636.862 828.103,-644.389 834.425,-647.396"/>
</g>
<!-- ZERO -->
<g id="node3" class="node"><title>ZERO</title>
<ellipse fill="none" stroke="black" cx="87.1127" cy="-310.35" rx="39.6962" ry="26.7407"/>
<text text-anchor="middle" x="87.1127" y="-314.15" font-family="Times,serif" font-size="14.00">`ZERO</text>
<text text-anchor="middle" x="87.1127" y="-299.15" font-family="Times,serif" font-size="14.00">32&#39;h0</text>
</g>
<!-- exact0 -->
<g id="node25" class="node"><title>exact0</title>
<ellipse fill="none" stroke="black" cx="31.1127" cy="-219.61" rx="31.2258" ry="26.7407"/>
<text text-anchor="middle" x="31.1127" y="-223.41" font-family="Times,serif" font-size="14.00">=</text>
<text text-anchor="middle" x="31.1127" y="-208.41" font-family="Times,serif" font-size="14.00">(0&#45;0)</text>
</g>
<!-- ZERO&#45;&gt;exact0 -->
<g id="edge30" class="edge"><title>ZERO&#45;&gt;exact0</title>
<path fill="none" stroke="black" d="M71.8105,-285.102C65.4349,-274.999 57.9449,-263.13 51.1403,-252.347"/>
<polygon fill="black" stroke="black" points="53.9219,-250.196 45.6251,-243.607 48.002,-253.932 53.9219,-250.196"/>
</g>
<!-- ln -->
<g id="node26" class="node"><title>ln</title>
<ellipse fill="none" stroke="black" cx="93.1127" cy="-99.8701" rx="40.1111" ry="26.7407"/>
<text text-anchor="middle" x="93.1127" y="-103.67" font-family="Times,serif" font-size="14.00">mux32</text>
<text text-anchor="middle" x="93.1127" y="-88.6701" font-family="Times,serif" font-size="14.00">(36&#45;36)</text>
</g>
<!-- ZERO&#45;&gt;ln -->
<g id="edge32" class="edge"><title>ZERO&#45;&gt;ln</title>
<path fill="none" stroke="black" d="M87.8605,-283.368C88.9233,-246.438 90.8749,-178.626 92.0766,-136.871"/>
<polygon fill="black" stroke="black" points="95.5757,-136.948 92.3649,-126.852 88.5786,-136.747 95.5757,-136.948"/>
</g>
<!-- ONE_FIFTH -->
<g id="node4" class="node"><title>ONE_FIFTH</title>
<ellipse fill="none" stroke="black" cx="206.113" cy="-491.831" rx="65.5227" ry="26.7407"/>
<text text-anchor="middle" x="206.113" y="-495.631" font-family="Times,serif" font-size="14.00">`ONE_FIFTH</text>
<text text-anchor="middle" x="206.113" y="-480.631" font-family="Times,serif" font-size="14.00">32&#39;h3e4ccccd</text>
</g>
<!-- t5 -->
<g id="node22" class="node"><title>t5</title>
<ellipse fill="none" stroke="black" cx="166.113" cy="-401.09" rx="40.1111" ry="26.7407"/>
<text text-anchor="middle" x="166.113" y="-404.89" font-family="Times,serif" font-size="14.00">*</text>
<text text-anchor="middle" x="166.113" y="-389.89" font-family="Times,serif" font-size="14.00">(15&#45;20)</text>
</g>
<!-- ONE_FIFTH&#45;&gt;t5 -->
<g id="edge24" class="edge"><title>ONE_FIFTH&#45;&gt;t5</title>
<path fill="none" stroke="black" d="M194.543,-465.163C190.494,-456.18 185.88,-445.944 181.565,-436.37"/>
<polygon fill="black" stroke="black" points="184.681,-434.766 177.381,-427.088 178.299,-437.643 184.681,-434.766"/>
</g>
<!-- ONE_HALF -->
<g id="node5" class="node"><title>ONE_HALF</title>
<ellipse fill="none" stroke="black" cx="607.113" cy="-731.311" rx="64.1938" ry="26.7407"/>
<text text-anchor="middle" x="607.113" y="-735.111" font-family="Times,serif" font-size="14.00">`ONE_HALF</text>
<text text-anchor="middle" x="607.113" y="-720.111" font-family="Times,serif" font-size="14.00">32&#39;h3f000000</text>
</g>
<!-- t2 -->
<g id="node14" class="node"><title>t2</title>
<ellipse fill="none" stroke="black" cx="636.113" cy="-611.571" rx="35.2113" ry="26.7407"/>
<text text-anchor="middle" x="636.113" y="-615.371" font-family="Times,serif" font-size="14.00">*</text>
<text text-anchor="middle" x="636.113" y="-600.371" font-family="Times,serif" font-size="14.00">(5&#45;10)</text>
</g>
<!-- ONE_HALF&#45;&gt;t2 -->
<g id="edge8" class="edge"><title>ONE_HALF&#45;&gt;t2</title>
<path fill="none" stroke="black" d="M613.477,-704.472C617.538,-687.985 622.857,-666.388 627.319,-648.273"/>
<polygon fill="black" stroke="black" points="630.77,-648.896 629.763,-638.349 623.973,-647.222 630.77,-648.896"/>
</g>
<!-- ONE_THIRD -->
<g id="node6" class="node"><title>ONE_THIRD</title>
<ellipse fill="none" stroke="black" cx="514.113" cy="-611.571" rx="68.6788" ry="26.7407"/>
<text text-anchor="middle" x="514.113" y="-615.371" font-family="Times,serif" font-size="14.00">`ONE_THIRD</text>
<text text-anchor="middle" x="514.113" y="-600.371" font-family="Times,serif" font-size="14.00">32&#39;h3eaaaaab</text>
</g>
<!-- t3 -->
<g id="node19" class="node"><title>t3</title>
<ellipse fill="none" stroke="black" cx="429.113" cy="-491.831" rx="40.1111" ry="26.7407"/>
<text text-anchor="middle" x="429.113" y="-495.631" font-family="Times,serif" font-size="14.00">*</text>
<text text-anchor="middle" x="429.113" y="-480.631" font-family="Times,serif" font-size="14.00">(10&#45;15)</text>
</g>
<!-- ONE_THIRD&#45;&gt;t3 -->
<g id="edge18" class="edge"><title>ONE_THIRD&#45;&gt;t3</title>
<path fill="none" stroke="black" d="M496.086,-585.601C483.266,-567.843 465.939,-543.842 452.121,-524.702"/>
<polygon fill="black" stroke="black" points="454.935,-522.619 446.243,-516.56 449.259,-526.716 454.935,-522.619"/>
</g>
<!-- ln output -->
<g id="node7" class="node"><title>ln output</title>
<ellipse fill="none" stroke="black" cx="93.1127" cy="-18" rx="27" ry="18"/>
<text text-anchor="middle" x="93.1127" y="-14.3" font-family="Times,serif" font-size="14.00">ln</text>
</g>
<!-- done output -->
<g id="node8" class="node"><title>done output</title>
<ellipse fill="none" stroke="black" cx="987.113" cy="-611.571" rx="27.8951" ry="18"/>
<text text-anchor="middle" x="987.113" y="-607.871" font-family="Times,serif" font-size="14.00">done</text>
</g>
<!-- error output -->
<g id="node9" class="node"><title>error output</title>
<ellipse fill="none" stroke="black" cx="847.113" cy="-491.831" rx="27.8951" ry="18"/>
<text text-anchor="middle" x="847.113" y="-488.131" font-family="Times,serif" font-size="14.00">error</text>
</g>
<!-- done -->
<g id="node10" class="node"><title>done</title>
<ellipse fill="none" stroke="black" cx="987.113" cy="-731.311" rx="33.8824" ry="26.7407"/>
<text text-anchor="middle" x="987.113" y="-735.111" font-family="Times,serif" font-size="14.00">buf32</text>
<text text-anchor="middle" x="987.113" y="-720.111" font-family="Times,serif" font-size="14.00">(0&#45;0)</text>
</g>
<!-- done&#45;&gt;done output -->
<g id="edge35" class="edge"><title>done&#45;&gt;done output</title>
<path fill="none" stroke="red" d="M987.113,-704.18C987.113,-685.088 987.113,-659.259 987.113,-639.894"/>
<polygon fill="red" stroke="red" points="990.613,-639.884 987.113,-629.884 983.613,-639.884 990.613,-639.884"/>
<text text-anchor="middle" x="1010.61" y="-675.241" font-family="Times,serif" font-size="14.00">36&#45;cycle</text>
<text text-anchor="middle" x="1010.61" y="-660.241" font-family="Times,serif" font-size="14.00">delay</text>
</g>
<!-- x_abs -->
<g id="node11" class="node"><title>x_abs</title>
<ellipse fill="none" stroke="black" cx="904.113" cy="-731.311" rx="31.2258" ry="26.7407"/>
<text text-anchor="middle" x="904.113" y="-735.111" font-family="Times,serif" font-size="14.00">abs</text>
<text text-anchor="middle" x="904.113" y="-720.111" font-family="Times,serif" font-size="14.00">(0&#45;0)</text>
</g>
<!-- x_abs&#45;&gt;error -->
<g id="edge3" class="edge"><title>x_abs&#45;&gt;error</title>
<path fill="none" stroke="black" d="M892.44,-706.2C883.987,-688.739 872.457,-664.923 863.142,-645.68"/>
<polygon fill="black" stroke="black" points="866.277,-644.125 858.769,-636.649 859.977,-647.175 866.277,-644.125"/>
</g>
<!-- error&#45;&gt;error output -->
<g id="edge36" class="edge"><title>error&#45;&gt;error output</title>
<path fill="none" stroke="red" d="M847.113,-584.44C847.113,-565.348 847.113,-539.519 847.113,-520.154"/>
<polygon fill="red" stroke="red" points="850.613,-520.144 847.113,-510.144 843.613,-520.144 850.613,-520.144"/>
<text text-anchor="middle" x="870.613" y="-555.501" font-family="Times,serif" font-size="14.00">36&#45;cycle</text>
<text text-anchor="middle" x="870.613" y="-540.501" font-family="Times,serif" font-size="14.00">delay</text>
</g>
<!-- e2 -->
<g id="node13" class="node"><title>e2</title>
<ellipse fill="none" stroke="black" cx="392.113" cy="-731.311" rx="31.2258" ry="26.7407"/>
<text text-anchor="middle" x="392.113" y="-735.111" font-family="Times,serif" font-size="14.00">*</text>
<text text-anchor="middle" x="392.113" y="-720.111" font-family="Times,serif" font-size="14.00">(0&#45;5)</text>
</g>
<!-- e2&#45;&gt;t2 -->
<g id="edge7" class="edge"><title>e2&#45;&gt;t2</title>
<path fill="none" stroke="black" d="M419.707,-718.687C458.679,-702.034 531.818,-669.912 592.113,-638.441 594.69,-637.095 597.33,-635.67 599.974,-634.207"/>
<polygon fill="black" stroke="black" points="601.919,-637.127 608.892,-629.15 598.466,-631.038 601.919,-637.127"/>
</g>
<!-- e3 -->
<g id="node15" class="node"><title>e3</title>
<ellipse fill="none" stroke="black" cx="392.113" cy="-611.571" rx="35.2113" ry="26.7407"/>
<text text-anchor="middle" x="392.113" y="-615.371" font-family="Times,serif" font-size="14.00">*</text>
<text text-anchor="middle" x="392.113" y="-600.371" font-family="Times,serif" font-size="14.00">(5&#45;10)</text>
</g>
<!-- e2&#45;&gt;e3 -->
<g id="edge9" class="edge"><title>e2&#45;&gt;e3</title>
<path fill="none" stroke="black" d="M392.113,-704.18C392.113,-687.87 392.113,-666.643 392.113,-648.73"/>
<polygon fill="black" stroke="black" points="395.613,-648.628 392.113,-638.628 388.613,-648.628 395.613,-648.628"/>
</g>
<!-- e4 -->
<g id="node16" class="node"><title>e4</title>
<ellipse fill="none" stroke="black" cx="130.113" cy="-611.571" rx="35.2113" ry="26.7407"/>
<text text-anchor="middle" x="130.113" y="-615.371" font-family="Times,serif" font-size="14.00">*</text>
<text text-anchor="middle" x="130.113" y="-600.371" font-family="Times,serif" font-size="14.00">(5&#45;10)</text>
</g>
<!-- e2&#45;&gt;e4 -->
<g id="edge11" class="edge"><title>e2&#45;&gt;e4</title>
<path fill="none" stroke="black" d="M364.396,-718.292C355.941,-713.675 346.742,-708.536 338.113,-704.441 263.766,-669.157 239.286,-674.087 165.113,-638.441 164.114,-637.961 163.109,-637.466 162.1,-636.959"/>
<polygon fill="black" stroke="black" points="163.514,-633.748 153.042,-632.137 160.225,-639.926 163.514,-633.748"/>
</g>
<!-- e2&#45;&gt;e4 -->
<g id="edge12" class="edge"><title>e2&#45;&gt;e4</title>
<path fill="none" stroke="black" d="M370.365,-711.844C365.727,-709.235 360.835,-706.682 356.113,-704.441 281.766,-669.157 257.286,-674.087 183.113,-638.441 178.538,-636.242 173.807,-633.732 169.119,-631.16"/>
<polygon fill="black" stroke="black" points="170.648,-628.006 160.207,-626.204 167.245,-634.123 170.648,-628.006"/>
</g>
<!-- s12 -->
<g id="node17" class="node"><title>s12</title>
<ellipse fill="none" stroke="black" cx="636.113" cy="-491.831" rx="40.1111" ry="26.7407"/>
<text text-anchor="middle" x="636.113" y="-495.631" font-family="Times,serif" font-size="14.00">&#45;</text>
<text text-anchor="middle" x="636.113" y="-480.631" font-family="Times,serif" font-size="14.00">(10&#45;17)</text>
</g>
<!-- t2&#45;&gt;s12 -->
<g id="edge14" class="edge"><title>t2&#45;&gt;s12</title>
<path fill="none" stroke="black" d="M636.113,-584.44C636.113,-568.13 636.113,-546.903 636.113,-528.99"/>
<polygon fill="black" stroke="black" points="639.613,-528.888 636.113,-518.888 632.613,-528.888 639.613,-528.888"/>
</g>
<!-- e3&#45;&gt;t3 -->
<g id="edge17" class="edge"><title>e3&#45;&gt;t3</title>
<path fill="none" stroke="black" d="M400.05,-585.312C405.282,-568.665 412.208,-546.624 417.987,-528.236"/>
<polygon fill="black" stroke="black" points="421.402,-529.043 421.061,-518.453 414.724,-526.944 421.402,-529.043"/>
</g>
<!-- e5 -->
<g id="node18" class="node"><title>e5</title>
<ellipse fill="none" stroke="black" cx="82.1127" cy="-491.831" rx="40.1111" ry="26.7407"/>
<text text-anchor="middle" x="82.1127" y="-495.631" font-family="Times,serif" font-size="14.00">*</text>
<text text-anchor="middle" x="82.1127" y="-480.631" font-family="Times,serif" font-size="14.00">(10&#45;15)</text>
</g>
<!-- e4&#45;&gt;e5 -->
<g id="edge15" class="edge"><title>e4&#45;&gt;e5</title>
<path fill="none" stroke="black" d="M119.933,-585.601C113.043,-568.701 103.849,-546.147 96.2503,-527.509"/>
<polygon fill="black" stroke="black" points="99.4593,-526.109 92.4431,-518.17 92.9772,-528.751 99.4593,-526.109"/>
</g>
<!-- e4&#45;&gt;t4 -->
<g id="edge19" class="edge"><title>e4&#45;&gt;t4</title>
<path fill="none" stroke="black" d="M157.502,-594.446C192.167,-574.039 252.088,-538.764 291.415,-515.612"/>
<polygon fill="black" stroke="black" points="293.61,-518.381 300.452,-510.292 290.059,-512.349 293.61,-518.381"/>
</g>
<!-- s1234 -->
<g id="node23" class="node"><title>s1234</title>
<ellipse fill="none" stroke="black" cx="375.113" cy="-310.35" rx="40.1111" ry="26.7407"/>
<text text-anchor="middle" x="375.113" y="-314.15" font-family="Times,serif" font-size="14.00">+</text>
<text text-anchor="middle" x="375.113" y="-299.15" font-family="Times,serif" font-size="14.00">(22&#45;29)</text>
</g>
<!-- s12&#45;&gt;s1234 -->
<g id="edge25" class="edge"><title>s12&#45;&gt;s1234</title>
<path fill="none" stroke="red" d="M608.674,-471.962C561.191,-439.309 463.727,-372.287 410.956,-335.999"/>
<polygon fill="red" stroke="red" points="412.798,-333.017 402.575,-330.235 408.832,-338.785 412.798,-333.017"/>
<text text-anchor="middle" x="565.113" y="-404.89" font-family="Times,serif" font-size="14.00">5&#45;cycle</text>
<text text-anchor="middle" x="565.113" y="-389.89" font-family="Times,serif" font-size="14.00">delay</text>
</g>
<!-- e5&#45;&gt;t5 -->
<g id="edge23" class="edge"><title>e5&#45;&gt;t5</title>
<path fill="none" stroke="black" d="M103.309,-468.438C113.835,-457.318 126.692,-443.735 138.026,-431.762"/>
<polygon fill="black" stroke="black" points="140.881,-433.837 145.214,-424.169 135.797,-429.025 140.881,-433.837"/>
</g>
<!-- s34 -->
<g id="node21" class="node"><title>s34</title>
<ellipse fill="none" stroke="black" cx="375.113" cy="-401.09" rx="40.1111" ry="26.7407"/>
<text text-anchor="middle" x="375.113" y="-404.89" font-family="Times,serif" font-size="14.00">&#45;</text>
<text text-anchor="middle" x="375.113" y="-389.89" font-family="Times,serif" font-size="14.00">(15&#45;22)</text>
</g>
<!-- t3&#45;&gt;s34 -->
<g id="edge21" class="edge"><title>t3&#45;&gt;s34</title>
<path fill="none" stroke="black" d="M414.357,-466.582C408.404,-456.8 401.444,-445.362 395.052,-434.857"/>
<polygon fill="black" stroke="black" points="398.039,-433.033 389.851,-426.31 392.059,-436.672 398.039,-433.033"/>
</g>
<!-- t4&#45;&gt;s34 -->
<g id="edge22" class="edge"><title>t4&#45;&gt;s34</title>
<path fill="none" stroke="black" d="M342.648,-466.111C347.426,-456.688 352.956,-445.783 358.083,-435.673"/>
<polygon fill="black" stroke="black" points="361.244,-437.179 362.645,-426.677 355.001,-434.013 361.244,-437.179"/>
</g>
<!-- s34&#45;&gt;s1234 -->
<g id="edge26" class="edge"><title>s34&#45;&gt;s1234</title>
<path fill="none" stroke="black" d="M375.113,-373.945C375.113,-365.641 375.113,-356.305 375.113,-347.429"/>
<polygon fill="black" stroke="black" points="378.613,-347.308 375.113,-337.308 371.613,-347.308 378.613,-347.308"/>
</g>
<!-- _ln -->
<g id="node24" class="node"><title>_ln</title>
<ellipse fill="none" stroke="black" cx="166.113" cy="-219.61" rx="40.1111" ry="26.7407"/>
<text text-anchor="middle" x="166.113" y="-223.41" font-family="Times,serif" font-size="14.00">+</text>
<text text-anchor="middle" x="166.113" y="-208.41" font-family="Times,serif" font-size="14.00">(29&#45;36)</text>
</g>
<!-- t5&#45;&gt;_ln -->
<g id="edge28" class="edge"><title>t5&#45;&gt;_ln</title>
<path fill="none" stroke="red" d="M166.113,-373.992C166.113,-343.154 166.113,-291.659 166.113,-256.936"/>
<polygon fill="red" stroke="red" points="169.613,-256.74 166.113,-246.74 162.613,-256.74 169.613,-256.74"/>
<text text-anchor="middle" x="186.113" y="-314.15" font-family="Times,serif" font-size="14.00">9&#45;cycle</text>
<text text-anchor="middle" x="186.113" y="-299.15" font-family="Times,serif" font-size="14.00">delay</text>
</g>
<!-- s1234&#45;&gt;_ln -->
<g id="edge27" class="edge"><title>s1234&#45;&gt;_ln</title>
<path fill="none" stroke="black" d="M341.533,-295.093C305.579,-279.827 248.416,-255.556 209.175,-238.894"/>
<polygon fill="black" stroke="black" points="210.181,-235.519 199.609,-234.832 207.446,-241.962 210.181,-235.519"/>
</g>
<!-- _ln&#45;&gt;ln -->
<g id="edge33" class="edge"><title>_ln&#45;&gt;ln</title>
<path fill="none" stroke="black" d="M151.164,-194.5C140.24,-176.88 125.303,-152.789 113.316,-133.456"/>
<polygon fill="black" stroke="black" points="116.286,-131.603 108.042,-124.948 110.336,-135.292 116.286,-131.603"/>
</g>
<!-- exact0&#45;&gt;ln -->
<g id="edge31" class="edge"><title>exact0&#45;&gt;ln</title>
<path fill="none" stroke="red" d="M25.9612,-192.941C24.272,-178.055 24.4662,-159.412 32.1127,-144.74 36.815,-135.717 44.3148,-128.12 52.4708,-121.917"/>
<polygon fill="red" stroke="red" points="54.5337,-124.746 60.7661,-116.178 50.551,-118.989 54.5337,-124.746"/>
<text text-anchor="middle" x="55.6127" y="-163.54" font-family="Times,serif" font-size="14.00">36&#45;cycle</text>
<text text-anchor="middle" x="55.6127" y="-148.54" font-family="Times,serif" font-size="14.00">delay</text>
</g>
<!-- ln&#45;&gt;ln output -->
<g id="edge34" class="edge"><title>ln&#45;&gt;ln output</title>
<path fill="none" stroke="black" d="M93.1127,-72.7176C93.1127,-64.2726 93.1127,-54.8903 93.1127,-46.3604"/>
<polygon fill="black" stroke="black" points="96.6128,-46.1464 93.1127,-36.1464 89.6128,-46.1464 96.6128,-46.1464"/>
</g>
<!-- start -->
<g id="node27" class="node"><title>start</title>
<ellipse fill="none" stroke="black" cx="987.113" cy="-813.181" rx="27" ry="18"/>
<text text-anchor="middle" x="987.113" y="-809.481" font-family="Times,serif" font-size="14.00">start</text>
</g>
<!-- start&#45;&gt;done -->
<g id="edge1" class="edge"><title>start&#45;&gt;done</title>
<path fill="none" stroke="black" d="M987.113,-794.85C987.113,-787.117 987.113,-777.697 987.113,-768.539"/>
<polygon fill="black" stroke="black" points="990.613,-768.415 987.113,-758.415 983.613,-768.415 990.613,-768.415"/>
</g>
<!-- x -->
<g id="node28" class="node"><title>x</title>
<ellipse fill="none" stroke="black" cx="392.113" cy="-813.181" rx="27" ry="18"/>
<text text-anchor="middle" x="392.113" y="-809.481" font-family="Times,serif" font-size="14.00">x</text>
</g>
<!-- x&#45;&gt;x_abs -->
<g id="edge2" class="edge"><title>x&#45;&gt;x_abs</title>
<path fill="none" stroke="black" d="M419.056,-810.756C506.436,-805.876 781.103,-788.447 864.113,-758.181 866.808,-757.198 869.507,-756.007 872.16,-754.681"/>
<polygon fill="black" stroke="black" points="873.915,-757.71 880.926,-749.767 870.491,-751.604 873.915,-757.71"/>
</g>
<!-- x&#45;&gt;e2 -->
<g id="edge5" class="edge"><title>x&#45;&gt;e2</title>
<path fill="none" stroke="black" d="M386.477,-795.242C385.599,-787.239 385.24,-777.366 385.399,-767.833"/>
<polygon fill="black" stroke="black" points="388.901,-767.85 385.776,-757.726 381.906,-767.589 388.901,-767.85"/>
</g>
<!-- x&#45;&gt;e2 -->
<g id="edge6" class="edge"><title>x&#45;&gt;e2</title>
<path fill="none" stroke="black" d="M397.749,-795.242C398.626,-787.239 398.985,-777.366 398.826,-767.833"/>
<polygon fill="black" stroke="black" points="402.319,-767.589 398.449,-757.726 395.324,-767.85 402.319,-767.589"/>
</g>
<!-- x&#45;&gt;e3 -->
<g id="edge10" class="edge"><title>x&#45;&gt;e3</title>
<path fill="none" stroke="red" d="M368.771,-803.656C349.687,-795.297 323.988,-780.524 312.113,-758.181 300.903,-737.09 303.739,-726.809 312.113,-704.441 321.845,-678.444 342.626,-654.956 360.569,-638.237"/>
<polygon fill="red" stroke="red" points="362.96,-640.794 368.045,-631.498 358.273,-635.594 362.96,-640.794"/>
<text text-anchor="middle" x="332.113" y="-735.111" font-family="Times,serif" font-size="14.00">5&#45;cycle</text>
<text text-anchor="middle" x="332.113" y="-720.111" font-family="Times,serif" font-size="14.00">delay</text>
</g>
<!-- x&#45;&gt;s12 -->
<g id="edge13" class="edge"><title>x&#45;&gt;s12</title>
<path fill="none" stroke="red" d="M419.311,-811.325C484.567,-808.64 647.056,-798.012 680.113,-758.181 735.791,-691.093 686.855,-580.727 656.281,-525.89"/>
<polygon fill="red" stroke="red" points="659.177,-523.902 651.183,-516.949 653.096,-527.37 659.177,-523.902"/>
<text text-anchor="middle" x="729.613" y="-675.241" font-family="Times,serif" font-size="14.00">10&#45;cycle</text>
<text text-anchor="middle" x="729.613" y="-660.241" font-family="Times,serif" font-size="14.00">delay</text>
</g>
<!-- x&#45;&gt;e5 -->
<g id="edge16" class="edge"><title>x&#45;&gt;e5</title>
<path fill="none" stroke="red" d="M366.698,-806.799C305.204,-792.25 148.845,-745.772 86.1127,-638.441 66.6224,-605.094 68.9648,-559.707 74.026,-528.517"/>
<polygon fill="red" stroke="red" points="77.4983,-528.982 75.819,-518.522 70.6083,-527.746 77.4983,-528.982"/>
<text text-anchor="middle" x="145.613" y="-675.241" font-family="Times,serif" font-size="14.00">10&#45;cycle</text>
<text text-anchor="middle" x="145.613" y="-660.241" font-family="Times,serif" font-size="14.00">delay</text>
</g>
<!-- x&#45;&gt;exact0 -->
<g id="edge29" class="edge"><title>x&#45;&gt;exact0</title>
<path fill="none" stroke="black" d="M364.928,-812.232C278.256,-811.673 14.1127,-804.08 14.1127,-732.311 14.1127,-732.311 14.1127,-732.311 14.1127,-309.35 14.1127,-291.593 17.4369,-272.188 21.1454,-256.064"/>
<polygon fill="black" stroke="black" points="24.6325,-256.539 23.6068,-245.993 17.8326,-254.877 24.6325,-256.539"/>
</g>
</g>
</svg>
