<?xml version="1.0" encoding="UTF-8" standalone="no"?>
<!DOCTYPE svg PUBLIC "-//W3C//DTD SVG 1.1//EN"
 "http://www.w3.org/Graphics/SVG/1.1/DTD/svg11.dtd">
<!-- Generated by graphviz version 2.38.0 (20140413.2041)
 -->
<!-- Title: %3 Pages: 1 -->
<svg width="1005pt" height="719pt"
 viewBox="0.00 0.00 1004.77 719.44" xmlns="http://www.w3.org/2000/svg" xmlns:xlink="http://www.w3.org/1999/xlink">
<g id="graph0" class="graph" transform="scale(1 1) rotate(0) translate(4 715.441)">
<title>%3</title>
<polygon fill="white" stroke="none" points="-4,4 -4,-715.441 1000.77,-715.441 1000.77,4 -4,4"/>
<!-- ONE_HALF -->
<g id="node1" class="node"><title>ONE_HALF</title>
<ellipse fill="none" stroke="black" cx="101.768" cy="-611.571" rx="66.4361" ry="26.7407"/>
<text text-anchor="middle" x="101.768" y="-615.371" font-family="Times,serif" font-size="14.00">`ONE_HALF</text>
<text text-anchor="middle" x="101.768" y="-600.371" font-family="Times,serif" font-size="14.00">32&#39;h3f000000</text>
</g>
<!-- t2 -->
<g id="node13" class="node"><title>t2</title>
<ellipse fill="none" stroke="black" cx="71.7675" cy="-491.831" rx="36.125" ry="26.7407"/>
<text text-anchor="middle" x="71.7675" y="-495.631" font-family="Times,serif" font-size="14.00">*</text>
<text text-anchor="middle" x="71.7675" y="-480.631" font-family="Times,serif" font-size="14.00">(5&#45;10)</text>
</g>
<!-- ONE_HALF&#45;&gt;t2 -->
<g id="edge8" class="edge"><title>ONE_HALF&#45;&gt;t2</title>
<path fill="none" stroke="black" d="M95.1839,-584.732C90.9831,-568.245 85.4801,-546.648 80.8644,-528.533"/>
<polygon fill="black" stroke="black" points="84.1966,-527.435 78.3358,-518.609 77.4133,-529.163 84.1966,-527.435"/>
</g>
<!-- ONE_THIRD -->
<g id="node2" class="node"><title>ONE_THIRD</title>
<ellipse fill="none" stroke="black" cx="196.768" cy="-491.831" rx="70.922" ry="26.7407"/>
<text text-anchor="middle" x="196.768" y="-495.631" font-family="Times,serif" font-size="14.00">`ONE_THIRD</text>
<text text-anchor="middle" x="196.768" y="-480.631" font-family="Times,serif" font-size="14.00">32&#39;h3eaaaaab</text>
</g>
<!-- t3 -->
<g id="node18" class="node"><title>t3</title>
<ellipse fill="none" stroke="black" cx="321.768" cy="-372.09" rx="41.0244" ry="26.7407"/>
<text text-anchor="middle" x="321.768" y="-375.89" font-family="Times,serif" font-size="14.00">*</text>
<text text-anchor="middle" x="321.768" y="-360.89" font-family="Times,serif" font-size="14.00">(10&#45;15)</text>
</g>
<!-- ONE_THIRD&#45;&gt;t3 -->
<g id="edge18" class="edge"><title>ONE_THIRD&#45;&gt;t3</title>
<path fill="none" stroke="black" d="M222.365,-466.72C242.34,-447.905 270.149,-421.711 291.276,-401.811"/>
<polygon fill="black" stroke="black" points="293.851,-404.194 298.73,-394.79 289.051,-399.098 293.851,-404.194"/>
</g>
<!-- ONE_FOURTH -->
<g id="node3" class="node"><title>ONE_FOURTH</title>
<ellipse fill="none" stroke="black" cx="455.768" cy="-491.831" rx="79.8062" ry="26.7407"/>
<text text-anchor="middle" x="455.768" y="-495.631" font-family="Times,serif" font-size="14.00">`ONE_FOURTH</text>
<text text-anchor="middle" x="455.768" y="-480.631" font-family="Times,serif" font-size="14.00">32&#39;h3e800000</text>
</g>
<!-- t4 -->
<g id="node19" class="node"><title>t4</title>
<ellipse fill="none" stroke="black" cx="455.768" cy="-372.09" rx="41.0244" ry="26.7407"/>
<text text-anchor="middle" x="455.768" y="-375.89" font-family="Times,serif" font-size="14.00">*</text>
<text text-anchor="middle" x="455.768" y="-360.89" font-family="Times,serif" font-size="14.00">(10&#45;15)</text>
</g>
<!-- ONE_FOURTH&#45;&gt;t4 -->
<g id="edge20" class="edge"><title>ONE_FOURTH&#45;&gt;t4</title>
<path fill="none" stroke="black" d="M455.768,-464.7C455.768,-448.39 455.768,-427.163 455.768,-409.25"/>
<polygon fill="black" stroke="black" points="459.268,-409.148 455.768,-399.148 452.268,-409.148 459.268,-409.148"/>
</g>
<!-- ONE_FIFTH -->
<g id="node4" class="node"><title>ONE_FIFTH</title>
<ellipse fill="none" stroke="black" cx="716.768" cy="-372.09" rx="67.7647" ry="26.7407"/>
<text text-anchor="middle" x="716.768" y="-375.89" font-family="Times,serif" font-size="14.00">`ONE_FIFTH</text>
<text text-anchor="middle" x="716.768" y="-360.89" font-family="Times,serif" font-size="14.00">32&#39;h3e4ccccd</text>
</g>
<!-- t5 -->
<g id="node21" class="node"><title>t5</title>
<ellipse fill="none" stroke="black" cx="589.768" cy="-281.35" rx="41.0244" ry="26.7407"/>
<text text-anchor="middle" x="589.768" y="-285.15" font-family="Times,serif" font-size="14.00">*</text>
<text text-anchor="middle" x="589.768" y="-270.15" font-family="Times,serif" font-size="14.00">(15&#45;20)</text>
</g>
<!-- ONE_FIFTH&#45;&gt;t5 -->
<g id="edge24" class="edge"><title>ONE_FIFTH&#45;&gt;t5</title>
<path fill="none" stroke="black" d="M684.391,-348.468C666.501,-335.967 644.231,-320.406 625.791,-307.521"/>
<polygon fill="black" stroke="black" points="627.552,-304.482 617.35,-301.624 623.543,-310.22 627.552,-304.482"/>
</g>
<!-- ONE -->
<g id="node5" class="node"><title>ONE</title>
<ellipse fill="none" stroke="black" cx="747.768" cy="-611.571" rx="66.4361" ry="26.7407"/>
<text text-anchor="middle" x="747.768" y="-615.371" font-family="Times,serif" font-size="14.00">`ONE</text>
<text text-anchor="middle" x="747.768" y="-600.371" font-family="Times,serif" font-size="14.00">32&#39;h3f800000</text>
</g>
<!-- error -->
<g id="node11" class="node"><title>error</title>
<ellipse fill="none" stroke="black" cx="838.768" cy="-491.831" rx="31.2258" ry="26.7407"/>
<text text-anchor="middle" x="838.768" y="-495.631" font-family="Times,serif" font-size="14.00">gt</text>
<text text-anchor="middle" x="838.768" y="-480.631" font-family="Times,serif" font-size="14.00">(0&#45;0)</text>
</g>
<!-- ONE&#45;&gt;error -->
<g id="edge4" class="edge"><title>ONE&#45;&gt;error</title>
<path fill="none" stroke="black" d="M767.066,-585.601C781.309,-567.173 800.749,-542.021 815.793,-522.556"/>
<polygon fill="black" stroke="black" points="818.598,-524.65 821.944,-514.597 813.06,-520.369 818.598,-524.65"/>
</g>
<!-- ln output -->
<g id="node6" class="node"><title>ln output</title>
<ellipse fill="none" stroke="black" cx="501.768" cy="-18" rx="27" ry="18"/>
<text text-anchor="middle" x="501.768" y="-14.3" font-family="Times,serif" font-size="14.00">ln</text>
</g>
<!-- done output -->
<g id="node7" class="node"><title>done output</title>
<ellipse fill="none" stroke="black" cx="947.768" cy="-491.831" rx="28.6953" ry="18"/>
<text text-anchor="middle" x="947.768" y="-488.131" font-family="Times,serif" font-size="14.00">done</text>
</g>
<!-- error output -->
<g id="node8" class="node"><title>error output</title>
<ellipse fill="none" stroke="black" cx="838.768" cy="-372.09" rx="28.6953" ry="18"/>
<text text-anchor="middle" x="838.768" y="-368.39" font-family="Times,serif" font-size="14.00">error</text>
</g>
<!-- done -->
<g id="node9" class="node"><title>done</title>
<ellipse fill="none" stroke="black" cx="947.768" cy="-611.571" rx="34.7971" ry="26.7407"/>
<text text-anchor="middle" x="947.768" y="-615.371" font-family="Times,serif" font-size="14.00">buf32</text>
<text text-anchor="middle" x="947.768" y="-600.371" font-family="Times,serif" font-size="14.00">(0&#45;0)</text>
</g>
<!-- done&#45;&gt;done output -->
<g id="edge30" class="edge"><title>done&#45;&gt;done output</title>
<path fill="none" stroke="red" d="M947.768,-584.44C947.768,-565.348 947.768,-539.519 947.768,-520.154"/>
<polygon fill="red" stroke="red" points="951.268,-520.144 947.768,-510.144 944.268,-520.144 951.268,-520.144"/>
<text text-anchor="middle" x="972.268" y="-555.501" font-family="Times,serif" font-size="14.00">36&#45;cycle</text>
<text text-anchor="middle" x="972.268" y="-540.501" font-family="Times,serif" font-size="14.00">delay</text>
</g>
<!-- x_abs -->
<g id="node10" class="node"><title>x_abs</title>
<ellipse fill="none" stroke="black" cx="863.768" cy="-611.571" rx="31.2258" ry="26.7407"/>
<text text-anchor="middle" x="863.768" y="-615.371" font-family="Times,serif" font-size="14.00">abs</text>
<text text-anchor="middle" x="863.768" y="-600.371" font-family="Times,serif" font-size="14.00">(0&#45;0)</text>
</g>
<!-- x_abs&#45;&gt;error -->
<g id="edge3" class="edge"><title>x_abs&#45;&gt;error</title>
<path fill="none" stroke="black" d="M858.343,-585.023C854.821,-568.437 850.182,-546.589 846.304,-528.325"/>
<polygon fill="black" stroke="black" points="849.682,-527.383 844.182,-518.329 842.835,-528.837 849.682,-527.383"/>
</g>
<!-- error&#45;&gt;error output -->
<g id="edge31" class="edge"><title>error&#45;&gt;error output</title>
<path fill="none" stroke="red" d="M838.768,-464.7C838.768,-445.608 838.768,-419.779 838.768,-400.414"/>
<polygon fill="red" stroke="red" points="842.268,-400.404 838.768,-390.404 835.268,-400.404 842.268,-400.404"/>
<text text-anchor="middle" x="863.268" y="-435.76" font-family="Times,serif" font-size="14.00">36&#45;cycle</text>
<text text-anchor="middle" x="863.268" y="-420.76" font-family="Times,serif" font-size="14.00">delay</text>
</g>
<!-- e2 -->
<g id="node12" class="node"><title>e2</title>
<ellipse fill="none" stroke="black" cx="419.768" cy="-611.571" rx="31.2258" ry="26.7407"/>
<text text-anchor="middle" x="419.768" y="-615.371" font-family="Times,serif" font-size="14.00">*</text>
<text text-anchor="middle" x="419.768" y="-600.371" font-family="Times,serif" font-size="14.00">(0&#45;5)</text>
</g>
<!-- e2&#45;&gt;t2 -->
<g id="edge7" class="edge"><title>e2&#45;&gt;t2</title>
<path fill="none" stroke="black" d="M389.724,-603.868C334.372,-590.998 213.137,-560.365 116.768,-518.701 113.79,-517.413 110.76,-515.976 107.751,-514.457"/>
<polygon fill="black" stroke="black" points="109.333,-511.334 98.8612,-509.722 106.042,-517.513 109.333,-511.334"/>
</g>
<!-- e3 -->
<g id="node14" class="node"><title>e3</title>
<ellipse fill="none" stroke="black" cx="321.768" cy="-491.831" rx="36.125" ry="26.7407"/>
<text text-anchor="middle" x="321.768" y="-495.631" font-family="Times,serif" font-size="14.00">*</text>
<text text-anchor="middle" x="321.768" y="-480.631" font-family="Times,serif" font-size="14.00">(5&#45;10)</text>
</g>
<!-- e2&#45;&gt;e3 -->
<g id="edge9" class="edge"><title>e2&#45;&gt;e3</title>
<path fill="none" stroke="black" d="M402.02,-589.249C386.633,-570.762 364.189,-543.797 346.946,-523.08"/>
<polygon fill="black" stroke="black" points="349.47,-520.642 340.383,-515.195 344.09,-525.12 349.47,-520.642"/>
</g>
<!-- e4 -->
<g id="node15" class="node"><title>e4</title>
<ellipse fill="none" stroke="black" cx="589.768" cy="-491.831" rx="36.125" ry="26.7407"/>
<text text-anchor="middle" x="589.768" y="-495.631" font-family="Times,serif" font-size="14.00">*</text>
<text text-anchor="middle" x="589.768" y="-480.631" font-family="Times,serif" font-size="14.00">(5&#45;10)</text>
</g>
<!-- e2&#45;&gt;e4 -->
<g id="edge11" class="edge"><title>e2&#45;&gt;e4</title>
<path fill="none" stroke="black" d="M441.616,-591.914C469.84,-570.903 518.985,-536.798 552.97,-514.591"/>
<polygon fill="black" stroke="black" points="555.203,-517.315 561.693,-508.94 551.397,-511.44 555.203,-517.315"/>
</g>
<!-- e2&#45;&gt;e4 -->
<g id="edge12" class="edge"><title>e2&#45;&gt;e4</title>
<path fill="none" stroke="black" d="M445.598,-595.897C475.855,-576.6 525.625,-542.374 558.136,-518.686"/>
<polygon fill="black" stroke="black" points="560.425,-521.348 566.412,-512.607 556.281,-515.706 560.425,-521.348"/>
</g>
<!-- s12 -->
<g id="node16" class="node"><title>s12</title>
<ellipse fill="none" stroke="black" cx="71.7675" cy="-372.09" rx="41.0244" ry="26.7407"/>
<text text-anchor="middle" x="71.7675" y="-375.89" font-family="Times,serif" font-size="14.00">&#45;</text>
<text text-anchor="middle" x="71.7675" y="-360.89" font-family="Times,serif" font-size="14.00">(10&#45;17)</text>
</g>
<!-- t2&#45;&gt;s12 -->
<g id="edge14" class="edge"><title>t2&#45;&gt;s12</title>
<path fill="none" stroke="black" d="M71.7675,-464.7C71.7675,-448.39 71.7675,-427.163 71.7675,-409.25"/>
<polygon fill="black" stroke="black" points="75.2676,-409.148 71.7675,-399.148 68.2676,-409.148 75.2676,-409.148"/>
</g>
<!-- e3&#45;&gt;t3 -->
<g id="edge17" class="edge"><title>e3&#45;&gt;t3</title>
<path fill="none" stroke="black" d="M321.768,-464.7C321.768,-448.39 321.768,-427.163 321.768,-409.25"/>
<polygon fill="black" stroke="black" points="325.268,-409.148 321.768,-399.148 318.268,-409.148 325.268,-409.148"/>
</g>
<!-- e5 -->
<g id="node17" class="node"><title>e5</title>
<ellipse fill="none" stroke="black" cx="589.768" cy="-372.09" rx="41.0244" ry="26.7407"/>
<text text-anchor="middle" x="589.768" y="-375.89" font-family="Times,serif" font-size="14.00">*</text>
<text text-anchor="middle" x="589.768" y="-360.89" font-family="Times,serif" font-size="14.00">(10&#45;15)</text>
</g>
<!-- e4&#45;&gt;e5 -->
<g id="edge15" class="edge"><title>e4&#45;&gt;e5</title>
<path fill="none" stroke="black" d="M589.768,-464.7C589.768,-448.39 589.768,-427.163 589.768,-409.25"/>
<polygon fill="black" stroke="black" points="593.268,-409.148 589.768,-399.148 586.268,-409.148 593.268,-409.148"/>
</g>
<!-- e4&#45;&gt;t4 -->
<g id="edge19" class="edge"><title>e4&#45;&gt;t4</title>
<path fill="none" stroke="black" d="M567.036,-470.858C545.206,-451.676 512.026,-422.523 487.577,-401.04"/>
<polygon fill="black" stroke="black" points="489.793,-398.328 479.971,-394.357 485.173,-403.587 489.793,-398.328"/>
</g>
<!-- s1234 -->
<g id="node22" class="node"><title>s1234</title>
<ellipse fill="none" stroke="black" cx="412.768" cy="-190.61" rx="41.0244" ry="26.7407"/>
<text text-anchor="middle" x="412.768" y="-194.41" font-family="Times,serif" font-size="14.00">+</text>
<text text-anchor="middle" x="412.768" y="-179.41" font-family="Times,serif" font-size="14.00">(22&#45;29)</text>
</g>
<!-- s12&#45;&gt;s1234 -->
<g id="edge25" class="edge"><title>s12&#45;&gt;s1234</title>
<path fill="none" stroke="red" d="M103.237,-354.527C165.28,-321.871 303.324,-249.214 372.139,-212.994"/>
<polygon fill="red" stroke="red" points="374.155,-215.888 381.374,-208.134 370.895,-209.694 374.155,-215.888"/>
<text text-anchor="middle" x="313.768" y="-285.15" font-family="Times,serif" font-size="14.00">5&#45;cycle</text>
<text text-anchor="middle" x="313.768" y="-270.15" font-family="Times,serif" font-size="14.00">delay</text>
</g>
<!-- e5&#45;&gt;t5 -->
<g id="edge23" class="edge"><title>e5&#45;&gt;t5</title>
<path fill="none" stroke="black" d="M589.768,-344.945C589.768,-336.641 589.768,-327.305 589.768,-318.429"/>
<polygon fill="black" stroke="black" points="593.268,-318.308 589.768,-308.308 586.268,-318.308 593.268,-318.308"/>
</g>
<!-- s34 -->
<g id="node20" class="node"><title>s34</title>
<ellipse fill="none" stroke="black" cx="412.768" cy="-281.35" rx="41.0244" ry="26.7407"/>
<text text-anchor="middle" x="412.768" y="-285.15" font-family="Times,serif" font-size="14.00">&#45;</text>
<text text-anchor="middle" x="412.768" y="-270.15" font-family="Times,serif" font-size="14.00">(15&#45;22)</text>
</g>
<!-- t3&#45;&gt;s34 -->
<g id="edge21" class="edge"><title>t3&#45;&gt;s34</title>
<path fill="none" stroke="black" d="M344.262,-349.155C356.053,-337.656 370.642,-323.43 383.322,-311.065"/>
<polygon fill="black" stroke="black" points="385.816,-313.521 390.532,-304.034 380.929,-308.51 385.816,-313.521"/>
</g>
<!-- t4&#45;&gt;s34 -->
<g id="edge22" class="edge"><title>t4&#45;&gt;s34</title>
<path fill="none" stroke="black" d="M443.79,-346.371C439.308,-337.122 434.134,-326.444 429.312,-316.493"/>
<polygon fill="black" stroke="black" points="432.341,-314.717 424.83,-307.245 426.041,-317.77 432.341,-314.717"/>
</g>
<!-- s34&#45;&gt;s1234 -->
<g id="edge26" class="edge"><title>s34&#45;&gt;s1234</title>
<path fill="none" stroke="black" d="M412.768,-254.205C412.768,-245.901 412.768,-236.565 412.768,-227.688"/>
<polygon fill="black" stroke="black" points="416.268,-227.568 412.768,-217.568 409.268,-227.568 416.268,-227.568"/>
</g>
<!-- ln -->
<g id="node23" class="node"><title>ln</title>
<ellipse fill="none" stroke="black" cx="501.768" cy="-99.8701" rx="41.0244" ry="26.7407"/>
<text text-anchor="middle" x="501.768" y="-103.67" font-family="Times,serif" font-size="14.00">+</text>
<text text-anchor="middle" x="501.768" y="-88.6701" font-family="Times,serif" font-size="14.00">(29&#45;36)</text>
</g>
<!-- t5&#45;&gt;ln -->
<g id="edge28" class="edge"><title>t5&#45;&gt;ln</title>
<path fill="none" stroke="red" d="M577.532,-255.394C562.164,-224.051 535.726,-170.131 518.498,-134.992"/>
<polygon fill="red" stroke="red" points="521.445,-133.052 513.9,-125.614 515.159,-136.134 521.445,-133.052"/>
<text text-anchor="middle" x="580.768" y="-194.41" font-family="Times,serif" font-size="14.00">9&#45;cycle</text>
<text text-anchor="middle" x="580.768" y="-179.41" font-family="Times,serif" font-size="14.00">delay</text>
</g>
<!-- s1234&#45;&gt;ln -->
<g id="edge27" class="edge"><title>s1234&#45;&gt;ln</title>
<path fill="none" stroke="black" d="M434.768,-167.674C446.107,-156.368 460.091,-142.425 472.345,-130.207"/>
<polygon fill="black" stroke="black" points="475.102,-132.4 479.712,-122.861 470.159,-127.443 475.102,-132.4"/>
</g>
<!-- ln&#45;&gt;ln output -->
<g id="edge29" class="edge"><title>ln&#45;&gt;ln output</title>
<path fill="none" stroke="black" d="M501.768,-72.7176C501.768,-64.2726 501.768,-54.8903 501.768,-46.3604"/>
<polygon fill="black" stroke="black" points="505.268,-46.1464 501.768,-36.1464 498.268,-46.1464 505.268,-46.1464"/>
</g>
<!-- start -->
<g id="node24" class="node"><title>start</title>
<ellipse fill="none" stroke="black" cx="947.768" cy="-693.441" rx="27" ry="18"/>
<text text-anchor="middle" x="947.768" y="-689.741" font-family="Times,serif" font-size="14.00">start</text>
</g>
<!-- start&#45;&gt;done -->
<g id="edge1" class="edge"><title>start&#45;&gt;done</title>
<path fill="none" stroke="black" d="M947.768,-675.11C947.768,-667.376 947.768,-657.957 947.768,-648.799"/>
<polygon fill="black" stroke="black" points="951.268,-648.675 947.768,-638.675 944.268,-648.675 951.268,-648.675"/>
</g>
<!-- x -->
<g id="node25" class="node"><title>x</title>
<ellipse fill="none" stroke="black" cx="468.768" cy="-693.441" rx="27" ry="18"/>
<text text-anchor="middle" x="468.768" y="-689.741" font-family="Times,serif" font-size="14.00">x</text>
</g>
<!-- x&#45;&gt;x_abs -->
<g id="edge2" class="edge"><title>x&#45;&gt;x_abs</title>
<path fill="none" stroke="black" d="M495.906,-692.047C556.49,-690.374 706.566,-681.799 822.768,-638.441 825.67,-637.358 828.586,-636.051 831.451,-634.608"/>
<polygon fill="black" stroke="black" points="833.327,-637.569 840.351,-629.638 829.914,-631.457 833.327,-637.569"/>
</g>
<!-- x&#45;&gt;e2 -->
<g id="edge5" class="edge"><title>x&#45;&gt;e2</title>
<path fill="none" stroke="black" d="M454.416,-677.791C447.89,-668.995 440.349,-657.419 433.88,-646.464"/>
<polygon fill="black" stroke="black" points="436.747,-644.427 428.745,-637.483 430.67,-647.901 436.747,-644.427"/>
</g>
<!-- x&#45;&gt;e2 -->
<g id="edge6" class="edge"><title>x&#45;&gt;e2</title>
<path fill="none" stroke="black" d="M464.012,-675.502C459.048,-665.65 451.56,-652.965 444.077,-641.568"/>
<polygon fill="black" stroke="black" points="446.899,-639.493 438.397,-633.172 441.101,-643.416 446.899,-639.493"/>
</g>
<!-- x&#45;&gt;e3 -->
<g id="edge10" class="edge"><title>x&#45;&gt;e3</title>
<path fill="none" stroke="red" d="M471.94,-675.225C475.152,-652.572 477.432,-612.394 459.768,-584.701 453.319,-574.591 396.792,-538.716 358.115,-514.902"/>
<polygon fill="red" stroke="red" points="359.546,-511.674 349.192,-509.427 355.885,-517.64 359.546,-511.674"/>
<text text-anchor="middle" x="495.768" y="-615.371" font-family="Times,serif" font-size="14.00">5&#45;cycle</text>
<text text-anchor="middle" x="495.768" y="-600.371" font-family="Times,serif" font-size="14.00">delay</text>
</g>
<!-- x&#45;&gt;s12 -->
<g id="edge13" class="edge"><title>x&#45;&gt;s12</title>
<path fill="none" stroke="red" d="M441.793,-691.187C350.081,-686.652 54.4384,-669.698 26.7675,-638.441 -31.3228,-572.821 19.8617,-460.92 51.382,-405.777"/>
<polygon fill="red" stroke="red" points="54.421,-407.513 56.4411,-397.113 48.3761,-403.984 54.421,-407.513"/>
<text text-anchor="middle" x="27.2675" y="-555.501" font-family="Times,serif" font-size="14.00">10&#45;cycle</text>
<text text-anchor="middle" x="27.2675" y="-540.501" font-family="Times,serif" font-size="14.00">delay</text>
</g>
<!-- x&#45;&gt;e5 -->
<g id="edge16" class="edge"><title>x&#45;&gt;e5</title>
<path fill="none" stroke="red" d="M487.406,-680.414C524.057,-655.504 604.561,-594.235 634.768,-518.701 649.993,-480.628 630.295,-435.292 612.376,-405.437"/>
<polygon fill="red" stroke="red" points="615.18,-403.32 606.913,-396.694 609.244,-407.03 615.18,-403.32"/>
<text text-anchor="middle" x="651.268" y="-555.501" font-family="Times,serif" font-size="14.00">10&#45;cycle</text>
<text text-anchor="middle" x="651.268" y="-540.501" font-family="Times,serif" font-size="14.00">delay</text>
</g>
</g>
</svg>
